<?xml version="1.0" encoding="utf-8"?>
<!-- Generator: Adobe Illustrator 21.0.0, SVG Export Plug-In . SVG Version: 6.00 Build 0)  -->
<svg version="1.1" id="Layer_1" xmlns="http://www.w3.org/2000/svg" xmlns:xlink="http://www.w3.org/1999/xlink" x="0px" y="0px"
	 viewBox="0 0 99 46.4" style="enable-background:new 0 0 99 46.4;" xml:space="preserve">
<style type="text/css">
	.st0{fill:#BDF1F2;}
	.st1{fill:#44BEC1;}
	.st2{fill:#2CADB7;}
	.st3{fill:#FFFFFF;}
	.st4{fill:#1D2227;}
</style>
<g>
	<path class="st1" d="M49.6,36.3c-2.1-0.4-3.3-0.7-3.3-0.7l-12.4-4c0,0-1.9,5.1-3.5,5.6s-2.1-0.8-3.2-1.7s-2.6-2.1-4.5-2
		s-3.2,1-2.9-0.4c0.4-1.4,2.4-4.2,1.9-4.7c-0.5-0.5,0.4-1-1.9-0.5S0,41,0,41s0.9-4.4,1.6-6.2s3.7-6.9,4.1-8.1s1.5-4.3-0.2-7
		S-0.2,9,0,7.4c0,0,4.1,2.9,5.9,4.2s10.2,8.4,12,8.4s14.2-4.2,14.2-4.2l10.2-2.9c0,0,1.2,0.2-0.9-2.1s1.5-5.4,2.4-7l2.8-3.2
		c0,0,0.8-1.5,2.2,0.6c1.4,2.1,4.5,8,4.5,8s0.8,1.4,3.8,0.8s10.5-2,19.2-0.9s14.1,3.5,14.1,3.5s2.6,1.4,3.1,2.2s1.6,1.7,2.2,1.9
		s1.6,0.5,1.9,1c0.2,0.5-0.2,2.1-0.2,2.1s1.8-0.8,1.5,0.9s-3.9,4.8-3.9,4.8s-10.5,8.3-24.2,10.8c-7.3,1.3-13.8,1.1-18.3,0.5
		l-0.7-0.1c0,0-4,7.9-5.9,9.7c0,0,0.4-5,0.1-5.8S49.6,36.3,49.6,36.3z"/>
	<path class="st2" d="M49.6,36.3c-2.1-0.4-3.3-0.7-3.3-0.7l-12.4-4c0,0-1.9,5.1-3.5,5.6s-2.1-0.8-3.2-1.7s-2.6-2.1-4.5-2
		s-3.2,1-2.9-0.4c0.4-1.4,2.4-4.2,1.9-4.7c-0.5-0.5,0.4-1-1.9-0.5S0,41,0,41s0.9-4.4,1.6-6.2s3.7-6.9,4.1-8.1s1.5-4.3-0.2-7
		S-0.2,9,0,7.4c0,0,4.1,2.9,5.9,4.2s10.2,8.4,12,8.4s14.2-4.2,14.2-4.2l10.2-2.9c0,0,1.2,0.2-0.9-2.1s1.5-5.4,2.4-7l2.8-3.2
		c0,0,0.8-1.5,2.2,0.6c1.4,2.1,4.5,8,4.5,8s0.8,1.4,3.8,0.8s10.5-2,19.2-0.9s14.1,3.5,14.1,3.5s2.6,1.4,3.1,2.2s1.6,1.7,2.2,1.9
		s1.6,0.5,1.9,1c0.2,0.5-0.2,2.1-0.2,2.1s1.8-0.8,1.5,0.9s-3.9,4.8-3.9,4.8s-10.5,8.3-24.2,10.8c-7.3,1.3-13.8,1.1-18.3,0.5
		l-0.7-0.1c0,0-4,7.9-5.9,9.7c0,0,0.4-5,0.1-5.8S49.6,36.3,49.6,36.3z M82.4,15.3c0,0-0.8-1.4-1.6-0.9s-0.4,1.2-2.7,1.3
		c-2.2,0.2-4.6-0.7-6.1-1.4c-1.5-0.7-2.6-1.2-4.6-1.3c-2-0.1-11.8,0.9-14.3,1.4C50.6,14.8,28,20,25.7,20.6c-2.2,0.6-5.2,2.1-6.2,2
		c-1.1-0.1-3.2-0.6-4.2-1.1s-1.8-0.8-1.8,0.4c-0.1,1.2-0.8,3.8,1.1,3.6c1.8-0.2,3-0.3,4.4-0.4c1.4-0.1,0.9-0.3,2.9,0.4
		c2,0.7,7.5,2.7,8.2,3.2c0.7,0.4,12.8,4,14,4.3c0,0,9.4,3.5,19.9,2.4c10.5-1.1,13.9-2.8,13.9-2.8s0.9-1.2,1.9-1.4s2.2,0.2,2.7-0.1
		c0.4-0.3,1.2-0.8,0.3-2.2c-0.9-1.3-1.8-5.1-1-7.2s1.7-2.5,1.4-1.2c-0.3,1.3-0.5,3.1-0.4,3.7c0.1,0.6,0.8,3.9,1.4,4.5
		c0.6,0.6,1.1,0.7,1.6,0.5c0.5-0.2,8.8-4.8,9.3-5.5s1.4-1.6,0-1.3c-1.4,0.3-1.8-0.3-1.1-1.6c0.7-1.2,1.3-1.7,0.4-2.2
		s-2.1-1.4-2.8-2.4s-3.1-2.8-4-2.4c-0.9,0.4-3.5,0.5-3.8,2.2s-0.5,2.2-0.9,1.7C82.5,17.2,82.4,15.3,82.4,15.3z"/>
	<g>
		<path class="st2" d="M82.1,28.7c-0.1-0.8-0.5-1.4-1.1-1.4c-0.1,0-0.2,0.1-0.2,0.2s0.1,0.2,0.2,0.2c0.3,0,0.7,0.5,0.7,1.2
			c0,0.5-0.2,0.9-0.5,1.1c-0.1-0.7-0.6-1.2-1.1-1.2c-0.1,0-0.2,0.1-0.2,0.2s0.1,0.2,0.2,0.2c0.3,0,0.7,0.5,0.7,1.2
			c0,0.5-0.2,0.9-0.5,1.1c0-0.1,0-0.3,0-0.5c0-0.8-0.4-1.5-0.9-1.6c-0.1-0.8-0.5-1.4-1.1-1.4c-0.1,0-0.2,0.1-0.2,0.2
			s0.1,0.2,0.2,0.2c0.3,0,0.7,0.5,0.7,1.2c0,0.5-0.2,0.9-0.5,1.1c-0.1-0.6-0.4-1-0.9-1.1c0-0.1,0-0.2,0-0.2c0-0.9-0.5-1.7-1.2-1.7
			c-0.1,0-0.2,0.1-0.2,0.2s0.1,0.2,0.2,0.2c0.3,0,0.7,0.5,0.7,1.2c0,0.5-0.2,0.9-0.5,1.1c-0.2-0.3-0.5-0.5-0.8-0.5c0,0,0,0-0.1,0
			c-0.1-0.9-0.5-1.5-1.1-1.5c-0.1,0-0.2,0.1-0.2,0.2s0.1,0.2,0.2,0.2c0.3,0,0.7,0.5,0.7,1.2c0,0.5-0.2,0.9-0.4,1.1
			c0-0.1,0-0.1,0-0.2c0-0.8-0.4-1.5-0.9-1.6c0,0,0-0.1,0-0.1c0-0.9-0.5-1.7-1.2-1.7c-0.1,0-0.2,0.1-0.2,0.2s0.1,0.2,0.2,0.2
			c0.3,0,0.7,0.5,0.7,1.2c0,0.5-0.2,0.9-0.4,1.1C73,29.6,72.5,29,71.9,29c-0.1,0-0.2,0.1-0.2,0.2s0.1,0.2,0.2,0.2
			c0.3,0,0.7,0.5,0.7,1.2c0,0.6-0.3,1.1-0.6,1.1c-0.2-0.3-0.4-0.6-0.7-0.7c-0.1-0.8-0.5-1.4-1.1-1.4c-0.1,0-0.2,0.1-0.2,0.2
			s0.1,0.2,0.2,0.2c0.3,0,0.7,0.5,0.7,1.2c0,0.5-0.2,0.9-0.5,1.1c-0.1-0.6-0.5-1-0.9-1.1c-0.1-0.7-0.6-1.3-1.1-1.3
			c-0.1,0-0.2,0.1-0.2,0.2s0.1,0.2,0.2,0.2c0.3,0,0.7,0.5,0.7,1.2c0,0.5-0.2,0.9-0.4,1.1c-0.1-0.7-0.5-1.2-0.9-1.3
			c-0.1-0.7-0.6-1.3-1.1-1.3c-0.1,0-0.2,0.1-0.2,0.2s0.1,0.2,0.2,0.2c0.3,0,0.7,0.5,0.7,1.2c0,0.5-0.2,0.9-0.5,1.1
			c-0.1-0.5-0.4-0.9-0.8-1.1c0-0.9-0.5-1.6-1.2-1.6c-0.1,0-0.2,0.1-0.2,0.2s0.1,0.2,0.2,0.2c0.3,0,0.7,0.5,0.7,1.2
			c0,0.5-0.2,0.9-0.5,1.1c-0.1-0.7-0.6-1.2-1.1-1.2c-0.1,0-0.2,0.1-0.2,0.3c0,0.1,0.1,0.2,0.2,0.2c0.3,0,0.7,0.5,0.7,1.2
			c0,0.5-0.2,0.9-0.5,1.1c0-0.1,0-0.3,0-0.5c0-0.8-0.4-1.5-0.9-1.6C63,31.6,62.5,31,61.9,31c-0.1,0-0.2,0.1-0.2,0.2s0.1,0.2,0.2,0.2
			c0.3,0,0.7,0.5,0.7,1.2c0,0.5-0.2,0.9-0.5,1.1c-0.1-0.6-0.4-1-0.9-1.1c-0.1-0.8-0.5-1.4-1.1-1.4c-0.1,0-0.2,0.1-0.2,0.2
			s0.1,0.2,0.2,0.2c0.3,0,0.7,0.5,0.7,1.2c0,0.6-0.3,1.1-0.6,1.1c-0.1-0.1-0.2-0.1-0.3-0.1c-0.1-0.7-0.6-1.2-1.1-1.2
			c-0.1,0-0.2,0.1-0.2,0.2s0.1,0.2,0.2,0.2c0.3,0,0.7,0.5,0.7,1.2c0,0.5-0.2,0.9-0.4,1.1c0-0.8-0.5-1.5-1-1.6
			c-0.2-0.5-0.4-0.8-0.8-0.9c-0.1-0.8-0.5-1.4-1.1-1.4c-0.1,0-0.2,0.1-0.2,0.2S55.9,32,56,32c0.3,0,0.7,0.5,0.7,1.2
			c0,0.5-0.2,0.9-0.5,1.1c-0.1-0.7-0.6-1.2-1.1-1.2c0,0-0.1,0-0.1,0c-0.2-0.3-0.5-0.4-0.8-0.5c-0.1-0.8-0.5-1.5-1.1-1.5
			c-0.1,0-0.2,0.1-0.2,0.2s0.1,0.2,0.2,0.2c0.3,0,0.7,0.5,0.7,1.2c0,0.5-0.2,1-0.5,1.1c-0.2-0.4-0.4-0.6-0.7-0.7
			c0-0.8-0.5-1.5-1.1-1.5c-0.1-0.8-0.5-1.5-1.1-1.5c-0.1,0-0.2,0.1-0.2,0.2s0.1,0.2,0.2,0.2c0.3,0,0.7,0.5,0.7,1.2
			c0,0.5-0.2,1-0.5,1.1c-0.2-0.4-0.4-0.6-0.7-0.7c0-0.9-0.5-1.5-1.1-1.5c-0.1,0-0.2,0.1-0.2,0.2s0.1,0.2,0.2,0.2
			c0.3,0,0.7,0.5,0.7,1.2c0,0.6-0.3,1.1-0.6,1.1c-0.1-0.7-0.5-1.3-1-1.4c-0.1-0.8-0.5-1.4-1.1-1.4c0-0.9-0.5-1.5-1.1-1.5
			c-0.1,0-0.2,0.1-0.2,0.2s0.1,0.2,0.2,0.2c0.3,0,0.7,0.5,0.7,1.2c0,0.6-0.3,1-0.6,1.1c0,0,0,0,0,0c0-0.7-0.4-1.3-0.9-1.4
			c-0.1-0.7-0.5-1.3-1.1-1.3c-0.1,0-0.2,0.1-0.2,0.2s0.1,0.2,0.2,0.2c0.4,0,0.7,0.4,0.7,0.9c0,0.4-0.2,0.8-0.5,0.9c0,0-0.1,0-0.1,0
			c-0.1-0.7-0.5-1.2-1.1-1.3c0-0.8-0.5-1.4-1.2-1.4c-0.1,0-0.2,0.1-0.2,0.2s0.1,0.2,0.2,0.2c0.4,0,0.7,0.4,0.7,0.9s-0.3,0.9-0.7,0.9
			c0,0-0.1,0-0.1,0c-0.1-0.7-0.6-1.2-1.1-1.2c0,0,0,0,0,0c-0.2-0.5-0.6-0.9-1.1-0.9c0,0-0.1,0-0.1,0c-0.2-0.4-0.5-0.7-0.9-0.8
			c-0.1-0.6-0.6-1.1-1.1-1.1c0,0,0,0,0,0c-0.2-0.4-0.6-0.7-1-0.7c-0.1,0-0.2,0.1-0.2,0.2s0.1,0.2,0.2,0.2c0.4,0,0.7,0.4,0.7,0.8
			c0,0.4-0.2,0.7-0.5,0.8c-0.1,0-0.1,0-0.2,0c0,0,0,0,0,0c-0.2-0.4-0.6-0.6-1-0.6c0,0-0.1,0-0.1,0c-0.2-0.4-0.5-0.6-0.8-0.7
			c-0.1-0.6-0.6-1.1-1.1-1.1c-0.1,0-0.2,0.1-0.2,0.2s0.1,0.2,0.2,0.2c0.4,0,0.7,0.4,0.7,0.8c0,0.4-0.2,0.7-0.5,0.8
			c-0.1,0-0.1,0-0.2,0c0,0,0,0,0,0c-0.2-0.4-0.5-0.6-0.9-0.6c-0.1-0.6-0.6-1.1-1.1-1.1c-0.1,0-0.2,0.1-0.2,0.2s0.1,0.2,0.2,0.2
			c0.4,0,0.7,0.4,0.7,0.8S30.8,29,30.4,29c-0.1,0-0.2,0.1-0.2,0.2s0.1,0.2,0.2,0.2c0.6,0,1-0.5,1.1-1.1c0.3,0,0.6,0.4,0.6,0.8
			c0,0.5-0.3,0.8-0.7,0.8c-0.1,0-0.2,0.1-0.2,0.2s0.1,0.2,0.2,0.2c0.6,0,1.2-0.6,1.2-1.3c0,0,0-0.1,0-0.1c0,0,0,0,0.1,0
			c0.3,0.1,0.4,0.4,0.4,0.8c0,0.5-0.3,0.8-0.7,0.8c-0.1,0-0.2,0.1-0.2,0.2s0.1,0.2,0.2,0.2c0.4,0,0.7-0.2,0.9-0.6
			c0,0,0.1,0.1,0.1,0.1c0.6,0,1.2-0.7,1.2-1.6c0-0.1,0-0.3,0-0.4c0.3,0,0.6,0.4,0.6,0.8c0,0.5-0.3,0.8-0.7,0.8
			c-0.1,0-0.2,0.1-0.2,0.2s0.1,0.2,0.2,0.2c0.6,0,1.2-0.6,1.2-1.3c0,0,0-0.1,0-0.1c0,0,0,0,0.1,0c0.3,0.1,0.4,0.4,0.4,0.8
			c0,0.5-0.3,0.8-0.7,0.8c-0.1,0-0.2,0.1-0.2,0.2s0.1,0.2,0.2,0.2c0.6,0,1-0.5,1.1-1.2c0.3,0,0.6,0.4,0.6,0.8c0,0.5-0.3,0.8-0.7,0.8
			c-0.1,0-0.2,0.1-0.2,0.3s0.1,0.2,0.2,0.2c0.4,0,0.8-0.3,1-0.7c0,0,0,0,0,0c0.6,0,1.2-0.7,1.2-1.6c0-0.1,0-0.3,0-0.4
			c0.3,0,0.6,0.4,0.6,0.9c0,0.5-0.3,0.9-0.7,0.9c-0.1,0-0.2,0.1-0.2,0.2s0.1,0.3,0.2,0.3c0.6,0,1.2-0.6,1.2-1.4
			c0.3,0.1,0.6,0.4,0.6,0.9c0,0.5-0.3,0.9-0.7,0.9c-0.1,0-0.2,0.1-0.2,0.2s0.1,0.2,0.2,0.2c0.6,0,1.1-0.5,1.1-1.2c0,0,0.1,0,0.1,0
			c0.4,0,0.7,0.3,0.7,0.7s-0.3,0.7-0.7,0.7c-0.1,0-0.2,0.1-0.2,0.2s0.1,0.2,0.2,0.2c0.4,0,0.8-0.2,1-0.6c0,0,0.1,0.1,0.1,0.1
			c0.5,0,1-0.4,1.1-1c0,0,0,0,0,0c0,0,0,0,0.1,0c0.2,0.2,0.4,0.5,0.4,0.8c0,0.5-0.3,0.9-0.7,0.9c-0.1,0-0.2,0.1-0.2,0.2
			s0.1,0.2,0.2,0.2c0.5,0,1-0.4,1.1-1c0,0,0,0,0,0c0.5,0,0.9-0.3,1-0.8c0.3,0.1,0.5,0.5,0.5,0.9c0,0.5-0.3,0.9-0.7,0.9
			c-0.1,0-0.2,0.1-0.2,0.2S45,35,45.1,35c0.5,0,0.9-0.4,1.1-1c0,0.1,0.1,0.1,0.2,0.1c0.6,0,1-0.6,1.1-1.4c0.3,0.1,0.5,0.6,0.5,1.1
			c0,0.6-0.3,1.2-0.7,1.2c-0.1,0-0.2,0.1-0.2,0.2s0.1,0.2,0.2,0.2c0.6,0,1.1-0.6,1.1-1.4c0.5,0,0.9-0.5,1.1-1.2
			c0.3,0.2,0.4,0.6,0.4,1.1c0,0.6-0.3,1.2-0.7,1.2c-0.1,0-0.2,0.1-0.2,0.2s0.1,0.2,0.2,0.2c0.6,0,1.2-0.7,1.2-1.7c0-0.2,0-0.3,0-0.4
			c0.4-0.1,0.8-0.7,0.9-1.3c0.3,0,0.6,0.6,0.6,1.1c0,0.6-0.3,1.2-0.7,1.2c-0.1,0-0.2,0.1-0.2,0.2s0.1,0.2,0.2,0.2
			c0.5,0,1-0.5,1.1-1.2c0.3,0.2,0.4,0.6,0.4,1.1c0,0.6-0.3,1.2-0.7,1.2c-0.1,0-0.2,0.1-0.2,0.2s0.1,0.2,0.2,0.2
			c0.6,0,1.2-0.7,1.2-1.7c0-0.2,0-0.3,0-0.4c0.4-0.1,0.8-0.6,0.9-1.3c0.3,0,0.6,0.5,0.6,1.1c0,0.6-0.3,1.2-0.7,1.2
			c-0.1,0-0.2,0.1-0.2,0.2s0.1,0.2,0.2,0.2c0.6,0,1.2-0.7,1.2-1.7c0-0.2,0-0.5-0.1-0.7c0.3,0.1,0.5,0.6,0.5,1.1
			c0,0.6-0.3,1.2-0.7,1.2c-0.1,0-0.2,0.1-0.2,0.2s0.1,0.2,0.2,0.2c0.6,0,1.1-0.7,1.2-1.6c0.5-0.1,0.8-0.6,0.9-1.3
			c0.2,0.2,0.4,0.6,0.4,1.1c0,0.6-0.3,1.2-0.7,1.2c-0.1,0-0.2,0.1-0.2,0.2s0.1,0.2,0.2,0.2c0.6,0,1.2-0.7,1.2-1.7c0-0.1,0-0.1,0-0.2
			c0.2,0.2,0.4,0.6,0.4,1.1c0,0.6-0.3,1.2-0.7,1.2c-0.1,0-0.2,0.1-0.2,0.2s0.1,0.2,0.2,0.2c0.5,0,1-0.5,1.1-1.2
			c0.5-0.1,0.9-0.8,1-1.6c0.2,0.2,0.4,0.6,0.4,1.1c0,0.6-0.3,1.2-0.7,1.2c-0.1,0-0.2,0.1-0.2,0.2s0.1,0.2,0.2,0.2
			c0.6,0,1.1-0.6,1.1-1.4c0,0.1,0.1,0.2,0.2,0.2c0.6,0,1.1-0.7,1.2-1.6c0.5-0.1,0.8-0.6,0.9-1.3c0.2,0.2,0.4,0.6,0.4,1.1
			c0,0.6-0.3,1.2-0.7,1.2c-0.1,0-0.2,0.1-0.2,0.2s0.1,0.2,0.2,0.2c0.4,0,0.7-0.2,0.9-0.6c0,0,0,0,0,0c0.6,0,1-0.6,1.1-1.3
			c0.2,0.2,0.4,0.6,0.4,1.1c0,0.6-0.3,1.2-0.7,1.2c-0.1,0-0.2,0.1-0.2,0.2s0.1,0.2,0.2,0.2c0.6,0,1.1-0.6,1.1-1.5
			c0.5-0.1,0.9-0.8,0.9-1.5c0.2,0.2,0.4,0.6,0.4,1.1c0,0.6-0.3,1.2-0.7,1.2c-0.1,0-0.2,0.1-0.2,0.2s0.1,0.2,0.2,0.2
			c0.6,0,1.1-0.7,1.2-1.6c0.5-0.1,0.8-0.6,0.9-1.3c0.2,0.2,0.4,0.6,0.4,1.1c0,0.6-0.3,1.2-0.7,1.2c-0.1,0-0.2,0.1-0.2,0.2
			s0.1,0.2,0.2,0.2c0.6,0,1.1-0.7,1.2-1.6c0.5-0.1,0.8-0.7,0.9-1.3c0.2,0.2,0.4,0.6,0.4,1.1c0,0.6-0.3,1.2-0.7,1.2
			c-0.1,0-0.2,0.1-0.2,0.2s0.1,0.2,0.2,0.2c0.6,0,1.1-0.7,1.1-1.6c0.5-0.1,0.9-0.7,0.9-1.5c0.2,0.2,0.4,0.6,0.4,1.1
			c0,0.6-0.3,1.2-0.7,1.2c-0.1,0-0.2,0.1-0.2,0.2s0.1,0.2,0.2,0.2c0.6,0,1.1-0.7,1.2-1.6c0.4-0.1,0.8-0.6,0.9-1.3c0,0,0,0,0,0
			c0.2,0.2,0.4,0.6,0.4,1.1c0,0.6-0.3,1.2-0.7,1.2c-0.1,0-0.2,0.1-0.2,0.2s0.1,0.2,0.2,0.2c0.4,0,0.8-0.3,1-0.7
			c0,0.1,0.1,0.2,0.2,0.2c0.6,0,1.1-0.7,1.2-1.6c0.5-0.2,0.9-0.8,0.9-1.6c0-0.3,0-0.5-0.1-0.7c0.3-0.1,0.5-0.4,0.6-0.8
			c0.3,0.1,0.5,0.6,0.5,1.1c0,0.6-0.3,1.2-0.7,1.2c-0.1,0-0.2,0.1-0.2,0.2s0.1,0.2,0.2,0.2c0.6,0,1.1-0.7,1.2-1.6
			c0.5-0.1,0.8-0.6,0.9-1.3c0.2,0.2,0.4,0.6,0.4,1.1c0,0.6-0.3,1.2-0.7,1.2c-0.1,0-0.2,0.1-0.2,0.2s0.1,0.2,0.2,0.2
			c0.4,0,0.7-0.2,0.9-0.6c0,0,0,0,0,0c0.6,0,1.1-0.7,1.2-1.6c0.5-0.1,0.8-0.6,0.9-1.3c0.2,0.2,0.4,0.6,0.4,1.1
			c0,0.6-0.3,1.2-0.7,1.2c-0.1,0-0.2,0.1-0.2,0.2s0.1,0.2,0.2,0.2c0.6,0,1.2-0.7,1.2-1.7C83,29.5,82.6,28.8,82.1,28.7z M33.6,30.1
			c0-0.1,0-0.2,0-0.3c0-0.4-0.2-0.8-0.4-1c0.2-0.2,0.4-0.5,0.5-0.8c0.3,0.1,0.5,0.5,0.5,1C34.2,29.6,33.9,30.1,33.6,30.1z
			 M36.3,29.1c0.3-0.2,0.5-0.6,0.5-1.1c0,0,0-0.1,0-0.1c0.3,0.1,0.5,0.5,0.5,0.9c0,0.5-0.3,0.9-0.7,0.9c0,0,0,0,0,0
			C36.6,29.5,36.5,29.3,36.3,29.1z M37.8,31.2C37.8,31.2,37.8,31.1,37.8,31.2c0-0.5-0.2-0.9-0.5-1.2c0.3-0.2,0.5-0.6,0.5-1
			c0.3,0.1,0.6,0.6,0.6,1.1C38.3,30.6,38.1,31.1,37.8,31.2z M42.2,32.8c0-0.1,0-0.1,0-0.2c0-0.4-0.2-0.8-0.5-1
			c0.2-0.2,0.3-0.4,0.4-0.7c0,0,0,0,0,0c0.4,0,0.7,0.4,0.7,0.9C42.9,32.3,42.6,32.7,42.2,32.8z M44.3,33c0-0.4-0.1-0.7-0.4-1
			c0.3-0.2,0.4-0.5,0.5-0.9c0.3,0.1,0.5,0.5,0.5,0.9C44.9,32.5,44.6,33,44.3,33z M46.4,33.6c-0.1,0-0.1,0-0.1,0.1c0,0,0-0.1,0-0.1
			c0-0.5-0.2-0.9-0.5-1.1c0.3-0.2,0.5-0.6,0.6-1.1c0.3,0,0.7,0.5,0.7,1.2C47.1,33.1,46.8,33.6,46.4,33.6z M61,35.4
			c-0.1,0-0.2,0.1-0.2,0.1c0,0,0,0,0-0.1c0-0.4-0.1-0.8-0.3-1.1c0.4-0.2,0.6-0.6,0.7-1.2c0.2,0.2,0.4,0.6,0.4,1.1
			C61.7,34.9,61.4,35.4,61,35.4z M73.9,30c0.3,0.1,0.5,0.6,0.5,1.1c0,0.5-0.2,0.9-0.4,1.1c0,0,0,0,0,0c-0.1-0.6-0.3-1-0.6-1.3
			C73.6,30.7,73.8,30.4,73.9,30z M65.8,34.5c-0.1-0.5-0.3-0.9-0.6-1.1c0.3-0.2,0.5-0.6,0.6-1c0.3,0.2,0.5,0.6,0.5,1.1
			C66.2,33.9,66,34.4,65.8,34.5z M67.6,34.1c-0.1-0.4-0.3-0.7-0.5-0.9c0.3-0.3,0.5-0.7,0.5-1.2c0.2,0.2,0.4,0.6,0.4,1.1
			C68,33.6,67.8,34,67.6,34.1z M69.4,34c-0.1-0.4-0.3-0.7-0.5-0.9c0.3-0.3,0.5-0.7,0.5-1.2c0.2,0.2,0.4,0.6,0.4,1.1
			C69.8,33.4,69.6,33.8,69.4,34z M71.2,33.8c-0.1-0.4-0.3-0.8-0.6-1c0.3-0.2,0.5-0.6,0.6-1.1c0.2,0.2,0.4,0.6,0.4,1.1
			C71.6,33.2,71.4,33.6,71.2,33.8z M73,33.4c-0.1-0.6-0.5-1-0.9-1.1c0,0,0,0,0,0c0.4-0.1,0.7-0.5,0.9-1c0.3,0.1,0.5,0.6,0.5,1.1
			C73.4,32.9,73.2,33.3,73,33.4z M74.9,34.4c-0.1,0-0.1,0-0.1,0.1c0.1-0.2,0.1-0.4,0.1-0.7c0-0.6-0.2-1-0.5-1.3
			c0.1-0.1,0.2-0.3,0.3-0.5c0,0.1,0.1,0.1,0.2,0.1c0.3,0,0.7,0.5,0.7,1.2S75.3,34.4,74.9,34.4z M76,32.7c-0.1-0.6-0.4-1-0.8-1.1
			c0.3-0.2,0.5-0.6,0.6-1.1c0,0,0,0,0.1,0c0.1,0,0.3,0.1,0.4,0.2c0,0,0,0,0,0c0,0.1,0.1,0.2,0.2,0.2c0.1,0.2,0.1,0.4,0.1,0.7
			C76.5,32.2,76.3,32.6,76,32.7z"/>
		<path class="st2" d="M31.3,21.1c0.2,0.2,0.4,0.6,0.4,1.1c0,0.6-0.3,1.2-0.7,1.2c-0.1,0-0.2,0.1-0.2,0.2s0.1,0.2,0.2,0.2
			c0.5,0,1-0.5,1.1-1.2c0.3,0.2,0.4,0.6,0.4,1.1c0,0.6-0.3,1.2-0.7,1.2c-0.1,0-0.2,0.1-0.2,0.2s0.1,0.2,0.2,0.2
			c0.6,0,1.2-0.7,1.2-1.7c0-0.6-0.2-1.1-0.5-1.4c0.3-0.3,0.5-0.8,0.5-1.4c0.5-0.1,0.8-0.6,0.9-1.3c0.2,0.2,0.4,0.6,0.4,1.1
			c0,0.6-0.3,1.2-0.7,1.2c-0.1,0-0.2,0.1-0.2,0.2s0.1,0.2,0.2,0.2c0.4,0,0.7-0.2,0.9-0.6c0,0,0,0,0,0c0.3,0,0.7,0.5,0.7,1.2
			S35.1,24,34.7,24c-0.1,0-0.2,0.1-0.2,0.2s0.1,0.2,0.2,0.2c0.6,0,1.1-0.6,1.1-1.4c0.5-0.1,0.9-0.8,0.9-1.6c0.5-0.1,0.8-0.6,0.9-1.3
			c0.2,0.2,0.4,0.6,0.4,1.1c0,0.6-0.3,1.2-0.7,1.2c-0.1,0-0.2,0.1-0.2,0.2s0.1,0.2,0.2,0.2c0.4,0,0.7-0.2,0.9-0.6c0,0,0,0,0,0
			c0.6,0,1.1-0.7,1.2-1.6c0.5-0.1,0.8-0.6,0.9-1.3c0.2,0.2,0.4,0.6,0.4,1.1c0,0.6-0.3,1.2-0.7,1.2c-0.1,0-0.2,0.1-0.2,0.2
			s0.1,0.2,0.2,0.2c0.5,0,1-0.5,1.1-1.2c0.3,0.2,0.4,0.6,0.4,1.1c0,0.6-0.3,1.2-0.7,1.2c-0.1,0-0.2,0.1-0.2,0.2s0.1,0.2,0.2,0.2
			c0.6,0,1.2-0.7,1.2-1.7c0-0.6-0.2-1.1-0.5-1.4c0.3-0.3,0.5-0.8,0.5-1.4c0.5-0.1,0.8-0.6,0.9-1.3c0.2,0.2,0.4,0.6,0.4,1.1
			c0,0.6-0.3,1.2-0.7,1.2c-0.1,0-0.2,0.1-0.2,0.2s0.1,0.2,0.2,0.2c0.4,0,0.7-0.2,0.9-0.6c0,0,0,0,0,0c0.3,0,0.7,0.5,0.7,1.2
			s-0.3,1.2-0.7,1.2c-0.1,0-0.2,0.1-0.2,0.2s0.1,0.2,0.2,0.2c0.6,0,1.2-0.7,1.2-1.7c0-0.1,0-0.1,0-0.2c0.2,0.2,0.4,0.6,0.4,1.1
			c0,0.6-0.3,1.2-0.7,1.2c-0.1,0-0.2,0.1-0.2,0.2s0.1,0.2,0.2,0.2c0.6,0,1.1-0.7,1.2-1.6c0.5-0.1,0.8-0.6,0.9-1.3
			c0.2,0.2,0.4,0.6,0.4,1.1c0,0.6-0.3,1.2-0.7,1.2c-0.1,0-0.2,0.1-0.2,0.2s0.1,0.2,0.2,0.2c0.4,0,0.7-0.2,0.9-0.6c0,0,0,0,0,0
			c0.6,0,1.1-0.7,1.2-1.6c0.5-0.1,0.8-0.6,0.9-1.3c0.2,0.2,0.4,0.6,0.4,1.1c0,0.6-0.3,1.2-0.7,1.2c-0.1,0-0.2,0.1-0.2,0.2
			s0.1,0.2,0.2,0.2c0.5,0,1-0.5,1.1-1.2c0.3,0.2,0.4,0.6,0.4,1.1c0,0.6-0.3,1.2-0.7,1.2c-0.1,0-0.2,0.1-0.2,0.2s0.1,0.2,0.2,0.2
			c0.6,0,1.2-0.7,1.2-1.7c0-0.6-0.2-1.1-0.5-1.4c0.3-0.3,0.5-0.8,0.5-1.4c0.5-0.1,0.8-0.6,0.9-1.3c0.2,0.2,0.4,0.6,0.4,1.1
			c0,0.6-0.3,1.2-0.7,1.2c-0.1,0-0.2,0.1-0.2,0.2s0.1,0.2,0.2,0.2c0.4,0,0.7-0.2,0.9-0.6c0,0,0,0,0,0c0.3,0,0.7,0.5,0.7,1.2
			S53.2,23,52.9,23c-0.1,0-0.2,0.1-0.2,0.2s0.1,0.2,0.2,0.2c0.6,0,1.1-0.7,1.2-1.6c0.5-0.2,0.9-0.8,0.9-1.6c0.5-0.1,0.8-0.6,0.9-1.3
			c0.2,0.2,0.4,0.6,0.4,1.1c0,0.6-0.3,1.2-0.7,1.2c-0.1,0-0.2,0.1-0.2,0.2s0.1,0.2,0.2,0.2c0.4,0,0.7-0.2,0.9-0.6c0,0,0,0,0,0
			c0.6,0,1.1-0.7,1.2-1.6c0.5-0.1,0.8-0.6,0.9-1.3c0.2,0.2,0.4,0.6,0.4,1.1c0,0.6-0.3,1.2-0.7,1.2c-0.1,0-0.2,0.1-0.2,0.2
			s0.1,0.2,0.2,0.2c0.5,0,1-0.5,1.1-1.2c0.3,0.2,0.4,0.6,0.4,1.1c0,0.6-0.3,1.2-0.7,1.2c-0.1,0-0.2,0.1-0.2,0.2s0.1,0.2,0.2,0.2
			c0.6,0,1.2-0.7,1.2-1.7c0-0.6-0.2-1.1-0.5-1.4c0.3-0.3,0.5-0.8,0.5-1.4c0.5-0.1,0.8-0.6,0.9-1.3c0.2,0.2,0.4,0.6,0.4,1.1
			c0,0.6-0.3,1.2-0.7,1.2c-0.1,0-0.2,0.1-0.2,0.2s0.1,0.2,0.2,0.2c0.4,0,0.7-0.2,0.9-0.6c0,0,0,0,0,0c0.3,0,0.7,0.5,0.7,1.2
			s-0.3,1.2-0.7,1.2c-0.1,0-0.2,0.1-0.2,0.2s0.1,0.2,0.2,0.2c0.6,0,1.2-0.7,1.2-1.7c0-0.6-0.2-1.1-0.5-1.4c0.3-0.3,0.5-0.8,0.5-1.4
			c0.5-0.1,0.8-0.6,0.9-1.3c0.2,0.2,0.4,0.6,0.4,1.1c0,0.6-0.3,1.2-0.7,1.2c-0.1,0-0.2,0.1-0.2,0.2s0.1,0.2,0.2,0.2
			c0.6,0,1.1-0.7,1.2-1.6c0.2,0.2,0.4,0.6,0.4,1.1c0,0.6-0.3,1.2-0.7,1.2c-0.1,0-0.2,0.1-0.2,0.2s0.1,0.2,0.2,0.2
			c0.3,0,0.7,0.5,0.7,1.2s-0.3,1.2-0.7,1.2c-0.1,0-0.2,0.1-0.2,0.2s0.1,0.2,0.2,0.2c0.6,0,1.2-0.7,1.2-1.7c0-0.6-0.2-1.1-0.5-1.4
			c0.3-0.3,0.5-0.8,0.5-1.4c0.5-0.1,0.8-0.6,0.9-1.3c0.2,0.2,0.4,0.6,0.4,1.1c0,0.6-0.3,1.2-0.7,1.2c-0.1,0-0.2,0.1-0.2,0.2
			s0.1,0.2,0.2,0.2c0.4,0,0.7-0.2,0.9-0.6c0,0,0,0,0,0c0.3,0,0.7,0.5,0.7,1.2s-0.3,1.2-0.7,1.2c-0.1,0-0.2,0.1-0.2,0.2
			s0.1,0.2,0.2,0.2c0.6,0,1.2-0.7,1.2-1.7c0-0.6-0.2-1.1-0.5-1.4c0.3-0.3,0.5-0.8,0.5-1.4c0.5-0.1,0.8-0.6,0.9-1.3
			c0.2,0.2,0.4,0.6,0.4,1.1c0,0.6-0.3,1.2-0.7,1.2c-0.1,0-0.2,0.1-0.2,0.2S69,19,69.2,19c0.6,0,1.1-0.7,1.1-1.5
			c0.2,0.2,0.4,0.6,0.4,1.1c0,0.6-0.3,1.2-0.7,1.2c-0.1,0-0.2,0.1-0.2,0.2s0.1,0.2,0.2,0.2c0.6,0,1.1-0.7,1.2-1.6
			c0.5-0.1,0.8-0.6,0.9-1.3c0.2,0.2,0.4,0.6,0.4,1.1c0,0.6-0.3,1.2-0.7,1.2c-0.1,0-0.2,0.1-0.2,0.2s0.1,0.2,0.2,0.2
			c0.4,0,0.7-0.2,0.9-0.6c0,0,0,0,0,0c0.6,0,1.1-0.7,1.2-1.6c0.5-0.1,0.8-0.6,0.9-1.3c0.2,0.2,0.4,0.6,0.4,1.1
			c0,0.6-0.3,1.2-0.7,1.2c-0.1,0-0.2,0.1-0.2,0.2s0.1,0.2,0.2,0.2c0.6,0,1.1-0.6,1.1-1.4c0.2,0.2,0.4,0.6,0.4,1.1
			c0,0.6-0.3,1.2-0.7,1.2c-0.1,0-0.2,0.1-0.2,0.2s0.1,0.2,0.2,0.2c0.6,0,1.1-0.7,1.2-1.6c0.5-0.1,0.8-0.6,0.9-1.3
			c0.2,0.2,0.4,0.6,0.4,1.1c0,0.6-0.3,1.2-0.7,1.2c-0.1,0-0.2,0.1-0.2,0.2s0.1,0.2,0.2,0.2c0.4,0,0.7-0.2,0.9-0.6c0,0,0,0,0,0
			c0.6,0,1.1-0.7,1.2-1.6c0.5-0.1,0.8-0.6,0.9-1.3c0.2,0.2,0.4,0.6,0.4,1.1c0,0.6-0.3,1.2-0.7,1.2c-0.1,0-0.2,0.1-0.2,0.2
			s0.1,0.2,0.2,0.2c0.6,0,1.2-0.7,1.2-1.7c0-0.6-0.2-1.1-0.5-1.4c0.3-0.3,0.5-0.8,0.5-1.4c0-0.8-0.4-1.5-0.9-1.6
			c-0.1-0.8-0.5-1.4-1.1-1.4c-0.1,0-0.2,0.1-0.2,0.2s0.1,0.2,0.2,0.2c0.3,0,0.7,0.5,0.7,1.2c0,0.5-0.2,0.9-0.5,1.1
			c-0.1-0.7-0.6-1.2-1.1-1.2c-0.1,0-0.2,0.1-0.2,0.2s0.1,0.2,0.2,0.2c0.3,0,0.7,0.5,0.7,1.2c0,0.5-0.2,0.9-0.5,1.1
			c0-0.1,0-0.3,0-0.5c0-0.8-0.4-1.5-0.9-1.6c-0.1-0.8-0.5-1.4-1.1-1.4c-0.1,0-0.2,0.1-0.2,0.2s0.1,0.2,0.2,0.2
			c0.3,0,0.7,0.5,0.7,1.2c0,0.5-0.2,0.9-0.5,1.1c-0.1-0.6-0.4-1-0.9-1.1c-0.1-0.7-0.4-1.2-0.9-1.3c-0.1-0.8-0.5-1.4-1.1-1.4
			c-0.1,0-0.2,0.1-0.2,0.2s0.1,0.2,0.2,0.2c0.3,0,0.7,0.5,0.7,1.2c0,0.5-0.2,0.9-0.5,1.1c-0.1-0.7-0.6-1.2-1.1-1.2
			c-0.1,0-0.2,0.1-0.2,0.2s0.1,0.2,0.2,0.2c0.3,0,0.7,0.5,0.7,1.2c0,0.5-0.2,0.9-0.5,1.1c0-0.1,0-0.3,0-0.5c0-0.8-0.4-1.5-0.9-1.6
			c-0.1-0.8-0.5-1.4-1.1-1.4c-0.1,0-0.2,0.1-0.2,0.2S70.8,13,71,13c0.3,0,0.7,0.5,0.7,1.2c0,0.5-0.2,0.9-0.5,1.1
			c-0.1-0.6-0.5-1-0.9-1.1c-0.1-0.6-0.4-1.1-0.9-1.2c-0.1-0.7-0.4-1.3-0.9-1.4c-0.1-0.7-0.6-1.3-1.1-1.3c-0.1,0-0.2,0.1-0.2,0.2
			s0.1,0.2,0.2,0.2c0.3,0,0.7,0.5,0.7,1.2S67.7,13,67.4,13c-0.1,0-0.2,0.1-0.2,0.2s0.1,0.2,0.2,0.2c0.3,0,0.7,0.5,0.7,1.2
			c0,0.5-0.2,0.9-0.5,1.1c0-0.1,0-0.3,0-0.5c0-0.8-0.4-1.5-0.9-1.6c-0.1-0.8-0.5-1.4-1.1-1.4c-0.1,0-0.2,0.1-0.2,0.2
			s0.1,0.2,0.2,0.2c0.3,0,0.7,0.5,0.7,1.2c0,0.5-0.2,0.9-0.5,1.1c-0.1-0.6-0.5-1-0.9-1.1c-0.1-0.6-0.4-1-0.9-1.1
			c-0.1-0.8-0.5-1.4-1.1-1.4c-0.1,0-0.2,0.1-0.2,0.2s0.1,0.2,0.2,0.2c0.3,0,0.7,0.5,0.7,1.2c0,0.5-0.2,0.9-0.5,1.1
			c-0.1-0.7-0.6-1.2-1.1-1.2c-0.1,0-0.2,0.1-0.2,0.2s0.1,0.2,0.2,0.2c0.3,0,0.7,0.5,0.7,1.2c0,0.5-0.2,0.9-0.5,1.1
			c0-0.1,0-0.3,0-0.5c0-0.8-0.4-1.5-0.9-1.6c-0.1-0.8-0.5-1.4-1.1-1.4c-0.1,0-0.2,0.1-0.2,0.2s0.1,0.2,0.2,0.2
			c0.3,0,0.7,0.5,0.7,1.2c0,0.5-0.2,0.9-0.5,1.1c-0.1-0.7-0.6-1.2-1.1-1.2c-0.1,0-0.2,0.1-0.2,0.2s0.1,0.2,0.2,0.2
			c0.3,0,0.7,0.5,0.7,1.2c0,0.5-0.2,0.9-0.4,1.1c-0.1-0.7-0.4-1.2-0.9-1.4c-0.1-0.7-0.4-1.3-0.9-1.4c-0.1-0.7-0.6-1.3-1.1-1.3
			c-0.1,0-0.2,0.1-0.2,0.2s0.1,0.2,0.2,0.2c0.3,0,0.7,0.5,0.7,1.2c0,0.5-0.2,0.9-0.4,1.1c0-0.1,0-0.2,0-0.3c0-0.9-0.5-1.7-1.2-1.7
			c-0.1,0-0.2,0.1-0.2,0.2s0.1,0.2,0.2,0.2c0.3,0,0.7,0.5,0.7,1.2c0,0.5-0.2,0.9-0.4,1.1c0,0,0,0,0,0c-0.1-0.7-0.4-1.3-0.9-1.4
			c-0.1-0.8-0.6-1.3-1.1-1.3c-0.1,0-0.2,0.1-0.2,0.2s0.1,0.2,0.2,0.2c0.3,0,0.7,0.5,0.7,1.2c0,0.5-0.2,0.9-0.5,1.1
			c-0.1-0.5-0.4-0.9-0.8-1.1c0-0.2,0.1-0.4,0.1-0.6c0-0.9-0.5-1.7-1.2-1.7c-0.1,0-0.2,0.1-0.2,0.2s0.1,0.2,0.2,0.2
			c0.3,0,0.7,0.5,0.7,1.2c0,0.6-0.2,1-0.6,1.1c-0.1-0.8-0.6-1.4-1.1-1.4c-0.1,0-0.2,0.1-0.2,0.2s0.1,0.2,0.2,0.2
			c0.3,0,0.7,0.5,0.7,1.2c0,0.5-0.2,0.9-0.5,1.1c-0.1-0.7-0.6-1.2-1.1-1.2c-0.1,0-0.2,0.1-0.2,0.2s0.1,0.2,0.2,0.2
			c0.3,0,0.7,0.5,0.7,1.2c0,0.5-0.2,0.9-0.4,1.1c-0.1-0.7-0.4-1.2-0.9-1.4c-0.1-0.7-0.4-1.3-0.9-1.4C48.4,14.6,48,14,47.4,14
			c-0.1,0-0.2,0.1-0.2,0.2s0.1,0.2,0.2,0.2c0.3,0,0.7,0.5,0.7,1.2c0,0.5-0.2,0.9-0.4,1.1c0-0.1,0-0.2,0-0.3c0-0.9-0.5-1.7-1.2-1.7
			c-0.1,0-0.2,0.1-0.2,0.2s0.1,0.2,0.2,0.2c0.3,0,0.7,0.5,0.7,1.2c0,0.5-0.2,0.9-0.4,1.1c0,0,0,0,0,0c-0.1-0.7-0.4-1.3-0.9-1.4
			c-0.1-0.7-0.5-1.2-1-1.3c-0.2-0.5-0.6-0.8-1-0.8c-0.1,0-0.2,0.1-0.2,0.2s0.1,0.2,0.2,0.2c0.3,0,0.7,0.5,0.7,1.2
			c0,0.5-0.2,0.9-0.5,1.1c0-0.1,0-0.3,0-0.5c0-0.9-0.5-1.7-1.2-1.7c-0.1,0-0.2,0.1-0.2,0.2s0.1,0.2,0.2,0.2c0.3,0,0.7,0.5,0.7,1.2
			c0,0.5-0.2,0.9-0.4,1.1c-0.1-0.7-0.5-1.2-0.9-1.3c-0.1-0.7-0.6-1.3-1.1-1.3c-0.1,0-0.2,0.1-0.2,0.2s0.1,0.2,0.2,0.2
			c0.3,0,0.7,0.5,0.7,1.2c0,0.5-0.2,0.9-0.4,1.1c-0.1-0.7-0.4-1.2-0.9-1.4c-0.1-0.8-0.5-1.4-1.1-1.4c-0.1,0-0.2,0.1-0.2,0.2
			s0.1,0.2,0.2,0.2c0.3,0,0.7,0.5,0.7,1.2c0,0.5-0.2,0.9-0.5,1.1c-0.1-0.7-0.6-1.2-1.1-1.2c-0.1,0-0.2,0.1-0.2,0.2s0.1,0.2,0.2,0.2
			c0.3,0,0.7,0.5,0.7,1.2c0,0.5-0.2,0.9-0.5,1.1c0-0.1,0-0.3,0-0.5c0-0.8-0.4-1.5-0.9-1.6c-0.1-0.8-0.5-1.4-1.1-1.4
			c-0.1,0-0.2,0.1-0.2,0.2s0.1,0.2,0.2,0.2c0.3,0,0.7,0.5,0.7,1.2c0,0.5-0.2,0.9-0.5,1.1c-0.1-0.7-0.6-1.2-1.1-1.2
			c-0.1,0-0.2,0.1-0.2,0.2s0.1,0.2,0.2,0.2c0.3,0,0.7,0.5,0.7,1.2c0,0.5-0.2,0.9-0.4,1.1c-0.1-0.7-0.5-1.2-1-1.3
			c0-0.2,0.1-0.4,0.1-0.6c0-0.9-0.5-1.7-1.2-1.7c-0.1,0-0.2,0.1-0.2,0.2s0.1,0.2,0.2,0.2c0.3,0,0.7,0.5,0.7,1.2
			c0,0.5-0.2,0.9-0.4,1.1c-0.1-0.7-0.5-1.2-0.9-1.3c-0.1-0.7-0.6-1.3-1.1-1.3c-0.1,0-0.2,0.1-0.2,0.2s0.1,0.2,0.2,0.2
			c0.3,0,0.7,0.5,0.7,1.2c0,0.5-0.2,0.9-0.4,1.1c-0.1-0.8-0.5-1.4-1.1-1.4c-0.1,0-0.2,0.1-0.2,0.2s0.1,0.2,0.2,0.2
			c0.3,0,0.7,0.5,0.7,1.2c0,0.5-0.2,0.9-0.4,1.1c-0.1-0.7-0.5-1.2-0.9-1.3c-0.1-0.7-0.6-1.3-1.1-1.3c-0.1,0-0.2,0.1-0.2,0.2
			s0.1,0.2,0.2,0.2c0.3,0,0.7,0.5,0.7,1.2c0,0.5-0.2,0.9-0.5,1.1c0-0.1,0-0.3,0-0.5c0-0.9-0.5-1.7-1.2-1.7c-0.1,0-0.2,0.1-0.2,0.2
			s0.1,0.2,0.2,0.2c0.3,0,0.7,0.5,0.7,1.2c0,0.5-0.2,0.9-0.4,1.1c-0.1-0.7-0.5-1.2-0.9-1.3c-0.1-0.7-0.6-1.3-1.1-1.3
			c-0.1,0-0.2,0.1-0.2,0.2s0.1,0.2,0.2,0.2c0.3,0,0.7,0.5,0.7,1.2c0,0.5-0.2,0.9-0.4,1.1c0-0.9-0.5-1.6-1.1-1.6
			c-0.1,0-0.2,0.1-0.2,0.2s0.1,0.2,0.2,0.2c0.3,0,0.7,0.5,0.7,1.2c0,0.5-0.2,0.9-0.4,1.1c-0.1-0.7-0.5-1.2-0.9-1.3
			c-0.1-0.7-0.6-1.3-1.1-1.3c-0.1,0-0.2,0.1-0.2,0.2s0.1,0.2,0.2,0.2c0.3,0,0.7,0.5,0.7,1.2c0,0.5-0.2,0.9-0.5,1.1
			c0-0.1,0-0.3,0-0.5c0-0.9-0.5-1.7-1.2-1.7c-0.1,0-0.2,0.1-0.2,0.2s0.1,0.2,0.2,0.2c0.3,0,0.7,0.5,0.7,1.2c0,0.5-0.2,0.9-0.4,1.1
			c-0.1-0.7-0.4-1.2-0.9-1.3c-0.1-0.8-0.6-1.4-1.1-1.4c-0.1,0-0.2,0.1-0.2,0.2s0.1,0.2,0.2,0.2c0.3,0,0.7,0.5,0.7,1.2
			c0,0.6-0.3,1.1-0.6,1.1c-0.1-0.8-0.5-1.4-1.1-1.4c-0.1,0-0.2,0.1-0.2,0.2s0.1,0.2,0.2,0.2c0.3,0,0.7,0.5,0.7,1.2
			c0,0.5-0.2,0.9-0.5,1.1c-0.1-0.6-0.4-1-0.9-1.1c0,0,0,0,0,0c0-0.8-0.4-1.5-0.9-1.6c0-0.9-0.5-1.5-1.1-1.5c-0.1,0-0.2,0.1-0.2,0.2
			s0.1,0.2,0.2,0.2c0.3,0,0.7,0.5,0.7,1.2c0,0.5-0.2,0.9-0.5,1.1c-0.1-0.5-0.5-1-0.9-1.1c0-0.1,0-0.3,0-0.4c0-0.9-0.5-1.7-1.2-1.7
			c-0.1,0-0.2,0.1-0.2,0.2s0.1,0.2,0.2,0.2c0.3,0,0.7,0.5,0.7,1.2c0,0.5-0.2,0.9-0.4,1.1c0,0,0,0,0,0c-0.1-0.7-0.4-1.3-0.9-1.4
			c-0.1-0.7-0.6-1.3-1.1-1.3c-0.1,0-0.2,0.1-0.2,0.2s0.1,0.2,0.2,0.2c0.3,0,0.7,0.5,0.7,1.2c0,0.5-0.2,1-0.5,1.1c0,0-0.1,0-0.1,0
			c-0.1,0-0.2,0.1-0.2,0.2c0,0,0,0,0,0c0,0,0,0,0,0c0,0.1,0.1,0.2,0.2,0.2c0,0,0.1,0,0.1,0c0.3,0.1,0.5,0.6,0.5,1.1
			c0,0.6-0.3,1.2-0.7,1.2c-0.1,0-0.2,0.1-0.2,0.2s0.1,0.2,0.2,0.2c0.6,0,1.1-0.6,1.1-1.4c0.2,0.2,0.4,0.6,0.4,1.1
			c0,0.6-0.3,1.2-0.7,1.2c-0.1,0-0.2,0.1-0.2,0.2s0.1,0.2,0.2,0.2c0.6,0,1.1-0.6,1.1-1.4c0.3-0.1,0.5-0.3,0.7-0.6c0,0,0,0,0,0
			c0.6,0,1.1-0.6,1.1-1.5c0.2,0.2,0.4,0.6,0.4,1.1c0,0.6-0.3,1.2-0.7,1.2c-0.1,0-0.2,0.1-0.2,0.2s0.1,0.2,0.2,0.2
			c0.6,0,1.1-0.6,1.1-1.4c0.4-0.1,0.7-0.5,0.9-1.1c0.3,0.1,0.5,0.6,0.5,1.1c0,0.6-0.3,1.2-0.7,1.2c-0.1,0-0.2,0.1-0.2,0.2
			s0.1,0.2,0.2,0.2c0.6,0,1.1-0.7,1.2-1.6c0.4-0.1,0.8-0.6,0.9-1.2c0.3,0,0.6,0.6,0.6,1.1c0,0.6-0.3,1.2-0.7,1.2
			c-0.1,0-0.2,0.1-0.2,0.2s0.1,0.2,0.2,0.2c0.6,0,1.1-0.7,1.2-1.6c0.5-0.1,0.8-0.6,0.9-1.3c0.2,0.2,0.4,0.6,0.4,1.1
			c0,0.6-0.3,1.2-0.7,1.2c-0.1,0-0.2,0.1-0.2,0.2s0.1,0.2,0.2,0.2c0.4,0,0.7-0.2,0.9-0.6c0,0,0,0,0,0c0.6,0,1.1-0.7,1.2-1.6
			c0.5-0.1,0.8-0.6,0.9-1.3c0.2,0.2,0.4,0.6,0.4,1.1c0,0.6-0.3,1.2-0.7,1.2c-0.1,0-0.2,0.1-0.2,0.2s0.1,0.2,0.2,0.2
			c0.5,0,1-0.5,1.1-1.2c0.5-0.1,0.9-0.8,1-1.6c0.5-0.1,0.8-0.6,0.9-1.3c0.2,0.2,0.4,0.6,0.4,1.1c0,0.6-0.3,1.2-0.7,1.2
			c-0.1,0-0.2,0.1-0.2,0.2s0.1,0.2,0.2,0.2c0.4,0,0.7-0.2,0.9-0.6c0,0,0,0,0,0c0.6,0,1.1-0.7,1.2-1.6C30.9,22.2,31.2,21.7,31.3,21.1
			z M14.4,23.1c0.3-0.3,0.5-0.7,0.5-1.2c0.2,0.2,0.4,0.6,0.4,1.1c0,0.5-0.2,0.9-0.4,1.1C14.8,23.6,14.6,23.3,14.4,23.1z M15.8,25.5
			c-0.1-0.5-0.3-0.8-0.5-1.1c0.3-0.2,0.4-0.6,0.5-1c0,0,0,0,0,0c0.2,0.2,0.4,0.6,0.4,1.1C16.2,24.9,16,25.3,15.8,25.5z M16.6,24.8
			c0-0.1,0-0.3,0-0.5c0-0.6-0.2-1-0.5-1.3c0.1-0.1,0.2-0.3,0.3-0.4c0.3,0.1,0.6,0.6,0.6,1.1C17.1,24.3,16.9,24.7,16.6,24.8z
			 M18.5,24.7c-0.1-0.5-0.3-0.9-0.6-1.1c0.3-0.2,0.5-0.6,0.6-1c0.3,0.2,0.4,0.6,0.4,1.1C18.9,24.1,18.7,24.5,18.5,24.7z M35.9,22.6
			c-0.1-0.5-0.3-0.8-0.5-1.1c0.3-0.2,0.5-0.6,0.5-1.1c0.2,0.2,0.4,0.6,0.4,1.1S36.1,22.4,35.9,22.6z M38.6,21.8c0-0.1,0-0.3,0-0.5
			c0-0.6-0.2-1.1-0.5-1.4c0.1-0.1,0.2-0.2,0.3-0.4c0,0,0,0,0,0c0.3,0,0.7,0.5,0.7,1.2C39,21.2,38.8,21.6,38.6,21.8z M41.3,20.3
			c0-0.5-0.2-0.9-0.5-1.2c0.2-0.2,0.4-0.6,0.5-1c0.3,0.2,0.4,0.6,0.4,1.1C41.7,19.7,41.5,20.1,41.3,20.3z M44.4,19.8
			c0.3-0.3,0.5-0.8,0.5-1.4c0-0.1,0-0.1,0-0.2c0.2,0.2,0.4,0.6,0.4,1.1c0,0.6-0.3,1-0.6,1.1C44.7,20.2,44.6,20,44.4,19.8z
			 M45.8,21.6c-0.1-0.4-0.3-0.7-0.5-0.9c0.3-0.3,0.5-0.7,0.5-1.2c0.2,0.2,0.4,0.6,0.4,1.1C46.3,21,46.1,21.5,45.8,21.6z M47.5,17.4
			c0.3,0.1,0.6,0.6,0.6,1.1c0,0.5-0.2,0.9-0.5,1.1c0-0.1,0-0.3,0-0.5c0-0.6-0.2-1-0.5-1.3C47.3,17.7,47.4,17.5,47.5,17.4z
			 M46.7,18.1C46.7,18.1,46.7,18.1,46.7,18.1c0.3,0.2,0.4,0.6,0.4,1.1c0,0.5-0.2,0.9-0.4,1.1c-0.1-0.5-0.3-0.8-0.5-1.1
			C46.5,18.9,46.7,18.5,46.7,18.1z M47.6,22.4c0-0.1,0-0.3,0-0.5c0-0.6-0.2-1.1-0.5-1.4c0.1-0.1,0.2-0.2,0.3-0.4c0,0,0,0,0,0
			c0.3,0,0.7,0.5,0.7,1.2C48.1,21.8,47.9,22.2,47.6,22.4z M48.5,20.8c-0.1-0.4-0.3-0.7-0.5-0.9c0.3-0.3,0.5-0.7,0.5-1.2
			c0.2,0.2,0.4,0.6,0.4,1.1C49,20.2,48.8,20.7,48.5,20.8z M50.4,20.9c0-0.5-0.2-0.9-0.5-1.2c0.2-0.2,0.4-0.6,0.5-1
			c0.3,0.2,0.4,0.6,0.4,1.1C50.8,20.3,50.6,20.7,50.4,20.9z M52.6,18.3c0.1-0.1,0.2-0.2,0.3-0.4c0,0,0,0,0,0c0.3,0,0.7,0.5,0.7,1.2
			c0,0.5-0.2,0.9-0.5,1.1c0-0.1,0-0.3,0-0.5C53.1,19.1,52.9,18.6,52.6,18.3z M54,16.4c0.2,0.2,0.4,0.6,0.4,1.1
			c0,0.5-0.2,0.9-0.5,1.1c-0.1-0.4-0.3-0.7-0.5-0.9C53.8,17.4,54,16.9,54,16.4z M54,21.4c-0.1-0.4-0.3-0.7-0.5-0.9
			c0.3-0.3,0.5-0.7,0.5-1.2c0.2,0.2,0.4,0.6,0.4,1.1C54.4,20.8,54.2,21.2,54,21.4z M54.9,19.8c-0.1-0.4-0.3-0.7-0.5-0.9
			c0.3-0.3,0.5-0.7,0.5-1.2c0.2,0.2,0.4,0.6,0.4,1.1C55.3,19.2,55.1,19.7,54.9,19.8z M56.5,15.6c0.3,0.1,0.6,0.6,0.6,1.1
			c0,0.5-0.2,0.9-0.5,1.1c0-0.1,0-0.3,0-0.5c0-0.6-0.2-1-0.5-1.3C56.4,15.9,56.5,15.7,56.5,15.6z M55.8,16.3
			C55.8,16.3,55.8,16.3,55.8,16.3c0.3,0.2,0.4,0.6,0.4,1.1c0,0.5-0.2,0.9-0.4,1.1c-0.1-0.5-0.3-0.8-0.5-1.1
			C55.5,17.1,55.7,16.7,55.8,16.3z M56.7,20.6c0-0.1,0-0.3,0-0.5c0-0.6-0.2-1.1-0.5-1.4c0.1-0.1,0.2-0.2,0.3-0.4c0,0,0,0,0,0
			c0.3,0,0.7,0.5,0.7,1.2C57.1,20,56.9,20.4,56.7,20.6z M57.6,19c-0.1-0.4-0.3-0.7-0.5-0.9c0.3-0.3,0.5-0.7,0.5-1.2
			c0.2,0.2,0.4,0.6,0.4,1.1C58,18.4,57.8,18.9,57.6,19z M59.4,19.1c0-0.5-0.2-0.9-0.5-1.2c0.2-0.2,0.4-0.6,0.5-1
			c0.3,0.2,0.4,0.6,0.4,1.1C59.9,18.5,59.7,18.9,59.4,19.1z M62.1,18.3c0-0.1,0-0.3,0-0.5c0-0.6-0.2-1.1-0.5-1.4
			c0.1-0.1,0.2-0.2,0.3-0.4c0,0,0,0,0,0c0.3,0,0.7,0.5,0.7,1.2C62.6,17.8,62.4,18.2,62.1,18.3z M65.7,17.8c-0.1-0.4-0.3-0.7-0.5-0.9
			c0.3-0.3,0.5-0.7,0.5-1.2c0.2,0.2,0.4,0.6,0.4,1.1C66.2,17.2,66,17.6,65.7,17.8z M67.6,18.5c0-0.1,0-0.3,0-0.5
			c0-0.6-0.2-1.1-0.5-1.4c0.1-0.1,0.2-0.2,0.3-0.4c0,0,0,0,0,0c0.3,0,0.7,0.5,0.7,1.2C68,17.9,67.8,18.4,67.6,18.5z M71.2,18
			c-0.1-0.4-0.3-0.7-0.5-0.9c0.3-0.3,0.5-0.7,0.5-1.2c0.2,0.2,0.4,0.6,0.4,1.1C71.6,17.4,71.4,17.9,71.2,18z M73,18.8
			c0-0.1,0-0.3,0-0.5c0-0.6-0.2-1.1-0.5-1.4c0.1-0.1,0.2-0.2,0.3-0.4c0,0,0,0,0,0c0.3,0,0.7,0.5,0.7,1.2
			C73.4,18.2,73.3,18.6,73,18.8z M76.6,18.4c-0.1-0.4-0.3-0.7-0.5-0.9c0.3-0.3,0.5-0.7,0.5-1.2c0.2,0.2,0.4,0.6,0.4,1.1
			C77.1,17.8,76.9,18.3,76.6,18.4z M78.4,19.2c0-0.1,0-0.3,0-0.5c0-0.6-0.2-1.1-0.5-1.4c0.1-0.1,0.2-0.2,0.3-0.4c0,0,0,0,0,0
			c0.3,0,0.7,0.5,0.7,1.2C78.9,18.6,78.7,19,78.4,19.2z M80.3,14.1c0.2,0.2,0.4,0.6,0.4,1.1s-0.2,0.9-0.4,1.1
			c-0.1-0.5-0.3-0.8-0.5-1.1C80,14.9,80.2,14.5,80.3,14.1z M79.4,15.5c0.2,0.2,0.4,0.6,0.4,1.1c0,0.5-0.2,0.9-0.5,1.1
			c-0.1-0.4-0.3-0.7-0.5-0.9C79.1,16.4,79.3,16,79.4,15.5z M77.6,14.9c0.2,0.2,0.4,0.6,0.4,1.1c0,0.5-0.2,0.9-0.4,1.1
			c-0.1-0.5-0.3-0.8-0.5-1.1C77.3,15.7,77.5,15.3,77.6,14.9z M76.2,16.1c0,0.5-0.2,0.9-0.4,1.1c-0.1-0.4-0.3-0.8-0.5-1
			c0.3-0.2,0.5-0.7,0.5-1.1C76,15.2,76.2,15.6,76.2,16.1z M74.8,13.7c0.2,0.2,0.4,0.6,0.4,1.1s-0.2,0.9-0.4,1.1
			c-0.1-0.5-0.3-0.8-0.5-1.1C74.6,14.5,74.8,14.1,74.8,13.7z M73.9,15.1c0.2,0.2,0.4,0.6,0.4,1.1c0,0.5-0.2,0.9-0.5,1.1
			c-0.1-0.4-0.3-0.7-0.5-0.9C73.7,16.1,73.9,15.6,73.9,15.1z M72.1,14.5c0.2,0.2,0.4,0.6,0.4,1.1c0,0.5-0.2,0.9-0.4,1.1
			c-0.1-0.5-0.3-0.8-0.5-1.1C71.9,15.3,72.1,14.9,72.1,14.5z M70.7,15.7c0,0.5-0.2,0.9-0.5,1.1c-0.1-0.4-0.3-0.7-0.5-0.9
			c0.3-0.3,0.5-0.7,0.5-1.3C70.6,14.8,70.7,15.2,70.7,15.7z M69.8,14.5c0,0.5-0.2,0.9-0.4,1.1c-0.1-0.5-0.3-0.8-0.5-1.1
			c0.3-0.2,0.5-0.6,0.5-1.1C69.6,13.6,69.8,14,69.8,14.5z M68,13.2c0.3-0.3,0.5-0.7,0.5-1.2c0.2,0.2,0.4,0.6,0.4,1.1
			c0,0.5-0.2,0.9-0.5,1.1C68.4,13.8,68.2,13.4,68,13.2z M68.5,14.8c0.2,0.2,0.4,0.6,0.4,1.1c0,0.5-0.2,0.9-0.5,1.1
			c-0.1-0.4-0.3-0.7-0.5-0.9C68.3,15.8,68.5,15.3,68.5,14.8z M66.7,14.2c0.2,0.2,0.4,0.6,0.4,1.1s-0.2,0.9-0.4,1.1
			c-0.1-0.5-0.3-0.8-0.5-1.1C66.4,15,66.6,14.7,66.7,14.2z M65.3,15.4c0,0.5-0.2,0.9-0.5,1.1c-0.1-0.3-0.3-0.6-0.5-0.8
			c0.3-0.3,0.5-0.8,0.5-1.3C65.1,14.5,65.3,15,65.3,15.4z M64,13.2c0.2,0.2,0.4,0.6,0.4,1.1s-0.2,0.9-0.4,1.1
			c-0.1-0.5-0.3-0.8-0.5-1.1C63.7,14.1,63.9,13.7,64,13.2z M63.1,14.6c0.2,0.2,0.4,0.6,0.4,1.1c0,0.5-0.2,0.9-0.5,1.1
			c-0.1-0.4-0.3-0.7-0.5-0.9C62.8,15.6,63,15.2,63.1,14.6z M61.2,14c0.2,0.2,0.4,0.6,0.4,1.1s-0.2,0.9-0.4,1.1
			c-0.1-0.5-0.3-0.8-0.5-1.1C61,14.8,61.2,14.5,61.2,14z M60.3,15.4c0.2,0.2,0.4,0.6,0.4,1.1c0,0.5-0.2,0.9-0.5,1.1
			c-0.1-0.4-0.3-0.7-0.5-0.9C60.1,16.4,60.3,15.9,60.3,15.4z M58.9,16.5c0,0.5-0.2,0.9-0.4,1.1c-0.1-0.5-0.3-0.8-0.5-1.1
			c0.3-0.2,0.5-0.6,0.5-1.1C58.8,15.6,58.9,16.1,58.9,16.5z M57.6,14.1c0.2,0.2,0.4,0.6,0.4,1.1c0,0.5-0.2,0.9-0.5,1.1
			c-0.1-0.4-0.3-0.7-0.5-0.9C57.4,15,57.6,14.6,57.6,14.1z M54.9,14.9c0.2,0.2,0.4,0.6,0.4,1.1c0,0.5-0.2,0.9-0.5,1.1
			c-0.1-0.4-0.3-0.7-0.5-0.9C54.7,15.8,54.9,15.4,54.9,14.9z M53.5,16.2c0,0.5-0.2,0.9-0.5,1.1c0-0.1,0-0.3,0-0.5
			c0-0.6-0.2-1.1-0.5-1.4c0.1-0.1,0.2-0.2,0.3-0.4C53.3,15.2,53.5,15.7,53.5,16.2z M52.2,15.8c0.2,0.2,0.4,0.6,0.4,1.1
			s-0.2,0.9-0.4,1.1c-0.1-0.5-0.3-0.8-0.5-1.1C51.9,16.6,52.1,16.3,52.2,15.8z M51.3,17.2c0.2,0.2,0.4,0.6,0.4,1.1
			c0,0.5-0.2,0.9-0.5,1.1c-0.1-0.4-0.3-0.7-0.5-0.9C51,18.2,51.2,17.7,51.3,17.2z M49.9,18.3c0,0.5-0.2,0.9-0.4,1.1
			c-0.1-0.5-0.3-0.8-0.5-1.1c0.3-0.2,0.5-0.6,0.5-1.1C49.7,17.4,49.9,17.9,49.9,18.3z M48.6,15.9c0.2,0.2,0.4,0.6,0.4,1.1
			c0,0.5-0.2,0.9-0.5,1.1c-0.1-0.4-0.3-0.7-0.5-0.9C48.3,16.8,48.5,16.4,48.6,15.9z M46.3,17.7c0,0.5-0.2,0.9-0.5,1.1
			c-0.1-0.4-0.3-0.7-0.5-0.9c0.3-0.3,0.5-0.7,0.6-1.2C46.1,16.8,46.3,17.3,46.3,17.7z M44.9,15.6c0-0.1,0-0.2,0-0.3
			c0.2,0.2,0.4,0.6,0.4,1.1c0,0.6-0.3,1.1-0.6,1.1c-0.1-0.2-0.2-0.4-0.4-0.5C44.7,16.7,44.9,16.2,44.9,15.6z M43.8,17.3
			C43.8,17.3,43.8,17.3,43.8,17.3c0.4,0,0.7,0.5,0.7,1.2c0,0.5-0.2,0.9-0.5,1.1c0-0.1,0-0.3,0-0.5c0-0.6-0.2-1.1-0.5-1.4
			C43.6,17.6,43.7,17.4,43.8,17.3z M42.2,16.6c0.2,0.2,0.4,0.6,0.4,1.1c0,0.5-0.2,0.9-0.5,1.1c-0.1-0.4-0.3-0.7-0.5-0.9
			C42,17.6,42.2,17.1,42.2,16.6z M40.4,16.7c0.2,0.2,0.4,0.6,0.4,1.1s-0.2,0.9-0.4,1.1c-0.1-0.5-0.3-0.8-0.5-1.1
			C40.1,17.5,40.3,17.1,40.4,16.7z M39.5,18.1c0.2,0.2,0.4,0.6,0.4,1.1c0,0.5-0.2,0.9-0.5,1.1c-0.1-0.4-0.3-0.7-0.5-0.9
			C39.3,19,39.5,18.6,39.5,18.1z M37.7,17.4c0.2,0.2,0.4,0.6,0.4,1.1s-0.2,0.9-0.4,1.1c-0.1-0.5-0.3-0.8-0.5-1.1
			C37.4,18.3,37.6,17.9,37.7,17.4z M36.8,18.8c0.2,0.2,0.4,0.6,0.4,1.1c0,0.5-0.2,0.9-0.5,1.1c-0.1-0.4-0.3-0.7-0.5-0.9
			C36.5,19.8,36.7,19.4,36.8,18.8z M34.7,18.9C34.7,18.9,34.7,18.9,34.7,18.9c0.4,0,0.7,0.5,0.7,1.2c0,0.5-0.2,0.9-0.5,1.1
			c0-0.1,0-0.3,0-0.5c0-0.6-0.2-1.1-0.5-1.4C34.5,19.2,34.6,19.1,34.7,18.9z M33.2,18.2c0.2,0.2,0.4,0.6,0.4,1.1
			c0,0.5-0.2,0.9-0.5,1.1c-0.1-0.4-0.3-0.7-0.5-0.9C32.9,19.2,33.1,18.7,33.2,18.2z M32.2,19.8c0.3,0.2,0.4,0.6,0.4,1.1
			c0,0.5-0.2,0.9-0.4,1.1c0-0.5-0.2-0.9-0.5-1.2C32,20.5,32.1,20.2,32.2,19.8z M30.4,19.7c0.2,0.2,0.4,0.6,0.4,1.1
			c0,0.5-0.2,0.9-0.5,1.1c-0.1-0.4-0.3-0.7-0.5-0.9C30.2,20.7,30.4,20.2,30.4,19.7z M22.2,24.7c-0.1-0.4-0.3-0.8-0.5-1
			c0.3-0.2,0.5-0.7,0.6-1.2c0.2,0.2,0.4,0.6,0.4,1.1C22.7,24.2,22.5,24.6,22.2,24.7z M24.1,25.5c0-0.1,0-0.3,0-0.5
			c0-0.6-0.2-1.1-0.5-1.4c0.1-0.1,0.2-0.2,0.3-0.4c0,0,0,0,0,0c0.3,0,0.7,0.5,0.7,1.2C24.5,24.9,24.3,25.4,24.1,25.5z M25,24
			c-0.1-0.4-0.3-0.7-0.5-0.9c0.3-0.3,0.5-0.7,0.5-1.2c0.2,0.2,0.4,0.6,0.4,1.1C25.4,23.4,25.2,23.8,25,24z M26.8,24.2
			c0-0.6-0.2-1-0.5-1.3c0.2-0.2,0.4-0.5,0.5-0.8c0.3,0.1,0.5,0.6,0.5,1.1C27.2,23.6,27.1,24,26.8,24.2z M27.7,22.6
			c-0.1-0.4-0.3-0.7-0.5-0.9c0.3-0.3,0.5-0.7,0.5-1.2c0.2,0.2,0.4,0.6,0.4,1.1C28.1,22,27.9,22.5,27.7,22.6z M29.5,23.4
			c0-0.1,0-0.3,0-0.5c0-0.6-0.2-1.1-0.5-1.4c0.1-0.1,0.2-0.2,0.3-0.4c0,0,0,0,0,0c0.3,0,0.7,0.5,0.7,1.2
			C29.9,22.8,29.8,23.3,29.5,23.4z"/>
	</g>
	<path class="st1" d="M53.9,10.5c0,0-1.1,0.1-1.7-0.9c-0.7-1-2.4-3.8-2.5-4c-0.1-0.3-1.5-2.7-1.5-2.8s-0.6-1.5-1.3,0
		c-0.7,1.5-3.6,4.8-3.9,5.3s-0.8,1.2-0.3,2c0.4,0.8,1.1,2.2,1.2,2.5c0,0,0.8-0.2,0.9-0.2c0,0-1.4-2.7-1.4-2.8c0,0,1.8,2.9,2,2.8
		c0.2,0,0.8-0.1,0.7-0.2c-0.1-0.1-0.7-1.3-0.9-1.7S43.9,8,43.9,8s2.6,4,2.7,4s1-0.2,0.8-0.2c-0.2-0.1-2.5-5-2.5-5l3.1,4.8
		c0,0,0.7-0.2,0.9-0.2s-2.7-6.1-2.8-6.2c0,0,3.6,5.9,3.7,6s1.3-0.3,1.3-0.3l-3.6-7.2c0,0,4,7,4.2,7.1S53.9,10.5,53.9,10.5z"/>
	<path class="st1" d="M16.9,27.2c0,0-13.2,8.9-14.1,10.1c0,0,4.3-10.2,5-11.2c0.8-1,3.2-3.2,4.1-3.2c0,0-3.1,2-5.2,7.1l-1.8,3.6
		c0,0,6-9.6,7.3-10.3L12,24.1c0,0-5.6,7.7-6,8.5l6.4-7.5c0,0,0.1,0.6,0.4,0.6l-5.8,6.8l6.6-6.5l1.2,0.7L8,32.1l7.3-4.9H16.9z"/>
	<path class="st1" d="M12.7,21.1l-6.3-6.1l5.8,6.8c-0.3,0-0.6,0.3-0.6,0.3l-6.1-7.2c0.3,0.6,3.6,5.3,5.2,7.4l0.1,0.2
		c0,0-0.3,0.2-0.4,0.3c-0.1,0.1-0.4-0.4-0.4-0.4c-2.3-3-5.6-8.4-5.6-8.4l1.8,3.6c1,2.4,2.5,4.5,3.6,5.7l-0.6,0.4
		c-0.8-0.6-1.5-1.2-1.8-1.7c-0.8-1-5-11.8-5-11.8c1,1.2,15.5,11.1,15.5,11.1l-2-0.3l-8.3-5.6l6.3,4.9l0.2,0.2
		C14,20.6,13.1,20.6,12.7,21.1z"/>
	<ellipse class="st3" cx="88.2" cy="18" rx="2.3" ry="3.4"/>
	<path class="st4" d="M89.4,17.8c-0.3,0-0.7-0.4-0.8-1c-0.1-0.6,0.1-1.1,0.4-1.2c0,0,0.1,0,0.1,0c-0.2-0.2-0.5-0.4-0.8-0.4
		c-0.8,0-1.4,1.1-1.4,2.4c0,1.3,0.6,2.4,1.4,2.4s1.4-1.1,1.4-2.4c0-0.1,0-0.1,0-0.2C89.7,17.6,89.5,17.8,89.4,17.8z"/>
	<path class="st1" d="M32.5,31.5c0,0-1.2,4.2-1.8,4.3s-1.5-0.1-2.3-1.2c-0.8-1.1-3-2.6-4.5-2.3c-1.5,0.2-2.9,0.8-2.7,0.3
		c0,0,0-0.2,0.2-0.7c0.2-0.5,1.1-1.7,1.1-2c0-0.2,0.3-1.3,0.2-1.8l0.7,0.2c0,0-0.3,2.4-0.9,2.9c0,0,0.8-0.4,1.6-2.7l0.2,0.1
		c0,0-0.3,2-0.5,2.6c0,0,1.1-1.9,1.2-2.1c0.1-0.2,0.1-0.1,0.1-0.1l0.3,0.1c0,0-0.5,2.1-0.6,2.4l1.3-2.1l0.4,0.1l-1,2.5l1.5-2.3
		l0.3,0.1l-1.1,2.6l1.6-2.3l0.4,0.1L27,32.8l1.7-2.4l0.4,0.1c0,0-0.8,1.9-1,2.7c0,0,1.4-2.4,1.5-2.5l0.3,0.1c0,0-1.1,2.8-1.2,3.3
		c0,0,1.7-3.1,1.7-3.1l0.3,0.1c0,0-1.3,3-1.3,3.7l1.8-3.6l0.3,0.1c0,0-1.3,3.1-1.3,3.8l1.9-3.7L32.5,31.5z"/>
	<path class="st1" d="M51.4,36.7c0,0-3.7,7-4.6,7.8c0,0,0-2.9,0-3.4s-0.2-0.8,0-1s3.2-3.6,3.2-3.6H50l-3,4l3.3-4l0.3,0.1L47,41.3
		l3.9-4.6l0.2,0l-3.7,5.9l3.8-5.9H51.4z"/>
</g>
</svg>
