<?xml version="1.0" encoding="utf-8"?>
<!-- Generator: Adobe Illustrator 21.0.0, SVG Export Plug-In . SVG Version: 6.00 Build 0)  -->
<svg version="1.1" id="Layer_1" xmlns="http://www.w3.org/2000/svg" xmlns:xlink="http://www.w3.org/1999/xlink" x="0px" y="0px"
	 viewBox="0 0 92.2 32.2" style="enable-background:new 0 0 92.2 32.2;" xml:space="preserve">
<style type="text/css">
	.st0{fill:#F7C9B5;}
	.st1{fill:#F15B5D;}
	.st2{fill:#E64948;}
	.st3{fill:#BA8817;}
	.st4{fill:#F9AAAA;}
	.st5{fill:#DD4040;}
	.st6{fill:#F28E8F;}
</style>
<g>
	<g>
		<polygon class="st1" points="87.4,6.4 92.2,4.5 90.5,4.1 91.1,2.8 89.7,2.5 89.7,1.3 88.5,1.5 88.6,0 85.5,4.4 		"/>
		<polygon class="st2" points="86.6,5.6 87.4,6.4 92.2,4.5 90.5,4.1 91.1,2.8 		"/>
		<polygon class="st2" points="85.8,4.8 86.1,5.1 88.4,1.8 		"/>
		<polygon class="st2" points="86.6,5.6 86.1,5.1 89.3,2.8 		"/>
	</g>
	<path class="st3" d="M87.9,7.8c0,0,0.9-0.4,0.6-1c-0.2-0.6-2.9-3.4-2.9-3.4s-0.4-0.7-1.1,0.2c0,0-0.8,0.3,0.6,1.7
		c1.4,1.4,2.1,2.6,2.1,2.6S87.5,8.1,87.9,7.8z"/>
	<path class="st1" d="M51.8,8.5c0,0,4.8,0.6,7.9-0.1c3.1-0.7,6.6-2,9.4-3.2s5-3.2,7-3.4c1.9-0.2,5.7-1.1,9.4,2.7s3.6,6.8,3.2,9.7
		s-2.2,6-6.2,8.2s-7.4,4.2-13.2,5.7c-5.8,1.6-16.9,2.2-16.9,2.2s5.6-9.8-2.3-22.1L51.8,8.5z"/>
	<path class="st4" d="M76,4.6c0,0-7.8,5.7-18.9,5.8c0,0-2.2-0.3-2.6,0c-0.4,0.3,2.3,0.6,2.3,0.6s5,1.1,12.7-2s8.2-5.5,8.2-5.5
		s0.7-1.1-0.8,0.1C75.5,5,76,4.6,76,4.6z"/>
	<path class="st2" d="M54.2,20.7c0.3,5.8-1.9,9.6-1.9,9.6s11.1-0.7,16.9-2.2c5.8-1.6,9.1-3.5,13.2-5.7s5.8-5.3,6.2-8.2
		c0.3-2.5,0.5-5.1-2-8.3c0,0-0.1,9.2-13,12.7S54.2,20.7,54.2,20.7z"/>
	<path class="st5" d="M53.8,26.2c-0.6,2.6-1.4,4.1-1.4,4.1s11.1-0.7,16.9-2.2c5.8-1.6,9.1-3.5,13.2-5.7s5.8-5.3,6.2-8.2
		c0,0-7.9,10.5-22.4,12.6S53.8,26.2,53.8,26.2z"/>
	<ellipse transform="matrix(0.9945 -0.1044 0.1044 0.9945 -1.7346 5.4461)" class="st6" cx="51.2" cy="19.3" rx="3" ry="11.1"/>
	<ellipse transform="matrix(0.9881 -0.1539 0.1539 0.9881 -1.0562 7.9701)" class="st4" cx="51" cy="10.8" rx="0.2" ry="0.6"/>
	<ellipse transform="matrix(0.9881 -0.1539 0.1539 0.9881 -1.3077 7.6836)" class="st4" cx="49" cy="12.3" rx="0.2" ry="0.6"/>
	<ellipse transform="matrix(0.9881 -0.1539 0.1539 0.9881 -1.5882 8.0589)" class="st4" cx="51.3" cy="14.3" rx="0.4" ry="0.7"/>
	<ellipse transform="matrix(0.9881 -0.1539 0.1539 0.9881 -1.8291 7.7502)" class="st4" cx="49.2" cy="15.7" rx="0.2" ry="0.7"/>
	<ellipse transform="matrix(0.9881 -0.1539 0.1539 0.9881 -2.2048 7.8805)" class="st4" cx="49.8" cy="18.2" rx="0.3" ry="0.4"/>
	<ellipse transform="matrix(0.9881 -0.1539 0.1539 0.9881 -1.9257 8.0477)" class="st4" cx="51" cy="16.5" rx="0.2" ry="0.2"/>
	<ellipse transform="matrix(0.9881 -0.1539 0.1539 0.9881 -0.9305 7.7477)" class="st4" cx="49.6" cy="9.9" rx="0.1" ry="0.1"/>
	<ellipse transform="matrix(0.9881 -0.1539 0.1539 0.9881 -1.9265 8.3668)" class="st4" cx="53.1" cy="16.6" rx="0.2" ry="0.5"/>
	<ellipse transform="matrix(0.9881 -0.1539 0.1539 0.9881 -2.4874 8.0894)" class="st4" cx="51" cy="20.1" rx="0.3" ry="0.5"/>
	<ellipse transform="matrix(0.9881 -0.1539 0.1539 0.9881 -2.6342 8.4136)" class="st4" cx="53" cy="21.2" rx="0.2" ry="0.7"/>
	<ellipse transform="matrix(0.9881 -0.1539 0.1539 0.9881 -3.0305 8.366)" class="st4" cx="52.5" cy="23.8" rx="0.2" ry="0.7"/>
	<ellipse transform="matrix(0.9881 -0.1539 0.1539 0.9881 -2.9593 8.0438)" class="st4" cx="50.5" cy="23.1" rx="0.4" ry="0.8"/>
	<ellipse transform="matrix(0.9881 -0.1539 0.1539 0.9881 -2.5871 7.7917)" class="st4" cx="49" cy="20.6" rx="0.2" ry="0.5"/>
	<ellipse transform="matrix(0.9881 -0.1539 0.1539 0.9881 -2.2644 8.2932)" class="st4" cx="52.5" cy="18.8" rx="0.2" ry="0.6"/>
	<ellipse transform="matrix(0.9881 -0.1539 0.1539 0.9881 -3.4124 8.3408)" class="st4" cx="52.2" cy="26.2" rx="0.2" ry="0.8"/>
	<ellipse transform="matrix(0.9881 -0.1539 0.1539 0.9881 -3.4478 8.0659)" class="st4" cx="50.4" cy="26.3" rx="0.2" ry="0.6"/>
	<ellipse transform="matrix(0.9881 -0.1539 0.1539 0.9881 -3.8115 8.3515)" class="st4" cx="52.1" cy="28.8" rx="0.3" ry="0.7"/>
</g>
<g>
	<g>
		<g>
			<polygon class="st1" points="4.9,11.9 0,10.5 1.7,10 1,8.7 2.3,8.4 2.2,7.1 3.4,7.2 3.2,5.7 6.7,9.8 			"/>
			<polygon class="st2" points="5.7,11.1 4.9,11.9 0,10.5 1.7,10 1,8.7 			"/>
			<polygon class="st2" points="6.4,10.2 6.2,10.5 3.5,7.5 			"/>
			<polygon class="st2" points="5.7,11.1 6.2,10.5 2.8,8.6 			"/>
		</g>
		<path class="st3" d="M4.6,13.5c0,0-0.9-0.3-0.7-0.9C4.1,12,6.4,8.9,6.4,8.9S6.8,8.2,7.5,9c0,0,0.9,0.2-0.4,1.7s-1.9,2.8-1.9,2.8
			S5.1,13.7,4.6,13.5z"/>
		<path class="st1" d="M42.4,32.1c0,0-11.1,0.5-17-0.5c-5.9-0.9-9.4-2.5-13.7-4.3s-6.4-4.7-7.1-7.5S3.5,14,6.7,9.8s7.2-3.7,9.1-3.7
			s4.5,1.7,7.3,2.7s6.5,1.9,9.6,2.2c3.1,0.3,7.8-0.7,7.8-0.7l1.7-0.5c0,0,6.6,7.3,2.1,22L42.4,32.1"/>
		<path class="st2" d="M42.4,32.1c0,0-11.1,0.5-17-0.5c-5.9-0.9-9.4-2.5-13.7-4.3s-6.4-4.7-7.1-7.5c-0.6-2.5-1-5.1,1.1-8.5
			c0,0,1.1,9.2,14.3,11.3S39.8,24,39.8,24s3.9,0,6.2-0.9c0,0,0,4.1-1.6,8.8L42.4,32.1"/>
		<path class="st5" d="M41.1,29.4c-1.5,0.5-6.4,0.8-13,0.6C13.6,29.5,4.6,19.8,4.6,19.8c0.7,2.8,2.8,5.7,7.1,7.5s7.8,3.4,13.7,4.3
			c5.9,0.9,17,0.5,17,0.5l2.1-0.2l0.8-2.9L41.1,29.4z"/>
	</g>
	<path class="st4" d="M38.6,12.3c0,0-2.4,0.9-6.1,0.6c0,0-3.4-0.3,0,0.6s6.5-0.5,6.5-0.5s1.4-0.6,1-0.8S38.6,12.3,38.6,12.3z"/>
</g>
</svg>
