<?xml version="1.0" encoding="utf-8"?>
<!-- Generator: Adobe Illustrator 21.0.0, SVG Export Plug-In . SVG Version: 6.00 Build 0)  -->
<svg version="1.1" id="Layer_1" xmlns="http://www.w3.org/2000/svg" xmlns:xlink="http://www.w3.org/1999/xlink" x="0px" y="0px"
	 viewBox="0 0 80.1 75" style="enable-background:new 0 0 80.1 75;" xml:space="preserve">
<style type="text/css">
	.st0{fill:#BFF7BA;}
	.st1{fill:#6D9B38;}
	.st2{fill:#648717;}
	.st3{fill:#87B734;}
	.st4{fill:#75A024;}
	.st5{fill:#70A025;}
	.st6{fill:#70A025;stroke:#648C1F;stroke-width:0.2;stroke-miterlimit:10;}
	.st7{fill:#70A025;stroke:#648C1F;stroke-width:0.2;stroke-linecap:round;stroke-miterlimit:10;}
	.st8{fill:#648C1F;}
</style>
<g>
	<g>
		<path class="st1" d="M21,59.3c-0.3,0.6,0,1.3,0.3,1.8v-2.4C21.2,58.9,21.1,59.1,21,59.3z"/>
		<path class="st1" d="M59.6,50.2c-0.2,0-0.3-0.1-0.5-0.1v0.4C59.5,50.2,59.6,50.2,59.6,50.2z"/>
		<path class="st2" d="M39.7,49.3c0,0,1.1,6.1,1.1,6.5c0.1,0.4,0.1,1.1,0.6,1.5c0.5,0.4,0.3-0.9,0.3-0.9c-0.2-1-0.3-5-0.7-6.7
			c-0.4-1.7-0.4-3.9-0.7-5.8c-0.3-1.9,0.3-3.5,0-5.1h-3c0.2,0.6,0.4,1.4,0.6,2C38.3,41.8,39.5,49.1,39.7,49.3z"/>
		<path class="st2" d="M44.8,52.1c0.1,1.3,1.3,4.5,1.3,4.8c0,0.4,0.4,0.7,0-1.9c-0.4-2.6-0.6-4.5-0.6-5.4s-0.3-4.9-0.4-6
			c-0.2-1-0.5-3.7-0.6-4.9h-1c0.1,1.4,0.3,5.2,0.5,6.1C44.1,46,44.6,50.8,44.8,52.1z"/>
		<path class="st2" d="M48.2,42.3c0,1.3,0.1,4.5,0.3,6.2c0.1,1.7,0.4,3.6,0.6,4.4c0.2,0.8,0.7,0.8,0.6-0.2c-0.1-1-0.2-2.1-0.1-3.3
			c0.1-1.2,0.5-4.2,0.7-5.8c0.1-1,1-3.1,1.7-4.9h-3.7C48.3,40,48.2,41.5,48.2,42.3z"/>
		<path class="st2" d="M37.3,53.6c0,0,0.3,1.1,0.4,1.5s0.8,2,0.8,2c0.1-0.6-0.4-3.3-0.4-3.3c-0.5-2.7-0.9-5.2-1-5.3
			c-0.1-0.2-1.6-5-2-5.7c-0.4-0.7-1.2-1.8-1.2-1.8s-0.7-1.3-1.2-2.1h-3.3c1.8,1.9,4.4,4.9,4.7,5.6C34.6,45.4,36.7,48.3,37.3,53.6z"
			/>
		<path class="st2" d="M32.7,50.7c0.3,1.1,1.1,2.2,1.1,2.2s-0.1-3-0.6-4.1c-0.4-1.1-1.8-3.8-2.4-4.5c-0.5-0.6-3.6-4.1-4.8-5.5H24
			c1.9,1.7,4.3,4,4.5,4.1C28.7,43.2,32.5,49.5,32.7,50.7z"/>
		<path class="st3" d="M28.3,47.2c0.2,0.1,1.5,2.9,2.1,4.2c0.6,1.3,1.1,3.6,1.1,3.6s-0.8-0.1-2.4-0.9c-1.6-0.8-3.1,0.6-3.4,1
			s-1.6,1.7-2.5,1.9c-0.6,0.2-1.4,1-1.9,1.8v2.4c0.1,0.2,0.2,0.3,0.3,0.4c0.5,0.5,0.4,1,0.7,2.9c0.3,2,2.7,2.5,2.7,2.5
			c0-0.3,0-0.9,1-2.1c1-1.2,1.9-1.7,1.5-2.5c-0.3-0.7-0.4-1.6,0.8-2.6c1.2-1-0.5-2-0.9-2.3c-0.4-0.3-1.1-0.7-1.1-0.7s0-0.5,0.5-1
			c0.5-0.6,1.2-0.2,2-0.1c0.9,0.1,2,0.9,2.7,1.4s0.8,0.2,0.6,2s2,14.1,2.2,14.7c0.3,0.6,1.9,0.3,1.9,0.3l0.4-1.5
			c0,0-0.2,1.2,0.4,1.9C37.9,75.1,39,75,39,75s1.7-0.9,3.6-0.3c1.9,0.6,3.4,0,3.4,0v-1.3l0.6,1.3c3.3-0.4,3.7-2.1,3.7-2.1
			s0.3-5.4,0.6-8.8c0.3-3.4,2.2-10,2.2-10c0.9-1.5,2.4-0.8,2.4-0.8c0.2,0.7,1.8,0.7,1.8,0.7c1.1,0.2,0.4-1.3,1.2-2.4
			c0.3-0.4,0.5-0.6,0.6-0.8v-0.4c-3.3-0.6-3.8,0.8-3.8,0.8c-0.6,0.6,0,1.5,0,1.5c-0.8-0.8-2,0-2,0c0.5-3,3.7-10.6,5-13.5h-6.4
			c-0.7,1.8-1.5,3.9-1.7,4.9c-0.2,1.6-0.6,4.6-0.7,5.8c-0.1,1.2,0.1,2.3,0.1,3.3c0.1,1-0.4,1-0.6,0.2c-0.2-0.8-0.4-2.7-0.6-4.4
			c-0.1-1.7-0.3-4.9-0.3-6.2c0-0.8,0.1-2.3,0.1-3.5h-3.9c0.1,1.2,0.4,4,0.6,4.9c0.2,1,0.4,5,0.4,6s0.2,2.8,0.6,5.4
			c0.4,2.6,0,2.3,0,1.9c0-0.4-1.1-3.6-1.3-4.8c-0.1-1.3-0.7-6.1-0.9-7.2c-0.2-0.9-0.4-4.7-0.5-6.1h-3.1c0.3,1.6-0.3,3.2,0,5.1
			c0.3,1.9,0.3,4.1,0.7,5.8c0.4,1.7,0.5,5.6,0.7,6.7c0,0,0.2,1.3-0.3,0.9c-0.5-0.4-0.5-1.1-0.6-1.5c-0.1-0.4-1.1-6.5-1.1-6.5
			c-0.2-0.2-1.4-7.5-1.8-8.5c-0.2-0.6-0.4-1.4-0.6-2h-4.6c0.5,0.8,1.2,2.1,1.2,2.1s0.8,1.2,1.2,1.8c0.4,0.7,1.9,5.5,2,5.7
			c0,0.1,0.5,2.6,1,5.3c0,0,0.5,2.7,0.4,3.3c0,0-0.6-1.6-0.8-2s-0.4-1.5-0.4-1.5c-0.6-5.3-2.7-8.2-3.1-9.2c-0.3-0.7-2.9-3.7-4.7-5.6
			h-3.4c1.1,1.4,4.3,4.9,4.8,5.5c0.6,0.7,1.9,3.4,2.4,4.5c0.4,1.1,0.6,4.1,0.6,4.1s-0.8-1.1-1.1-2.2c-0.3-1.1-4-7.5-4.2-7.7
			c-0.2-0.2-2.6-2.4-4.5-4.1h-3.1v1.3c1.1,1,2.6,2.3,3.6,2.7C26.1,43.4,28.1,47,28.3,47.2z"/>
		<path class="st4" d="M34.6,73.6c0.3,0.6,1.9,0.3,1.9,0.3l0.4-1.5c0,0-0.2,1.2,0.4,1.9C37.9,75.1,39,75,39,75s1.7-0.9,3.6-0.3
			c1.9,0.6,3.4,0,3.4,0v-1.3l0.6,1.3c3.3-0.4,3.7-2.1,3.7-2.1l0.1-2.2c0,0-0.1,1.1-0.3,1.5s-0.4,1-0.9,1.2c-0.4,0.2-1.3,0.5-1.7,0.3
			s-0.6,0-1-0.7c-0.4-0.7-0.8-1.3-0.8-1.3s-0.2,1.8-0.3,1.9s-0.6,0.4-1,0.3c-0.3-0.1-0.5-0.2-0.6-0.9c-0.1-0.7-0.3-1.4-0.3-1.4
			s0.2,1.9-0.1,2.1c-0.3,0.2-0.8,0.3-1.1,0C42.1,73,42.1,71,42,70.5c-0.1-0.5-0.3-2.1-0.3-2.2c0-0.1,0.4,4.4,0,4.8
			c-0.4,0.4-1.2,0.6-1.4,0.4s-0.4-1.4-0.4-1.7s-0.3-2-0.3-2s0.3,2.3-0.1,2.9c-0.4,0.7-0.6,1-1.1,0.5c-0.5-0.5-0.7-0.3-1-1.5
			c-0.3-1.2-0.5-3.1-0.5-3.1s0,2.7-0.1,2.9c-0.1,0.2-0.3,1-0.5,1.2c-0.2,0.2-0.4-0.2-0.5-0.5s-0.2-1.1-0.3-1.8s-0.1,1.3-0.1,1.7
			c0,0.5-0.2,1.5-0.4,1c-0.2-0.5-1.4-4.7-1.4-4.7L34.6,73.6z"/>
		<path class="st4" d="M25.7,55.1c-0.3,0.5-1.6,1.7-2.5,1.9c-0.8,0.2-1.9,1.6-2.2,2.3s0.2,1.7,0.7,2.2c0.5,0.5,0.4,1,0.7,2.9
			c0.3,2,2.7,2.5,2.7,2.5c0-0.3,0-0.9,1-2.1c1-1.2,1.9-1.7,1.5-2.5c-0.3-0.7-0.4-1.6,0.8-2.6c1.2-1-0.5-2-0.9-2.3
			c-0.4-0.3-1.1-0.7-1.1-0.7s0-0.5,0.5-1c0,0-0.8,0.2-0.9,1c0,0,0.1,0.8,0,1.2c-0.1,0.4-0.2,1.1-0.4,1.5c-0.2,0.4-0.7,1.4-0.7,1.8
			c0,0.4,0.2,1.3,0,1.7c-0.2,0.3-1.1,1.9-0.6,2.6c0,0-0.3,0.5-0.8-0.5c-0.5-1-0.8-1.5-0.8-2.1c0-0.6,0-0.9-0.3-1.3
			c-0.3-0.4-0.5-0.4-0.8-0.9c-0.3-0.5-0.4-0.7-0.2-1.2c0.2-0.5,0.5-1,0.9-1.4c0.3-0.3,0.4-0.7,0.9-0.8c0.5-0.1,1.5-0.7,1.8-1.1
			C25.3,56,25.7,55.1,25.7,55.1z"/>
		<path class="st4" d="M25.2,57.2c0,0.1-0.2,0.6-0.7,1.1c-0.5,0.5-0.8,1-0.8,1.5c0,0.6,0.1,2.1,0,2.5s-0.2,0.7-0.2,1.2
			c0,0.6,0.2,1.2,0.2,1.2s-0.4-1.1-0.4-1.5c0-0.3-0.2-0.6,0-1c0.2-0.4,0.5-0.6,0.3-1c-0.2-0.4-0.2-1.1-0.2-1.5s0-0.7,0.3-1.2
			c0.4-0.6,1.4-1.4,1.5-1.7C25.3,56.6,25.3,57,25.2,57.2z"/>
		<path class="st4" d="M58.5,51.4c0,0-0.2,0.2-0.3,0.7c-0.1,0.5-0.2,1.2-0.3,1.3c0,0.1-0.1,0.4-0.6,0.4s-1-0.2-1-0.2s-0.6,0-0.7-0.6
			c0,0-0.6-0.3-1-0.2s-0.9,0.1-1.4,0.9c0,0,0.2-0.8,1.1-1.1c0.8-0.3,1.5,0.1,1.5,0.1s0.2,0.2,0.3,0.2c0.1,0,1.3,0.6,1.5,0.1
			c0.3-0.5,0.2-1.2,0.3-1.4c0.1-0.2,0.8-1.6,1.9-1.4C59.6,50.2,59,50.7,58.5,51.4z"/>
		<path class="st4" d="M55.7,52.6c0,0,0.4,0.2,0.5,0c0.1-0.2,0.2-1.1,0.4-1.3c0.2-0.2,1.2-1,2.2-1l0.3,0c0,0-0.5-0.1-0.8-0.1
			c-0.3,0-1.2,0.3-1.3,0.4c-0.2,0.1-0.5,0.3-0.6,0.6c-0.1,0.3-0.2,0.6-0.2,0.8c0,0.2,0.1,0.4-0.2,0.5c-0.3,0.1-0.5-0.1-0.5-0.1
			L55.7,52.6z"/>
	</g>
	<g>
		<g>
			<g>
				<path class="st5" d="M24.3,17.3c0,0-0.1,1,0.8,0.9c0.8-0.2,0.7-0.9,0.7-0.9s0.4,1.2,1.2,1c0.8-0.2,0.6-0.9,0.6-0.9
					s0.2,1.2,1.1,0.9s0.7-1,0.7-1s0.4,1.1,1.2,0.8c0.8-0.4,0.5-1.1,0.5-1.1s0.5,1,1.9,0.3c1.4-0.6,0.4-1.5,0.4-1.5s1,0.9,1.6,0.4
					c0.6-0.5-0.1-1.3-0.1-1.3s0.8,0.4,1.4-0.1c0.6-0.6-0.1-1.5-0.1-1.5s1.1,0,1.4-1.4c0.3-1.4-1-1-1-1s0.9,0,1.1-0.8
					c0.2-0.8-0.9-0.6-0.9-0.6s0.9-0.4,0.8-1.1c-0.1-0.7-1.1-0.4-1.1-0.4s0.7-0.5,0.6-1.6s-1.7-0.4-1.7-0.4s1-0.8,0.6-1.3
					c-0.4-0.5-1.1-0.2-1.1-0.2s0.7-0.7,0.2-1.1c-0.5-0.4-1.1-0.1-1.1-0.1s1-0.6,0.1-1.3s-1.2,0.2-1.2,0.2s0.7-0.8-0.3-1.2
					c-1-0.3-1.3,0.3-1.3,0.3s0.4-0.7-0.3-0.9C30,0,29.7,0.9,29.7,0.9s-0.4-1.2-1.3-0.8s-0.2,1.1-0.2,1.1S28,0.4,27.2,0.5
					c-0.8,0-0.6,1.1-0.6,1.1S26.3,0.7,25.7,1c-0.6,0.3-0.4,1.1-0.4,1.1S25,1.2,24.2,1.6c-0.8,0.4-0.2,1.3-0.2,1.3s-0.9-0.8-1.6-0.1
					c-0.6,0.7,0.2,1.3,0.2,1.3s-0.9-0.8-1.5,0s0.3,1.4,0.3,1.4s-0.7-0.7-1.4,0.1C19.4,6.4,20.6,7,20.6,7S19.4,6.4,19,7.4
					s1,1.4,1,1.4s-0.4-0.3-1.1,0.5c-0.7,0.9,0.9,1.1,0.9,1.1s-1.2,0-1.2,0.7c0,0.7,0.6,1.4,0.9,1.3l0.5-0.1c0,0-0.9,0.5-0.5,1.3
					c0.4,0.8,1.2,0.3,1.2,0.3s-0.8,0.2-0.5,0.9c0.4,0.7,1.5,0.2,1.5,0.2s-0.4,0.1-0.2,0.8c0.2,0.7,1,0.3,1,0.3s-0.8,0.6-0.2,1
					c0.6,0.4,1-0.4,1-0.4s-0.5,0.7,0.1,0.9C23.9,18,24.3,17.3,24.3,17.3z"/>
			</g>
			<path class="st6" d="M33.3,6.9c0,0,1.1-0.8,0.4-1.3c-0.7-0.5-1.5,0-1.5,0s0.7-1,0.1-1.3c-0.6-0.4-1.1,0.3-1.1,0.3
				s0.4-1.2-0.1-1.4s-1.2,0.4-1.2,0.4s0.6-0.7-0.2-0.8c-0.8-0.1-1.7,0.5-1.3,1c0,0-0.8-0.4-1,0.4c-0.2,0.8,0.3,1,0.3,1"/>
		</g>
		<path class="st6" d="M15.9,9.4l1.4,2.1l1.4,8.3l-1.9,8.4l-3.7,4.7l-5.5,0.3l-2.3-0.8c0,0-2,0.9-1.8-0.2c0,0-2.5,1.7-2.5-0.1
			c0.1-1.8,0.7-1.4,0.7-1.4S0.1,31.4,0,30.2c-0.1-1.2,0.7-1.6,0.7-1.6S0,28.1,0.1,27.3C0.2,26.4,1,26.1,1,26.1s-0.2,0.3-0.3-0.9
			c-0.2-1.2,0.3-1.1,0.9-0.9s-0.3,0.3,0.1-1c0.4-1.3,0.8-1.4,1.1-1.2s0.8,0.3,0.8,0.3S3.1,21,3.8,20.6c0.6-0.3,0.9,0.2,0.9,0.2
			s-0.6-0.6-0.4-1.2c0.2-0.5,1-0.8,1-0.8s0.5-0.1,0.9,0.3c0,0-1-0.6-0.7-1.6c0.3-0.9,0.9-0.8,1-0.7c0,0-1.6-1.3-1-1.9
			c0.5-0.6,1.2-0.3,1.2-0.3s-0.5-1.3,0-1.7c0.5-0.3,1-0.1,1-0.1S7.3,11.8,8,11.6s1.2,0.1,1.2,0.1s-0.3-1.2,0.4-1.4
			c0.7-0.2,1.4,0.1,1.4,0.1S10.8,9.3,11.6,9s1.3,0.1,1.3,0.1s0-0.7,0.8-0.5c0.8,0.2,0.7,0.8,0.7,0.8s0.1-1,0.7-0.9
			S15.9,9.4,15.9,9.4"/>
		<path class="st6" d="M12,15.1c0,0-1.1,0.1-1-0.8c0.1-0.9,1.2-0.5,1.2-0.5c-1.1-1.5,0.7-1.9,0.7-1.9c-0.6-0.9,1.1-1,1.1-1
			c-0.4-1.3,1.5-0.2,1.5-0.2s-0.3-0.5,0.1-1.1c0.5-0.7,2.2,0.2,2.2,0.2S16.7,9.3,18,8.3c1.3-1.1,2.1,0.1,2.1,0.1
			c0.9-1,2.1,0.6,2.1,0.6C23,8,24.5,9.5,24.5,9.5s0.4,0.8-0.4,1c0,0,1.4,0.7,1.1,1.3c-0.3,0.6-1,1.1-1,1.1l-1.2,3.8l-8,2
			c0,0-2.6-0.4-3.1-0.7c-0.4-0.2-1-0.9-0.4-1.2c0.5-0.3-0.4-0.3-0.2-0.8C11.6,15.5,12,15.1,12,15.1z"/>
		<g>
			<path class="st6" d="M24.1,36.4c0,0,1-0.2,1.1-0.6c0.1-0.4-0.2-1-0.6-1.1c-0.4-0.1-0.7-0.1-0.7-0.1s0.5-0.2,0.4-0.6
				c-0.1-0.4-0.4-0.9-0.7-0.8c-0.3,0.1-0.6,0.2-0.6,0.2s0.3-0.2,0.2-0.7s-0.4-0.9-0.6-0.9c-0.2,0-0.6,0.4-0.6,0.4s-0.1-0.1,0.1-0.4
				c0.2-0.3,0.4-0.5,0-0.8c-0.4-0.4-0.9-0.3-1-0.1c0,0.2,0.4-0.3,0.4-0.9c-0.1-0.5-0.8-0.8-1.4-0.5c-0.6,0.3-0.6,0.5-0.6,0.3
				s-0.1-0.6-0.7-0.9c-0.6-0.3-1.6-0.5-2,0.3c-0.4,0.8-0.4,0.8-0.4,0.8s-0.1-0.3-0.5-0.7c-0.4-0.4-1.1-0.6-1.2-0.2
				c-0.1,0.4-0.5,0.4,0.1,1.1c0,0-0.5-0.4-1-0.4c-0.5,0-0.9,0.6-0.7,0.8c0,0-0.7-0.3-0.8,0.2c-0.1,0.5,0.3,1.4,0.3,1.4
				s-0.2-0.4-0.8-0.5S10.3,32,10.6,33l0.4,0.8c0,0-0.6-0.4-1,0s-0.8,1.4,0.7,2c0,0-1,0.1-0.5,0.7s1.1,0.4,1.1,0.4s0,0.2,0,0.7
				c0,0.5,0.1,0.7,0.6,0.7c0,0-1,0.1-1.2,0.6c-0.2,0.5,0,0.9,0.6,1.1c0,0-0.8,0.6-0.3,1.1c0,0,0.3,0.4,1.1,0.1c0,0-1,0.8,0,1.3
				c1,0.4,1.2,0.1,1.2,0.1s-0.5,0.7,0.2,1c0.7,0.3,1.2,0.4,1.3,0.1c0,0-0.4,1,0.5,1.2c0.9,0.2,1.5,0.1,1.7-0.1
				c0.2-0.3-0.2-0.2,0.8,0.2c0.9,0.4,2,0.4,2-0.3l0-1.1c0,0,0,0.3,0.6,0.3c0.6,0,1.5-0.2,1.2-0.9c0,0,0.2,0.6,0.9,0.3
				c0.7-0.3,1-0.4,0.9-1c0,0,0.4,0.3,0.8-0.4c0,0,0.2-0.8-0.3-1s0.6,0.4,0.9,0c0.3-0.4,0.6-0.9,0.1-1.2c0,0,0.9,0.3,0.9-0.3
				s-0.1-1-0.7-0.9c0,0,1,0,0.7-0.6c0,0-0.3-0.8-1.1-0.5c0,0,0.8,0.2,0.8-0.3C25.4,36.5,24.1,36.4,24.1,36.4z"/>
			<path class="st7" d="M22.2,39.8c0,0,0.7,1.1-0.2,1.3c-0.8,0.2-1.1-0.8-1.1-0.8s-0.1,1.1-0.8,1.2s-1-0.4-1-0.9c0,0-0.2,1-1,0.9
				c-0.8-0.2-0.4-1.1-0.4-1.1"/>
		</g>
		<g>
			<g>
				<path class="st5" d="M10.8,31.2c0,0,0.2-0.9-0.1-1.2c-0.4-0.3-1.1-0.2-1.3,0.1C9.1,30.4,9,30.7,9,30.7s0-0.5-0.4-0.6s-1,0-1,0.4
					c0,0.3,0,0.6,0,0.6S7.5,30.7,7,30.6c-0.5-0.2-1,0-1.1,0.2S6,31.5,6,31.5s-0.2,0.1-0.4-0.2s-0.3-0.5-0.8-0.4s-0.7,0.7-0.5,0.8
					s-0.2-0.5-0.7-0.7c-0.5-0.1-1.1,0.4-1,1.1c0.1,0.6,0.2,0.7,0.1,0.6c-0.2-0.1-0.6-0.1-1.1,0.3S0.4,34.3,1.1,35
					c0.6,0.7,0.6,0.7,0.6,0.7s-0.3,0-0.8,0.2s-1,0.8-0.7,1s0.2,0.5,1.1,0.3c0,0-0.6,0.3-0.8,0.7s0.2,1,0.5,1c0,0-0.6,0.5-0.2,0.8
					c0.4,0.3,1.4,0.3,1.4,0.3s-0.5,0-0.8,0.6s-0.2,1.3,0.9,1.4l0.9-0.1c0,0-0.6,0.4-0.4,0.9c0.2,0.5,1,1.2,2.2,0.1
					c0,0-0.3,0.9,0.5,0.8s0.8-0.8,0.8-0.8s0.2,0.1,0.6,0.3s0.7,0.2,0.9-0.2c0,0-0.3,0.9,0.1,1.2S9,44.5,9.4,44c0,0,0.3,1,1,0.7
					c0,0,0.5-0.1,0.5-0.9c0,0,0.4,1.2,1.2,0.5s0.6-1,0.6-1s0.5,0.7,1,0.2c0.6-0.5,0.8-0.9,0.6-1.1c0,0,0.8,0.7,1.3,0
					c0.6-0.8,0.7-1.3,0.5-1.5c-0.2-0.3-0.2,0.1,0.5-0.6c0.7-0.7,1.1-1.6,0.5-1.9l-1.1-0.4c0,0,0.3,0.1,0.6-0.4S17,36,16.2,36
					c0,0,0.7,0.1,0.6-0.6c0-0.7,0-1-0.7-1.2c0,0,0.5-0.2-0.1-0.8c0,0-0.7-0.5-1.1-0.1c-0.4,0.4,0.6-0.4,0.3-0.8
					c-0.3-0.4-0.7-0.9-1.1-0.6c0,0,0.6-0.7,0-0.9s-1-0.3-1.2,0.2c0,0,0.3-0.9-0.3-0.9c0,0-0.9,0-0.9,0.8c0,0,0.5-0.6,0-0.8
					C11.4,30.1,10.8,31.2,10.8,31.2z"/>
				<path class="st8" d="M7.1,43c0.4,0.2,0.6,0.2,0.8-0.2l0.4-0.6l-0.2,0.6c0,0-0.3,0.8,0.1,1.2c0.2,0.2,0.4,0.3,0.6,0.2
					c0.2,0,0.3-0.1,0.5-0.3l0.1-0.1l0.1,0.2c0,0,0.2,0.5,0.5,0.6c0.1,0.1,0.2,0,0.4,0c0,0,0.5-0.1,0.5-0.9l0-0.5l0.2,0.4
					c0,0,0.2,0.5,0.6,0.6c0.2,0,0.3,0,0.5-0.2c0.7-0.6,0.6-0.9,0.6-0.9l0.2-0.1c0,0,0.2,0.3,0.5,0.3c0,0,0,0,0,0
					c0.1,0,0.3,0,0.4-0.2c0.6-0.5,0.7-0.8,0.7-0.9c0,0,0-0.1,0-0.1l0,0l0,0l0.1-0.1l0,0l0,0c0,0,0,0,0,0c0,0,0.3,0.3,0.7,0.3
					c0.2,0,0.3-0.1,0.5-0.3c0.7-0.9,0.6-1.3,0.5-1.4c0-0.1-0.1-0.1-0.1-0.1c0,0-0.1,0,0-0.1c0,0,0-0.1,0.1-0.1
					c0.1,0,0.2-0.1,0.5-0.4c0.5-0.5,0.8-1.1,0.8-1.5c0-0.1-0.1-0.2-0.2-0.3L16,37.9l0.1-0.2c0,0,0.3,0.1,0.4-0.4
					c0.2-0.4,0.2-0.9,0.1-1.1c-0.1-0.1-0.2-0.1-0.3-0.2c0,0-0.1,0-0.1,0l0,0l0-0.2c0,0,0,0,0,0c0.1,0,0.2,0,0.4-0.1
					c0.1-0.1,0.1-0.2,0.1-0.4c0-0.1,0-0.2,0-0.3c0-0.5,0-0.7-0.6-0.8l-0.2,0l0.2-0.1c0,0,0.1-0.1,0.1-0.2c0-0.1-0.1-0.3-0.2-0.5l0,0
					c0,0-0.5-0.4-0.9-0.2c-0.1,0.1-0.2,0.2-0.2,0.2l-0.1,0l-0.1,0c-0.1-0.1,0-0.1,0.1-0.2c0,0,0.1-0.1,0.1-0.1
					c0.1-0.2,0.3-0.4,0.2-0.6c-0.2-0.4-0.5-0.6-0.7-0.6c-0.1,0-0.2,0-0.3,0.1l-0.5,0.3l0.4-0.5c0.1-0.1,0.3-0.4,0.2-0.6
					c0-0.1-0.1-0.1-0.2-0.2c-0.4-0.2-0.7-0.2-0.8-0.1c-0.1,0-0.1,0.1-0.2,0.2c0,0.1,0,0.1,0,0.1l-0.2,0c0,0,0-0.1,0-0.1
					c0-0.2,0.1-0.4,0-0.6c0-0.1-0.1-0.1-0.2-0.1c0,0-0.4,0-0.6,0.2c0,0.3-0.2,0.5-0.2,0.6l-0.2,0.2l0-0.3c0-0.2,0.1-0.4,0.2-0.6
					c0,0,0,0,0,0c0-0.1-0.1-0.1-0.2-0.1c-0.3-0.1-0.8,0.6-0.9,0.8l-0.3,0.6l0.1-0.6c0.1-0.2,0.1-0.9-0.1-1.1
					c-0.2-0.1-0.4-0.2-0.7-0.1c-0.2,0-0.4,0.1-0.5,0.2c-0.2,0.3-0.4,0.6-0.4,0.6l-0.2,0.5l0-0.5c0,0,0-0.4-0.3-0.5
					c-0.3-0.1-0.6,0-0.8,0.1c-0.1,0-0.1,0.1-0.1,0.2c0,0.3,0,0.6,0,0.6l-0.1,0.6l-0.1-0.5c0,0-0.1-0.3-0.5-0.4c-0.4-0.1-0.7,0-0.8,0
					C6,30.7,6,30.8,6,30.8c0,0.2,0.1,0.5,0.1,0.6l0,0.1l-0.1,0c0,0-0.2,0.1-0.5-0.2c0,0-0.1-0.1-0.1-0.1c-0.2-0.2-0.2-0.3-0.6-0.2
					c-0.3,0.1-0.4,0.3-0.5,0.5c0.1,0.1,0.1,0.2,0.1,0.2c0,0.1,0,0.1,0,0.1c0,0-0.1,0-0.1,0c-0.1,0-0.1-0.1-0.1-0.3c0,0,0,0,0,0
					c-0.1-0.1-0.3-0.3-0.5-0.4c-0.2,0-0.4,0-0.5,0.1c-0.2,0.2-0.4,0.5-0.4,0.8c0,0.3,0.1,0.5,0.1,0.6c0,0.1,0,0.1,0,0.2
					c-0.1,0-0.1,0-0.2,0c-0.2-0.1-0.6-0.1-1,0.3c-0.2,0.1-0.7,0.6-0.7,1.2c0,0.2,0.1,0.4,0.2,0.6L2,35.7l-0.2,0c0,0-0.3,0-0.8,0.2
					c-0.4,0.2-0.7,0.5-0.7,0.7c0,0.1,0,0.1,0.1,0.1c0.1,0.1,0.2,0.1,0.2,0.2c0.1,0.1,0.2,0.2,0.8,0.1l0.1,0.2c0,0-0.6,0.3-0.8,0.7
					c0,0-0.1,0.8,0.5,0.9c0,0-0.8,0.1-0.6-1c0-0.3,0.3-0.4,0.5-0.6c-0.3,0-0.4-0.1-0.5-0.2c0-0.1-0.1-0.1-0.2-0.2
					C0,36.8,0,36.7,0,36.5c0-0.3,0.5-0.7,0.9-0.8c0.3-0.1,0.5-0.2,0.7-0.2L1,35c-0.2-0.2-0.3-0.5-0.3-0.8c0-0.6,0.6-1.1,0.8-1.3
					c0.5-0.4,0.9-0.4,1.2-0.3c0-0.1-0.1-0.3-0.1-0.5c0-0.4,0.1-0.8,0.4-1C3.2,31,3.4,30.9,3.7,31c0.2,0.1,0.4,0.2,0.5,0.3
					c0.1-0.2,0.3-0.4,0.5-0.5c0.5-0.2,0.6,0,0.8,0.2c0,0,0.1,0.1,0.1,0.1c0.1,0.1,0.2,0.2,0.2,0.2c0-0.2-0.1-0.4-0.1-0.6
					c0-0.1,0.1-0.2,0.2-0.2c0.2-0.1,0.6-0.2,1-0.1c0.3,0.1,0.4,0.2,0.5,0.3c0-0.1,0-0.2,0-0.3c0-0.1,0-0.2,0.2-0.3
					c0.2-0.2,0.6-0.2,1-0.1C8.9,30.1,9,30.2,9,30.4c0.1-0.1,0.1-0.2,0.2-0.4c0.1-0.2,0.3-0.3,0.6-0.3c0.3,0,0.6,0,0.8,0.2
					c0.2,0.2,0.3,0.6,0.2,0.9c0.2-0.3,0.6-0.7,0.9-0.5c0.1,0.1,0.2,0.1,0.2,0.2c0.3-0.2,0.6-0.2,0.7-0.2c0.2,0,0.3,0,0.4,0.1
					c0.1,0.1,0.1,0.2,0.1,0.4c0,0,0,0,0,0c0.2-0.1,0.5-0.1,1,0.1c0.2,0.1,0.2,0.2,0.3,0.3c0,0.2,0,0.3-0.1,0.5c0.1,0,0.1,0,0.2,0
					c0.3,0.1,0.5,0.3,0.8,0.7c0.1,0.2,0,0.4-0.1,0.6c0.4,0,0.8,0.3,0.8,0.3c0.2,0.2,0.3,0.5,0.3,0.7c0,0.1,0,0.1-0.1,0.2
					c0.5,0.2,0.5,0.5,0.6,0.9c0,0.1,0,0.2,0,0.3c0,0.3,0,0.4-0.2,0.6c0,0-0.1,0.1-0.2,0.1c0.1,0,0.1,0.1,0.1,0.1
					c0.2,0.3,0.1,0.9-0.1,1.3c-0.1,0.2-0.2,0.4-0.3,0.4l0.8,0.3c0.2,0.1,0.3,0.2,0.3,0.4c0.1,0.4-0.2,1-0.8,1.6
					c-0.3,0.3-0.4,0.4-0.5,0.4c0,0,0,0,0,0.1c0.2,0.3,0.1,0.9-0.5,1.6c-0.2,0.2-0.4,0.4-0.6,0.4c-0.2,0-0.5-0.1-0.6-0.2
					c0,0.3-0.4,0.7-0.7,0.9c-0.2,0.2-0.4,0.2-0.6,0.2c-0.2,0-0.3-0.1-0.4-0.2c0,0.2-0.2,0.5-0.6,0.8c-0.2,0.2-0.5,0.3-0.7,0.2
					c-0.2-0.1-0.4-0.3-0.5-0.5c-0.1,0.6-0.6,0.7-0.6,0.7c-0.1,0-0.2,0.1-0.3,0.1c-0.1,0-0.1,0-0.2-0.1c-0.3-0.1-0.4-0.4-0.5-0.6
					c-0.2,0.2-0.3,0.3-0.5,0.3c-0.2,0-0.5-0.1-0.8-0.3c-0.3-0.2-0.3-0.7-0.2-1c-0.2,0.2-0.4,0.1-0.8,0L7.1,43z"/>
			</g>
			<path class="st7" d="M13.3,34.1c0,0,1.3-0.2,1.2,0.6c-0.1,0.8-1.2,0.7-1.2,0.7s1.1,0.5,0.8,1.2c-0.3,0.7-0.8,0.7-1.2,0.5
				c0,0,0.9,0.6,0.4,1.2s-1.2-0.1-1.2-0.1s0.5,1.9-0.2,1.8c-0.7-0.1-1.3-1.2-1.3-1.2s-0.7,1.6-1.1,0.9c-0.4-0.7,0-1.1,0.2-1.3"/>
		</g>
		<g>
			<path class="st6" d="M15.9,30c0,0-0.1,1.1,0.8,0.9c0.9-0.2,0.7-1,0.7-1s0.4,1.3,1.3,1c0.9-0.2,0.7-0.9,0.7-0.9s0.2,1.2,1.1,1
				c0.9-0.3,0.7-1,0.7-1s0.4,1.2,1.2,0.8c0.8-0.4,0.5-1.1,0.5-1.1s0.5,1,2,0.3s0.4-1.5,0.4-1.5s1,1,1.6,0.4c0.6-0.6-0.1-1.3-0.1-1.3
				s0.8,0.5,1.4-0.1c0.6-0.6-0.1-1.5-0.1-1.5s1.1,0,1.4-1.5c0.3-1.5-1-1-1-1s0.9,0,1.2-0.9c0.2-0.8-1-0.7-1-0.7s0.9-0.4,0.8-1.2
				s-1.1-0.5-1.1-0.5s0.7-0.5,0.6-1.7c-0.1-1.1-1.7-0.4-1.7-0.4s1-0.8,0.6-1.4c-0.4-0.5-1.2-0.2-1.2-0.2s0.7-0.7,0.2-1.2
				c-0.5-0.5-1.2-0.1-1.2-0.1s1-0.7,0.1-1.3c-0.9-0.7-1.2,0.2-1.2,0.2s0.7-0.9-0.3-1.2c-1-0.4-1.3,0.3-1.3,0.3s0.4-0.7-0.3-0.9
				S21.4,13,21.4,13s-0.4-1.2-1.3-0.9c-0.9,0.3-0.2,1.2-0.2,1.2s-0.2-0.9-1-0.8s-0.6,1.1-0.6,1.1s-0.3-0.9-1-0.6
				c-0.6,0.3-0.4,1.2-0.4,1.2s-0.3-1-1.1-0.5C15,14.1,15.6,15,15.6,15s-1-0.8-1.6-0.1s0.2,1.3,0.2,1.3s-1-0.8-1.5,0
				c-0.6,0.8,0.3,1.4,0.3,1.4s-0.7-0.7-1.4,0.2c-0.7,0.8,0.5,1.4,0.5,1.4s-1.2-0.6-1.6,0.4c-0.4,1,1,1.5,1,1.5s-0.5-0.3-1.2,0.6
				c-0.7,0.9,0.9,1.2,0.9,1.2s-1.2,0-1.2,0.7c0,0.8,0.6,1.5,0.9,1.3l0.5-0.1c0,0-0.9,0.5-0.5,1.3c0.5,0.8,1.2,0.3,1.2,0.3
				s-0.8,0.2-0.5,1s1.5,0.2,1.5,0.2s-0.4,0.1-0.2,0.9c0.2,0.8,1,0.3,1,0.3s-0.8,0.6-0.2,1c0.6,0.4,1-0.4,1-0.4s-0.5,0.8,0.1,1
				C15.5,30.7,15.9,30,15.9,30z"/>
			<path class="st6" d="M25.2,19.2c0,0,1.2-0.8,0.4-1.4c-0.8-0.6-1.5,0-1.5,0s0.7-1,0.1-1.4c-0.6-0.4-1.1,0.3-1.1,0.3
				s0.4-1.2-0.1-1.4c-0.5-0.2-1.3,0.4-1.3,0.4s0.6-0.7-0.2-0.9c-0.8-0.1-1.8,0.6-1.3,1.1c0,0-0.8-0.4-1.1,0.5c-0.2,0.9,0.4,1,0.4,1"
				/>
		</g>
		<path class="st6" d="M9.5,26.6c0,0-0.9-1.8-1.7-0.8l-0.1,1c0,0-0.7-0.8-1.4-0.6c-0.7,0.2-0.5,1.1-0.4,1.2s-0.9-1.1-1.3-0.6
			C4,27.3,4.6,28,4.6,28s-1.1-0.4-1.1,0.3c0,0.6,1.1,0.7,1.1,0.7"/>
		<g>
			<path class="st5" d="M67.3,10.4l-1.9,1.7l-3.4,7.8L62,28.5l2.5,5.4l5.3,1.5l2.5-0.3c0,0,1.7,1.3,1.8,0.2c0,0,2.1,2.2,2.4,0.5
				c0.4-1.8-0.3-1.5-0.3-1.5s1.4,1.1,1.7-0.1c0.4-1.2-0.3-1.7-0.3-1.7s0.8-0.3,0.9-1.1S77.8,30,77.8,30s0.1,0.4,0.5-0.8
				c0.5-1.1,0-1.1-0.6-1c-0.6,0.1,0.2,0.4,0.1-1s-0.5-1.6-0.8-1.4c-0.3,0.2-0.8,0.1-0.8,0.1s0.8-1.4,0.2-1.9c-0.6-0.4-1,0-1,0
				s0.8-0.5,0.7-1c-0.1-0.6-0.8-1-0.8-1s-0.5-0.2-1,0.1c0,0,1.1-0.4,1-1.4c-0.1-1-0.7-0.9-0.8-0.9c0,0,1.8-0.9,1.4-1.6
				c-0.4-0.7-1.1-0.5-1.1-0.5s0.8-1.2,0.4-1.6c-0.5-0.4-0.9-0.3-0.9-0.3s0.6-1.2,0-1.6s-1.2-0.1-1.2-0.1s0.6-1.1,0-1.5
				c-0.7-0.4-1.4-0.1-1.4-0.1s0.4-1.1-0.3-1.5c-0.7-0.4-1.3-0.1-1.3-0.1s0.1-0.7-0.7-0.7c-0.8,0-0.9,0.7-0.9,0.7s0.2-1-0.5-1
				S67.3,10.4,67.3,10.4"/>
		</g>
		<path class="st6" d="M78.9,24.4c0,0,1.1,0.3,1.2-0.6s-1-0.8-1-0.8c1.4-1.3-0.3-2-0.3-2c0.8-0.8-0.8-1.2-0.8-1.2
			c0.7-1.2-1.4-0.5-1.4-0.5s0.4-0.4,0.1-1.1S74.5,18,74.5,18s1.2-0.2,0.2-1.5S72.6,16,72.6,16c-0.6-1.2-2.2,0.1-2.2,0.1
			c-0.5-1.1-2.3,0.1-2.3,0.1s-0.6,0.7,0.2,1.1c0,0-1.5,0.4-1.4,1c0.1,0.7,0.7,1.3,0.7,1.3l0.2,3.9l7.3,3.7c0,0,2.7,0.1,3.1,0
			c0.5-0.1,1.1-0.7,0.7-1.1s0.5-0.2,0.4-0.8C79.1,24.8,78.9,24.4,78.9,24.4z"/>
		<path class="st6" d="M51.3,4.1l-0.2,2.5l2.8,8l5.8,6.6l5.6,2.5l5-2.2l1.7-1.8c0,0,2.2-0.1,1.5-1c0,0,3.1,0.4,2.1-1.2
			c-0.9-1.6-1.3-1-1.3-1s1.8,0,1.3-1.2c-0.5-1.1-1.4-1.1-1.4-1.1s0.4-0.7-0.1-1.4c-0.5-0.7-1.4-0.6-1.4-0.6s0.3,0.2-0.1-0.9
			s-0.8-0.8-1.2-0.4c-0.4,0.4,0.4,0.2-0.6-0.9c-1-1-1.4-0.9-1.6-0.6c-0.1,0.3-0.5,0.6-0.5,0.6s-0.4-1.6-1.1-1.5
			c-0.7,0-0.7,0.6-0.7,0.6s0.3-0.8-0.2-1.2c-0.4-0.4-1.3-0.3-1.3-0.3S64.8,8,64.7,8.5c0,0,0.6-1-0.1-1.7s-1.1-0.3-1.2-0.1
			c0,0,0.8-1.8,0-2.1c-0.8-0.3-1.2,0.3-1.2,0.3S62,3.5,61.3,3.4c-0.6-0.1-0.9,0.4-0.9,0.4s-0.3-1.3-1-1.2c-0.7,0.1-1,0.7-1,0.7
			s-0.3-1.2-1-1.1c-0.8,0.1-1.1,0.7-1.1,0.7S55.8,1.8,55,1.9s-1,0.7-1,0.7s-0.4-0.6-1-0.1c-0.6,0.5-0.2,1.1-0.2,1.1
			s-0.6-0.9-1.1-0.5C51.1,3.5,51.3,4.1,51.3,4.1"/>
		<g>
			<path class="st5" d="M25.8,11.9l1.9,1.7l8.3,2.7l9-0.4l5.5-2.7L51.7,8l-0.4-2.3c0,0,1.3-1.7,0.1-1.7c0,0,2.2-2.1,0.3-2.3
				s-1.6,0.4-1.6,0.4s1-1.4-0.2-1.7s-1.8,0.4-1.8,0.4S47.8,0,46.9,0c-0.9,0-1.3,0.7-1.3,0.7s0.4-0.1-0.8-0.5c-1.2-0.4-1.2,0.1-1,0.7
				c0.1,0.6,0.4-0.2-1.1-0.1S41,1.4,41.2,1.7s0.2,0.8,0.2,0.8s-1.5-0.7-1.9-0.1c-0.4,0.6,0.1,0.9,0.1,0.9S39,2.6,38.4,2.7
				c-0.6,0.1-1,0.8-1,0.8S37.2,4,37.6,4.4c0,0-0.5-1.1-1.5-0.9s-0.9,0.7-0.9,0.8c0,0-1.1-1.7-1.7-1.3S33,4.2,33,4.2
				s-1.3-0.7-1.7-0.3S31,4.8,31,4.8s-1.3-0.5-1.6,0.1S29.3,6,29.3,6s-1.2-0.5-1.5,0.1c-0.4,0.6-0.1,1.3-0.1,1.3s-1.1-0.3-1.5,0.4
				S26.1,9,26.1,9s-0.8-0.1-0.7,0.7c0.1,0.8,0.7,0.8,0.7,0.8s-1.1-0.1-1.1,0.5C25.1,11.7,25.8,11.9,25.8,11.9"/>
			<path class="st8" d="M43.6,0.8 M43.6,0.8c0,0-0.1-0.2-0.1-0.3c0-0.1,0.3-0.4,0.3-0.4c-0.2,0,0,0.7,0,0.7c0,0,0,0.1,0,0.1
				c0,0,0.1,0.1,0.1,0.1l0,0.1l-0.1,0c0,0-0.1,0-0.1-0.1c-0.1-0.1-0.4-0.2-1-0.1c-1.1,0.1-1.3,0.3-1.4,0.5c0,0.1,0,0.2,0,0.2
				c0.2,0.3,0.2,0.8,0.2,0.8l0,0.1l-0.1-0.1C41,2.4,39.8,2,39.5,2.4c-0.2,0.3-0.2,0.5-0.1,0.6c0.1,0.1,0.2,0.2,0.2,0.2L40,3.7
				l-0.5-0.3c0,0-0.1-0.1-0.2-0.2c-0.2-0.2-0.5-0.5-0.9-0.4c-0.5,0.1-1,0.8-1,0.8c0,0-0.1,0.2,0,0.5c0.1,0.2,0.2,0.3,0.2,0.3
				l0.2,0.5l-0.4-0.4c-0.1-0.1-0.2-0.2-0.2-0.4c-0.2-0.3-0.6-0.6-1.2-0.5c-0.4,0.1-0.7,0.2-0.8,0.4c-0.1,0.1,0,0.3,0,0.3l-0.2,0.1
				c0,0-0.7-1.1-1.3-1.3c-0.1,0-0.2,0-0.3,0c-0.6,0.4-0.5,1-0.5,1l0.1,0.2L33,4.2c-0.3-0.2-1.3-0.6-1.6-0.3
				c-0.4,0.4-0.2,0.8-0.2,0.8l0.1,0.2L31,4.9c0,0-1.2-0.5-1.5,0C29.1,5.4,29.4,6,29.4,6l0.1,0.2l-0.2-0.1c0,0-1.1-0.5-1.4,0.1
				c-0.3,0.6-0.1,1.2-0.1,1.2l0.1,0.2l-0.2-0.1c0,0-1.1-0.3-1.4,0.4C25.9,8.6,26.2,9,26.2,9l0.1,0.2l-0.2,0l0,0c0,0-0.3,0-0.5,0.1
				c-0.1,0.1-0.1,0.3-0.1,0.5c0.1,0.7,0.6,0.7,0.6,0.7c0,0,0,0,0,0l0,0.2c0,0,0,0,0,0l0,0c0,0-0.6,0-0.9,0.2
				c-0.1,0.1-0.1,0.2-0.1,0.3c0,0.5,0.6,0.8,0.7,0.8l0,0l1.9,1.7l8.3,2.7l8.9-0.4l5.4-2.7L51.6,8l-0.4-2.4l0,0
				c0.2-0.3,0.7-1.1,0.5-1.4c-0.1-0.1-0.2-0.1-0.4-0.2l-0.2,0l0.2-0.1c0.3-0.3,1.2-1.3,1-1.8c-0.1-0.2-0.3-0.3-0.6-0.4
				c-0.7-0.1-1.1,0-1.3,0c-0.1,0.2-0.2,0.3-0.2,0.4l-0.1,0.1L50,2.1c0-0.1,0-0.2,0.1-0.3c0-0.1,0.1-0.1,0.2-0.1
				c0.1-0.2,0.2-0.5,0.1-0.8c-0.1-0.2-0.2-0.3-0.5-0.4c0,0-0.3-0.2-0.6-0.2c0,0,0.4-0.1,0.6,0c0.3,0.1,0.5,0.2,0.6,0.5
				c0.1,0.2,0,0.5-0.1,0.8c0.3-0.1,0.7-0.1,1.2,0c0.4,0.1,0.7,0.2,0.8,0.5c0.2,0.6-0.6,1.5-0.9,1.9c0.2,0,0.3,0.1,0.3,0.2
				c0.2,0.5-0.4,1.4-0.5,1.6L51.8,8l0,0l-1.2,5.2l0,0L45,16l-9,0.4l0,0l-8.4-2.8L25.8,12c-0.1,0-0.7-0.3-0.8-0.9
				c0-0.2,0-0.3,0.2-0.4c0.1-0.1,0.4-0.2,0.6-0.2c-0.2-0.1-0.4-0.3-0.4-0.7c0-0.3,0-0.5,0.2-0.6C25.7,9,25.8,9,26,9
				c-0.1-0.2-0.2-0.6,0.1-1.2c0.3-0.6,1.1-0.5,1.5-0.5c-0.1-0.2-0.2-0.7,0.1-1.2c0.3-0.5,1.1-0.4,1.5-0.2c-0.1-0.2-0.1-0.6,0.1-1.1
				c0.3-0.5,1.2-0.3,1.6-0.1c0-0.2,0-0.5,0.3-0.8c0.4-0.4,1.3,0,1.7,0.2c0-0.2,0.1-0.7,0.6-1c0.1-0.1,0.3-0.1,0.4-0.1
				c0.5,0.1,1,0.7,1.2,1.1c0,0,0-0.1,0-0.1c0.1-0.2,0.4-0.4,0.9-0.5c0.5-0.1,0.9,0.1,1.2,0.4c0-0.2,0-0.3,0.1-0.3
				c0,0,0.5-0.8,1.1-0.9c0.3-0.1,0.6,0.1,0.8,0.2c0-0.1,0-0.3,0.2-0.5c0.4-0.5,1.5-0.1,1.9,0c0-0.2-0.1-0.4-0.2-0.6
				c-0.1-0.1-0.1-0.3,0-0.4c0.1-0.3,0.7-0.4,1.5-0.6C43.1,0.6,43.6,0.8,43.6,0.8z"/>
		</g>
		<path class="st6" d="M69.4,28.6c0,0,1.4-1.6,1.9-0.4l-0.1,1c0,0,0.9-0.6,1.5-0.3s0.2,1.2,0.1,1.2s1.1-0.9,1.4-0.2S73.8,31,73.8,31
			s1.1-0.1,1,0.5S73.6,32,73.6,32"/>
		<g>
			<path class="st6" d="M25.1,26c0,0-0.1,1,0.8,0.9s0.7-0.9,0.7-0.9s0.4,1.2,1.2,1c0.8-0.2,0.6-0.9,0.6-0.9s0.2,1.2,1.1,0.9
				s0.7-1,0.7-1s0.4,1.1,1.2,0.8c0.8-0.4,0.5-1.1,0.5-1.1s0.5,1,1.9,0.3c1.4-0.6,0.4-1.5,0.4-1.5s1,0.9,1.6,0.4
				c0.6-0.5-0.1-1.3-0.1-1.3s0.8,0.4,1.4-0.1c0.6-0.6-0.1-1.5-0.1-1.5s1.1,0,1.4-1.4c0.3-1.4-1-1-1-1s0.9,0,1.1-0.8
				c0.2-0.8-0.9-0.6-0.9-0.6s0.9-0.4,0.8-1.1c-0.1-0.7-1.1-0.4-1.1-0.4s0.7-0.5,0.6-1.6c-0.1-1.1-1.7-0.4-1.7-0.4s1-0.8,0.6-1.3
				c-0.4-0.5-1.1-0.2-1.1-0.2s0.7-0.7,0.2-1.1c-0.5-0.4-1.1-0.1-1.1-0.1s1-0.6,0.1-1.3s-1.2,0.2-1.2,0.2s0.7-0.8-0.3-1.2
				c-1-0.3-1.3,0.3-1.3,0.3s0.4-0.7-0.3-0.9c-0.7-0.2-1.1,0.7-1.1,0.7S30,8.5,29.2,8.8s-0.2,1.1-0.2,1.1S28.8,9.1,28,9.2
				c-0.8,0-0.6,1.1-0.6,1.1S27,9.4,26.4,9.7c-0.6,0.3-0.4,1.1-0.4,1.1s-0.3-0.9-1.1-0.5c-0.8,0.4-0.2,1.3-0.2,1.3s-0.9-0.8-1.6-0.1
				c-0.6,0.7,0.2,1.3,0.2,1.3s-0.9-0.8-1.5,0c-0.5,0.8,0.3,1.4,0.3,1.4s-0.7-0.7-1.4,0.1c-0.7,0.8,0.5,1.4,0.5,1.4s-1.2-0.6-1.6,0.4
				c-0.4,1,1,1.4,1,1.4s-0.4-0.3-1.1,0.5c-0.7,0.9,0.9,1.1,0.9,1.1s-1.2,0-1.2,0.7c0,0.7,0.6,1.4,0.9,1.3l0.5-0.1
				c0,0-0.9,0.5-0.5,1.3c0.4,0.8,1.2,0.3,1.2,0.3s-0.8,0.2-0.5,0.9c0.4,0.7,1.5,0.2,1.5,0.2s-0.4,0.1-0.2,0.8c0.2,0.7,1,0.3,1,0.3
				s-0.8,0.6-0.2,1c0.6,0.4,1-0.4,1-0.4s-0.5,0.7,0.1,0.9S25.1,26,25.1,26z"/>
			<path class="st6" d="M34,15.6c0,0,1.1-0.8,0.4-1.3c-0.7-0.5-1.5,0-1.5,0s0.7-1,0.1-1.3S32,13.2,32,13.2s0.4-1.2-0.1-1.4
				s-1.2,0.4-1.2,0.4s0.6-0.7-0.2-0.8c-0.8-0.1-1.7,0.5-1.3,1c0,0-0.8-0.4-1,0.4c-0.2,0.8,0.3,1,0.3,1"/>
		</g>
		<g>
			<g>
				<path class="st5" d="M53.6,35.1c0,0-0.9-0.4-0.9-0.8c0-0.4,0.5-1,0.9-0.9c0.4,0,0.7,0.1,0.7,0.1s-0.5-0.3-0.3-0.7
					c0.2-0.4,0.6-0.8,0.9-0.6c0.3,0.2,0.5,0.3,0.5,0.3s-0.2-0.2-0.1-0.8c0.2-0.5,0.6-0.8,0.8-0.7s0.5,0.5,0.5,0.5s0.2-0.1,0.1-0.4
					c-0.1-0.4-0.3-0.6,0.2-0.8c0.5-0.3,1-0.1,1,0.1c0,0.2-0.3-0.4-0.2-0.9s1-0.6,1.5-0.2c0.5,0.4,0.5,0.6,0.5,0.4
					c0-0.2,0.3-0.6,0.9-0.7c0.7-0.1,1.7-0.1,1.9,0.7c0.2,0.9,0.2,0.9,0.2,0.9s0.1-0.3,0.6-0.5c0.5-0.3,1.2-0.4,1.2,0s0.4,0.5-0.3,1
					c0,0,0.6-0.3,1.1-0.2c0.5,0.1,0.8,0.8,0.5,1c0,0,0.8-0.2,0.7,0.3c0,0.5-0.6,1.3-0.6,1.3s0.3-0.4,0.9-0.3s1.2,0.6,0.7,1.5
					L67,35.4c0,0,0.7-0.3,1,0.2s0.5,1.5-1.2,1.8c0,0,0.9,0.3,0.3,0.8c-0.6,0.5-1.1,0.2-1.1,0.2s0,0.2-0.1,0.7
					c-0.1,0.5-0.2,0.6-0.7,0.6c0,0,0.9,0.3,1,0.8s-0.2,0.9-0.8,0.9c0,0,0.7,0.8,0,1.1c0,0-0.4,0.4-1.1-0.1c0,0,0.7,1-0.3,1.2
					c-1,0.2-1.2-0.1-1.2-0.1s0.3,0.8-0.4,0.9c-0.8,0.2-1.2,0.1-1.3-0.1c0,0,0.2,1-0.8,1c-1,0-1.5-0.2-1.6-0.5s0.2-0.1-0.8,0
					c-1,0.1-2-0.1-1.9-0.7l0.3-1.1c0,0-0.1,0.3-0.7,0.2c-0.6-0.1-1.4-0.5-1-1.1c0,0-0.3,0.6-0.9,0.1c-0.6-0.5-0.9-0.6-0.6-1.2
					c0,0-0.5,0.2-0.6-0.5c0,0,0-0.9,0.6-0.9c0.6-0.1-0.7,0.2-0.9-0.2c-0.2-0.5-0.4-1,0.1-1.2c0,0-0.9,0.1-0.8-0.5
					c0.1-0.6,0.4-1,0.9-0.8c0,0-0.9-0.3-0.5-0.7c0,0,0.5-0.7,1.2-0.3c0,0-0.8,0-0.7-0.5S53.6,35.1,53.6,35.1z"/>
				<path class="st8" d="M61,44.4c0.8,0.3,1.3,0,1.3,0c0.2,0,0.3-0.1,0.4-0.2c0.1-0.2,0-0.6,0-0.6l0.2-0.1l0,0c0,0,0.2,0.3,1.1,0.1
					c0.2,0,0.4-0.1,0.5-0.3c0.1-0.3-0.1-0.7-0.2-0.8l-0.3-0.4l0.4,0.3c0.7,0.4,1,0.1,1,0.1c0.1-0.1,0.2-0.2,0.2-0.3
					c0.1-0.3-0.3-0.7-0.3-0.7l-0.1-0.1l0.2,0c0.3,0,0.4-0.1,0.6-0.2c0.1-0.1,0.2-0.4,0.2-0.6c0-0.5-0.9-0.7-0.9-0.7l-0.7-0.2l0.7,0
					c0.5,0,0.6-0.1,0.7-0.5c0.1-0.5,0.1-0.7,0.1-0.7l0-0.1l0.1,0.1c0,0,0.5,0.3,1-0.2c0.1-0.1,0.2-0.2,0.2-0.3
					c0-0.2-0.4-0.3-0.5-0.4l-0.3-0.1l0.4-0.1c0.7-0.1,1.1-0.3,1.2-0.7c0.2-0.3,0.1-0.7-0.1-1c-0.3-0.4-0.8-0.2-0.9-0.2l-0.4,0.2
					l0.9-0.9c0.2-0.4,0.2-0.7,0.1-0.9c-0.1-0.2-0.4-0.4-0.8-0.5c0,0,0,0-0.1,0c-0.5-0.1-0.7,0.2-0.8,0.3c0,0,0,0,0,0l-0.1-0.1
					c0,0,0,0,0,0c0.1-0.1,0.6-0.8,0.6-1.2c0-0.1,0-0.1-0.1-0.2c-0.1-0.1-0.5-0.1-0.6-0.1l-0.3,0.1l0.2-0.2c0.1-0.1,0.1-0.2,0.1-0.3
					c-0.1-0.2-0.2-0.5-0.5-0.5c-0.5-0.1-1,0.2-1,0.2l-0.1-0.1c0.5-0.4,0.4-0.5,0.4-0.7c0-0.1-0.1-0.2-0.1-0.3c0-0.1,0-0.1-0.1-0.1
					c-0.2-0.1-0.7,0-1,0.2c-0.4,0.3-0.6,0.5-0.6,0.5l-0.1,0.2l-0.2-1.1c-0.1-0.2-0.2-0.4-0.4-0.6c-0.5-0.3-1.2-0.2-1.4-0.1
					c-0.6,0.1-0.8,0.5-0.8,0.6c0,0.1,0,0.1-0.1,0.2c-0.1,0-0.1,0-0.1-0.1c-0.1-0.1-0.2-0.2-0.4-0.4c-0.3-0.2-0.6-0.3-0.9-0.2
					c-0.2,0.1-0.4,0.2-0.4,0.3c-0.1,0.2-0.1,0.5,0,0.6c0,0,0,0,0,0c0.1,0.1,0.2,0.2,0.1,0.2c0,0.1,0,0.1-0.1,0.1c0,0-0.1,0-0.1,0
					c0,0-0.1-0.1-0.1-0.2c-0.2-0.1-0.4-0.1-0.7,0.1c-0.3,0.2-0.3,0.3-0.2,0.6c0,0.1,0,0.1,0.1,0.2c0.1,0.4-0.1,0.5-0.1,0.5l-0.1,0
					l0-0.1c-0.1-0.1-0.3-0.4-0.5-0.5c0,0-0.1,0-0.2,0c-0.2,0.1-0.4,0.3-0.5,0.6c-0.2,0.5,0,0.7,0,0.7l0.4,0.4l-0.5-0.3
					c0,0-0.3-0.1-0.5-0.4c-0.1,0-0.1-0.1-0.2,0c-0.2,0.1-0.4,0.3-0.6,0.6c-0.1,0.3,0.2,0.6,0.3,0.6l0.5,0.3l-0.5-0.1
					c0,0-0.3-0.1-0.7-0.1c-0.2,0-0.3,0.1-0.5,0.2c-0.2,0.2-0.3,0.4-0.3,0.6c0,0.3,0.7,0.6,0.9,0.7l0.6,0.3l-0.7-0.1
					c-0.3,0-1.2-0.1-1.2,0.3c0,0.1,0,0.1,0,0.2c0,0,0,0,0,0c0.2,0,0.4,0,0.6,0.2l0.2,0.1L53,36c0,0-0.4,0-0.6-0.1
					c-0.3,0.1-0.5,0.4-0.5,0.4c-0.1,0.1-0.1,0.2-0.1,0.2c0.1,0.2,0.3,0.3,0.5,0.3c0,0,0.1,0,0.1,0L52.3,37c0,0-0.1,0-0.1,0
					c-0.1,0-0.2,0-0.3,0c-0.2,0.1-0.3,0.3-0.4,0.7c0,0.1,0,0.2,0,0.2c0.1,0.1,0.5,0.2,0.6,0.1l0.6-0.1l-0.6,0.2
					c-0.1,0-0.2,0.1-0.2,0.2c-0.1,0.2,0,0.5,0.1,0.9c0.1,0.2,0.4,0.2,0.6,0.2c0,0,0.1,0,0.2,0c0.1,0,0.2,0,0.3,0.1l0,0.1l-0.1,0
					c0,0-0.2,0-0.3,0c-0.4,0.2-0.3,0.8-0.3,0.8c0.1,0.2,0.2,0.4,0.3,0.5c0.1,0.1,0.2,0,0.2,0l0.2-0.1l-0.1,0.2l-0.2,0.1
					c-0.1,0-0.1,0-0.2,0c-0.2-0.1-0.3-0.3-0.4-0.6c0,0,0-0.5,0.2-0.8c-0.2,0-0.5-0.1-0.6-0.3c-0.2-0.5-0.3-0.8-0.1-1
					c0-0.1,0.1-0.1,0.1-0.1c-0.2,0-0.4-0.1-0.5-0.2c-0.1-0.1-0.1-0.2-0.1-0.4c0.1-0.5,0.3-0.7,0.5-0.8c0,0,0,0,0,0
					c-0.1-0.1-0.2-0.2-0.3-0.3c0-0.1,0-0.3,0.1-0.4c0,0,0.2-0.3,0.5-0.4c0-0.1-0.1-0.2,0-0.3c0.1-0.4,0.6-0.4,1-0.4
					c-0.3-0.2-0.6-0.4-0.6-0.7c0-0.2,0.1-0.5,0.3-0.7c0.2-0.2,0.4-0.3,0.6-0.3c0.2,0,0.3,0,0.5,0c-0.1-0.1-0.2-0.3-0.1-0.6
					c0.1-0.3,0.4-0.6,0.7-0.7c0.1,0,0.3,0,0.4,0.1c0.1,0.1,0.2,0.1,0.3,0.2c0-0.1,0-0.3,0.1-0.6c0.1-0.4,0.4-0.6,0.6-0.7
					c0.1-0.1,0.2-0.1,0.3,0c0.2,0.1,0.4,0.3,0.5,0.4c0-0.1,0-0.1,0-0.3c0-0.1,0-0.1-0.1-0.2c-0.1-0.3-0.2-0.5,0.3-0.8
					c0.2-0.1,0.5-0.2,0.7-0.1c0-0.2,0-0.4,0-0.6c0.1-0.2,0.3-0.4,0.5-0.4c0.4-0.1,0.8,0,1.1,0.2c0.2,0.2,0.3,0.3,0.4,0.4
					c0.1-0.2,0.3-0.6,1-0.7c0.2,0,1-0.2,1.5,0.1c0.2,0.2,0.4,0.4,0.5,0.7l0.2,0.7c0.1-0.1,0.3-0.3,0.5-0.4c0.4-0.2,0.9-0.3,1.2-0.2
					c0.1,0.1,0.2,0.2,0.2,0.3c0,0.1,0,0.2,0,0.2c0.1,0.2,0.1,0.3-0.1,0.5c0.2-0.1,0.5-0.1,0.7,0c0.4,0.1,0.6,0.4,0.7,0.7
					c0,0.1,0,0.2,0,0.3c0.2,0,0.4,0,0.5,0.1c0.1,0.1,0.1,0.2,0.1,0.3c0,0.3-0.2,0.7-0.4,0.9c0.2-0.1,0.4-0.1,0.6,0
					c0.4,0.1,0.7,0.3,0.9,0.5c0.1,0.2,0.2,0.6-0.1,1.1l0,0l-0.4,0.4c0.3,0,0.6,0,0.8,0.3c0.2,0.3,0.3,0.7,0.1,1.1
					c-0.2,0.4-0.5,0.6-1.1,0.7c0.1,0.1,0.3,0.2,0.3,0.4c0,0.2,0,0.3-0.2,0.5c-0.5,0.4-0.9,0.3-1.1,0.3c0,0.1,0,0.3-0.1,0.6
					c-0.1,0.4-0.2,0.6-0.4,0.6c0.3,0.1,0.7,0.4,0.7,0.8c0,0.3,0,0.6-0.2,0.8c-0.1,0.1-0.3,0.2-0.5,0.2c0.1,0.2,0.3,0.5,0.2,0.7
					c0,0.2-0.1,0.3-0.3,0.4c0,0-0.3,0.3-0.9,0c0.1,0.2,0.2,0.5,0.1,0.7c-0.1,0.2-0.3,0.3-0.6,0.4c-0.6,0.1-0.9,0.1-1.1,0
					c0,0.1,0,0.3-0.1,0.5c-0.1,0.2-0.3,0.3-0.5,0.3C61.4,44.9,61,44.4,61,44.4z M61.1,44.4L61.1,44.4L61.1,44.4"/>
			</g>
			<path class="st7" d="M54.7,38.8c0,0-0.9,0.9-0.2,1.3c0.7,0.4,1.3-0.5,1.3-0.5s-0.2,1.1,0.5,1.3s1-0.2,1.1-0.7c0,0,0,1,0.8,1.1
				s0.6-1,0.6-1"/>
		</g>
		<g>
			<path class="st6" d="M67.1,32.7c0,0,0-1,0.4-1.2c0.4-0.2,1.1,0,1.2,0.4s0.2,0.7,0.2,0.7s0.1-0.5,0.5-0.5c0.5,0,1,0.2,0.9,0.6
				c-0.1,0.3-0.1,0.6-0.1,0.6S70.4,33,71,33s1,0.2,1,0.5s-0.3,0.6-0.3,0.6s0.1,0.1,0.4-0.1s0.4-0.5,0.9-0.2c0.4,0.3,0.5,0.8,0.3,0.9
				c-0.2,0.1,0.3-0.5,0.8-0.5c0.5,0,0.9,0.6,0.7,1.3s-0.4,0.7-0.2,0.6s0.7,0,1,0.5s0.8,1.5,0,2C74.9,39,74.9,39,74.9,39
				s0.3,0,0.8,0.3s0.8,1,0.4,1.1c-0.4,0.1-0.3,0.5-1.1,0.1c0,0,0.5,0.4,0.6,0.9c0.1,0.5-0.4,1-0.8,0.8c0,0,0.5,0.6,0,0.8
				s-1.4,0-1.4,0s0.5,0.1,0.6,0.7c0.1,0.6-0.1,1.3-1.2,1.2l-0.9-0.3c0,0,0.5,0.5,0.2,1c-0.4,0.5-1.3,1-2.2-0.4c0,0,0.1,0.9-0.7,0.6
				c-0.8-0.3-0.6-0.9-0.6-0.9s-0.2,0-0.7,0.2c-0.5,0.1-0.7,0-0.9-0.4c0,0,0.1,0.9-0.4,1.2c-0.5,0.3-1,0.2-1.2-0.4
				c0,0-0.5,0.9-1.1,0.4c0,0-0.5-0.2-0.3-1c0,0-0.7,1-1.3,0.2c-0.6-0.8-0.3-1.1-0.3-1.1s-0.6,0.6-1.1,0c-0.5-0.6-0.6-1.1-0.4-1.2
				c0,0-0.9,0.5-1.3-0.3c-0.4-0.9-0.4-1.4-0.1-1.6c0.2-0.2,0.2,0.1-0.3-0.7s-0.7-1.8,0-2l1.2-0.2c0,0-0.3,0-0.4-0.5
				c-0.1-0.6,0-1.4,0.7-1.3c0,0-0.7-0.1-0.5-0.8c0.2-0.7,0.2-1,0.9-1c0,0-0.4-0.3,0.3-0.8c0,0,0.8-0.4,1.1,0.1S62,33.3,62.4,33
				c0.4-0.3,0.9-0.7,1.3-0.3c0,0-0.4-0.8,0.2-0.9c0.6-0.1,1.1,0,1.1,0.5c0,0-0.1-0.9,0.5-0.8c0,0,0.9,0.2,0.7,0.9
				c0,0-0.3-0.7,0.2-0.8C66.8,31.6,67.1,32.7,67.1,32.7z"/>
			<path class="st7" d="M63.9,35.1c0,0-1.2-0.4-1.3,0.4c-0.1,0.8,1,0.9,1,0.9s-1.2,0.3-1.1,1c0.1,0.7,0.6,0.9,1.1,0.8
				c0,0-1,0.4-0.7,1.1c0.3,0.7,1.2,0.2,1.2,0.2"/>
		</g>
		<g>
			<path class="st6" d="M52.4,23.2c0,0-0.2,1.2-1.1,0.8c-0.9-0.4-0.5-1.2-0.5-1.2s-0.8,1.3-1.7,0.8c-0.9-0.5-0.5-1.2-0.5-1.2
				s-0.6,1.3-1.5,0.8c-0.9-0.5-0.5-1.3-0.5-1.3s-0.8,1.2-1.5,0.6c-0.8-0.6-0.2-1.3-0.2-1.3s-0.8,1-2.2-0.1c-1.4-1.1,0-1.8,0-1.8
				s-1.4,0.8-1.9,0c-0.5-0.8,0.5-1.4,0.5-1.4s-1,0.3-1.5-0.5c-0.5-0.8,0.5-1.6,0.5-1.6s-1.2-0.3-1.2-2c0.1-1.7,1.4-0.9,1.4-0.9
				s-1-0.3-1-1.2c0-1,1.3-0.5,1.3-0.5s-0.9-0.7-0.6-1.5c0.3-0.8,1.4-0.2,1.4-0.2s-0.7-0.8-0.2-2s2-0.1,2-0.1s-0.9-1.2-0.3-1.6
				c0.6-0.5,1.3,0,1.3,0s-0.6-1,0.1-1.4c0.7-0.4,1.3,0.2,1.3,0.2s-0.9-1,0.3-1.5c1.2-0.5,1.3,0.5,1.3,0.5s-0.5-1.1,0.7-1.3
				s1.4,0.7,1.4,0.7s-0.3-0.9,0.6-1c0.9-0.1,1,1.1,1,1.1s0.7-1.2,1.7-0.6S52.5,4,52.5,4s0.4-0.9,1.3-0.6c0.9,0.2,0.4,1.4,0.4,1.4
				s0.6-0.9,1.2-0.4c0.6,0.5,0.1,1.4,0.1,1.4s0.6-1,1.4-0.3c0.7,0.7-0.2,1.5-0.2,1.5s1.3-0.6,1.8,0.3c0.5,1-0.5,1.4-0.5,1.4
				S59.2,8,59.6,9s-0.7,1.5-0.7,1.5s1-0.6,1.5,0.5s-0.9,1.4-0.9,1.4s1.5-0.3,1.7,0.9c0.2,1.2-1.5,1.4-1.5,1.4s0.6-0.3,1.1,0.9
				c0.5,1.2-1.3,1.1-1.3,1.1s1.3,0.3,1.1,1.1s-1,1.5-1.4,1.2l-0.5-0.2c0,0,0.9,0.8,0.2,1.6c-0.7,0.8-1.5,0.1-1.5,0.1
				s0.9,0.4,0.3,1.2s-1.7-0.1-1.7-0.1s0.4,0.2,0,1c-0.4,0.8-1.2,0-1.2,0s0.7,0.9,0,1.2c-0.7,0.3-1-0.7-1-0.7s0.3,1-0.3,1
				S52.4,23.2,52.4,23.2z"/>
			<path class="st6" d="M53.5,9.8c0,0,0.5-0.9,1.3-0.3c0.8,0.6,0.4,1.1,0.4,1.1s1-1.8,2.1-1.4c1.2,0.4-0.3,1.4-0.3,1.4
				s1.7-0.4,1.7,0.6c0,1-1,0.9-1,0.9"/>
			<path class="st6" d="M45.1,9.2c0,0-1-1.2,0-1.6c1-0.4,1.7,0.4,1.7,0.4s-0.5-1.3,0.2-1.5C47.7,6.1,48.1,7,48.1,7S48,5.5,48.6,5.4
				c0,0,1.1-0.6,1.2,0.6c0.2,1.2,0.2,1.2,0.2,1.2"/>
		</g>
		<g>
			<path class="st6" d="M36.2,41.4c0,0.3,0.6,1.2-0.4,1.4c-1,0.2-1.1-0.9-1.1-0.9s0.6,1.3-1,1.5c-1.5,0.2-1.2-1.1-1.2-1.1
				s0.2,0.2-0.7,0.9s-1.4,0.2-1.4-0.5c0,0-0.3,0.6-1.4,0.6c-1,0.1-0.8-0.2-0.9-0.8c0,0-0.6,1-1.2,0.6c-0.6-0.4-0.4-1.2-0.4-1.2
				S26,42.4,25.3,42c-0.7-0.4,0-1.4,0-1.4s-1.3,0-1.2-0.5c0.1-0.5,0.9-1.2,0.9-1.2s-0.5-0.1-1.1-0.4c-0.6-0.3-0.6-0.7-0.2-0.8
				c0.4-0.2,0.5-0.3,0.5-0.3s-1.2,0.3-1.5-0.2c-0.3-0.5,0-1.2,0.5-1.2c0,0-0.9,0-1-0.4c0-0.5-0.1-0.8,0.3-0.9c0,0-0.8,0-0.9-0.4
				c-0.1-0.4,0.6-0.8,0.6-0.8s-1.1-0.6-1-1.5c0,0,0-1.1,0.7-1.1l0.9,0.1c0,0-1.1-0.7-1.1-1.4c0,0,0-0.8,0.5-0.9c0.6-0.1,1.2,0,1.2,0
				s-1-0.6-1-1.2s-0.1-0.9,0.1-1.3c0.2-0.4,1.2-0.4,1.6-0.3c0,0-0.4-0.7-0.2-1c0,0,0.2-0.7,0.5-1s1-0.1,1.3,0.2
				c0.2,0.4-0.1-1.2,0.3-1.5c0,0,0.4-0.4,1.1-0.4c0,0,1.2,0.1,1.3,0.8l0.1,0.6c0,0,0.3-1.1,1-1.3c0.7-0.2,1.5,0.1,1.6,0.5l0.3,0.8
				c0,0,0.4-1.1,1.2-1.1c0.7,0,1.3,0.1,1.5,0.6l0.2,0.4c0,0,0.2-1,0.9-1c0.7,0,0.9,0.6,0.8,1.1c0,0,0.5-0.4,1.1-0.1
				c0,0,0.5,0.4,0.3,1c0,0,0.4-0.6,1.4-0.2c0,0,0.8,0.3,0.7,0.9c0,0,0.4-0.4,1-0.1c0.7,0.3,0.2,1.3,0,1.4c-0.2,0.1,0.9-0.1,0.8,0.7
				c0,0-0.1,0.4-0.6,0.6c0,0,0.7-0.2,1.3,0.4c0,0,0.4,0.6-0.1,1.2c0,0,0.3-0.2,0.8,0.5c0,0,0.5,0.7-0.1,1.1c0,0-0.3,0.2-0.5,0.2
				c0,0,0.8,0,1.1,0.4c0,0,1,1.3-0.7,1.7c0,0,0.2-0.1,0.6,0.4c0.4,0.4,0.1,0.9,0.1,0.9s-0.2,0.6-1.3,0.4c0,0,1.1,0.4,0.9,1.1
				S41.3,37,41.3,37s0.3,0.2,0.2,0.5c0,0.3-0.4,0.7-1.1,0.3c0,0,0,0.1,0.1,0.5c0,0.4-0.2,0.9-0.7,0.8s-0.8-0.3-0.8-0.3
				s0.6,0.6,0.2,1c-0.5,0.3-0.9,0.3-1.1,0.1c0,0,0.6,0.3,0.1,0.8s-1,0.1-1.1-0.1c0,0,0.7,0.6,0.3,1C37.1,41.8,36.2,41.4,36.2,41.4z"
				/>
			<path class="st7" d="M26.3,29.6c0,0-1.2-0.1-1,0.6c0.2,0.7,0.9,0.6,0.9,0.6s-0.8,0.2-0.8,0.8s0.1,0.8,0.6,0.9c0,0-0.8,0.1-0.1,1
				c0,0,0.5,0.4,1,0.1c0,0,0,1,0.6,0.9c0.5,0,1-0.2,1-0.9"/>
		</g>
		<g>
			<path class="st6" d="M56.3,14.5c0,0,0-1.3,0.6-1.5c0.5-0.2,1.4,0,1.6,0.5s0.3,0.9,0.3,0.9s0.1-0.7,0.7-0.7c0.6,0,1.3,0.3,1.2,0.7
				c-0.1,0.4-0.2,0.8-0.2,0.8s0.2-0.4,0.9-0.4s1.3,0.3,1.3,0.6c0,0.3-0.4,0.8-0.4,0.8s0.2,0.1,0.6-0.2c0.4-0.3,0.6-0.6,1.1-0.2
				c0.6,0.4,0.6,1.1,0.4,1.2c-0.3,0.1,0.4-0.6,1.1-0.7c0.7,0,1.2,0.9,1,1.7s-0.6,0.9-0.3,0.8c0.3-0.1,0.9,0,1.4,0.7s1,1.9,0,2.6
				c-1,0.7-1,0.7-1,0.7s0.4,0,1,0.5c0.6,0.4,1.1,1.3,0.6,1.4s-0.4,0.6-1.5,0.1c0,0,0.7,0.5,0.8,1.2c0.1,0.7-0.6,1.3-1,1.1
				c0,0,0.6,0.8,0,1s-1.9-0.1-1.9-0.1s0.6,0.1,0.8,0.9c0.2,0.8-0.2,1.7-1.6,1.6l-1.1-0.4c0,0,0.7,0.6,0.2,1.3
				c-0.5,0.6-1.7,1.3-2.9-0.5c0,0,0.1,1.2-0.9,0.8c-1-0.4-0.8-1.2-0.8-1.2s-0.2,0.1-0.9,0.2c-0.7,0.1-0.9,0.1-1.1-0.6
				c0,0,0.1,1.2-0.5,1.6c-0.7,0.3-1.3,0.2-1.6-0.5c0,0-0.7,1.2-1.4,0.6c0,0-0.6-0.3-0.4-1.3c0,0-0.9,1.4-1.7,0.3
				c-0.8-1.1-0.4-1.4-0.4-1.4s-0.8,0.8-1.4-0.1s-0.8-1.4-0.5-1.6c0,0-1.2,0.7-1.7-0.4c-0.5-1.1-0.5-1.8-0.2-2.1
				c0.3-0.3,0.3,0.2-0.4-0.9c-0.7-1.1-0.9-2.4-0.1-2.6l1.5-0.2c0,0-0.4,0-0.6-0.7c-0.1-0.7,0-1.9,0.9-1.7c0,0-0.9-0.1-0.6-1
				s0.3-1.3,1.2-1.3c0,0-0.5-0.4,0.4-1c0,0,1.1-0.5,1.5,0.2c0.4,0.7-0.7-0.7-0.2-1.1s1.1-1,1.6-0.4c0,0-0.6-1,0.2-1.1s1.4,0,1.4,0.6
				c0,0-0.2-1.2,0.6-1c0,0,1.2,0.2,1,1.2c0,0-0.4-1,0.2-1C55.9,13,56.3,14.5,56.3,14.5z"/>
			<path class="st7" d="M52.2,17.6c0,0-1.6-0.6-1.7,0.5c-0.1,1,1.3,1.2,1.3,1.2s-1.5,0.4-1.4,1.3c0.1,0.9,0.7,1.1,1.4,1
				c0,0-1.3,0.5-0.9,1.5c0.4,1,1.5,0.2,1.5,0.2"/>
		</g>
		<g>
			<path class="st6" d="M41.1,30.5c0,0-0.2,1.2-1.1,0.8c-0.9-0.4-0.5-1.2-0.5-1.2s-0.8,1.2-1.6,0.8s-0.5-1.1-0.5-1.1
				S36.9,31,36,30.4c-0.9-0.5-0.5-1.2-0.5-1.2s-0.7,1.1-1.5,0.6c-0.8-0.6-0.2-1.3-0.2-1.3s-0.8,0.9-2.2-0.1c-1.3-1,0-1.7,0-1.7
				s-1.3,0.8-1.8,0s0.4-1.4,0.4-1.4s-1,0.3-1.5-0.5c-0.5-0.8,0.5-1.6,0.5-1.6s-1.2-0.3-1.1-1.9c0-1.6,1.4-0.9,1.4-0.9s-1-0.2-1-1.2
				c0-0.9,1.2-0.5,1.2-0.5s-0.9-0.6-0.6-1.4c0.3-0.8,1.3-0.2,1.3-0.2s-0.6-0.7-0.2-1.9c0.4-1.2,2-0.1,2-0.1s-0.9-1.1-0.3-1.6
				s1.3,0,1.3,0s-0.6-0.9,0.1-1.3c0.6-0.4,1.3,0.2,1.3,0.2s-0.9-0.9,0.3-1.4c1.2-0.5,1.2,0.5,1.2,0.5s-0.5-1.1,0.7-1.2
				c1.2-0.1,1.3,0.6,1.3,0.6s-0.3-0.8,0.6-0.9c0.8-0.1,1,1,1,1s0.7-1.2,1.6-0.6s0,1.3,0,1.3s0.4-0.9,1.2-0.6
				c0.8,0.2,0.4,1.3,0.4,1.3s0.6-0.8,1.2-0.4c0.6,0.4,0.1,1.3,0.1,1.3s0.6-0.9,1.3-0.3s-0.2,1.5-0.2,1.5s1.2-0.6,1.7,0.3
				s-0.5,1.3-0.5,1.3s1.2-0.7,1.6,0.4c0.4,1-0.7,1.4-0.7,1.4s0.9-0.5,1.5,0.5s-0.9,1.4-0.9,1.4s1.5-0.3,1.6,0.8s-1.5,1.3-1.5,1.3
				s0.6-0.3,1.1,0.9c0.5,1.1-1.3,1-1.3,1s1.3,0.3,1.1,1.1c-0.2,0.8-1,1.4-1.3,1.2l-0.5-0.2c0,0,0.9,0.7,0.2,1.5
				c-0.7,0.8-1.4,0.1-1.4,0.1s0.8,0.4,0.2,1.2c-0.6,0.7-1.7-0.1-1.7-0.1s0.4,0.2,0,1s-1.2,0-1.2,0s0.7,0.8,0,1.1s-1-0.7-1-0.7
				s0.3,0.9-0.3,1C41.3,31.3,41.1,30.5,41.1,30.5z"/>
			<path class="st6" d="M34,16.9c0,0-1-1.2,0-1.6s1.6,0.3,1.6,0.3s-0.5-1.2,0.2-1.5s1.1,0.6,1.1,0.6s-0.1-1.4,0.4-1.5
				c0.6-0.1,1.2,0.7,1.2,0.7S38.1,13,39,13.1c0.9,0.1,1.7,1,1.1,1.4c0,0,1-0.2,1,0.7s-0.6,1-0.6,1s2-0.4,2.4,0.7s-1.3,0.6-1.3,0.6
				s1.3,1,0.6,1.6S40.9,19,40.9,19"/>
		</g>
		<path class="st5" d="M39.6,34.9c0,0-1,0.4-0.5,1.1c0.6,0.7,1.2,0.1,1.2,0.1s-1,0.9-0.3,1.6c0.6,0.6,1.2,0.1,1.2,0.1
			s-1,0.8-0.3,1.4s1.3,0.1,1.3,0.1s-0.9,0.9-0.2,1.4c0.7,0.5,1.2-0.1,1.2-0.1s-0.7,0.9,0.6,1.8s1.6-0.4,1.6-0.4s-0.4,1.3,0.4,1.6
			s1.2-0.7,1.2-0.7s0,0.9,0.8,1.1s1.3-0.8,1.3-0.8s0.6,0.9,2,0.5c1.5-0.4,0.5-1.4,0.5-1.4s0.5,0.8,1.3,0.6c0.9-0.2,0.1-1.1,0.1-1.1
			s0.8,0.6,1.4,0.1c0.6-0.4-0.1-1.2-0.1-1.2s0.8,0.4,1.8-0.3c1-0.6-0.4-1.7-0.4-1.7s1.3,0.5,1.5-0.2c0.3-0.6-0.3-1.1-0.3-1.1
			s1,0.2,1.2-0.4s-0.5-1-0.5-1s1.1,0.5,1.2-0.6c0.2-1.1-0.8-0.9-0.8-0.9s1.1,0.2,1-0.9c-0.2-1-0.9-1-0.9-1s0.8,0,0.7-0.7
			s-1.2-0.6-1.2-0.6s0.9-0.9,0.2-1.5c-0.7-0.6-1.2,0.4-1.2,0.4s0.7-0.5,0.3-1.2s-1.3,0-1.3,0s0.6-0.7,0.1-1.1
			c-0.5-0.4-1.3,0.2-1.3,0.2s0.7-0.7,0-1.2s-1.3,0.5-1.3,0.5s0.3-1.2-0.7-1.4S51.4,27,51.4,27s0.3-1.2-0.7-1.3
			c-1-0.1-1.2,0.9-1.2,0.9s0.3-0.9-0.8-1.1c-1.1-0.2-1.1,1.1-1.1,1.1s0-1.3-1.2-1.2c-1.1,0.1-0.9,1.6-0.9,1.6s0.1-0.6-1.1-0.7
			c-1.2-0.2-0.6,1.4-0.6,1.4s-0.5-1-1.3-0.7s-1.1,1.2-0.8,1.4l0.3,0.4c0,0-0.9-0.6-1.4,0.2c-0.5,0.8,0.3,1.2,0.3,1.2
			s-0.6-0.6-1.1,0.1c-0.5,0.7,0.5,1.4,0.5,1.4s-0.3-0.3-0.9,0.2s0.2,1,0.2,1s-0.9-0.4-1,0.3c-0.1,0.7,0.9,0.7,0.9,0.7
			s-0.9-0.1-0.8,0.5S39.6,34.9,39.6,34.9z"/>
		<path class="st8" d="M41.9,40.8c-0.2-0.1-0.3-0.3-0.3-0.5c0-0.3,0.1-0.5,0.2-0.7c-0.3,0.1-0.6,0-1-0.3c-0.2-0.2-0.3-0.4-0.3-0.6
			c0-0.2,0.1-0.4,0.3-0.6c0,0-0.1,0-0.1,0c-0.2,0-0.5-0.1-0.7-0.3c-0.4-0.4-0.2-1,0.1-1.4c-0.1,0-0.2,0-0.3,0c0,0,0,0,0,0
			c-0.2,0-0.4-0.1-0.6-0.4c-0.2-0.2-0.2-0.4-0.2-0.6c0.1-0.2,0.2-0.4,0.4-0.5c-0.3,0-0.7-0.2-0.8-0.6c0-0.2,0-0.3,0.1-0.4
			c0.1-0.1,0.2-0.1,0.3-0.2c-0.1,0-0.2-0.1-0.3-0.2c-0.1-0.1-0.2-0.3-0.1-0.5c0-0.2,0.1-0.3,0.3-0.4c0.1-0.1,0.3-0.1,0.5-0.1
			c0,0,0,0,0,0c-0.1-0.1-0.2-0.2-0.2-0.4c0-0.2,0.1-0.4,0.3-0.5c0.3-0.2,0.5-0.3,0.7-0.3c-0.2-0.2-0.4-0.4-0.4-0.7
			c0-0.2,0-0.4,0.2-0.6c0.2-0.2,0.4-0.3,0.6-0.3c0.1,0,0.1,0,0.2,0c0-0.1-0.1-0.1-0.1-0.2c-0.1-0.2,0-0.5,0.2-0.7
			c0.4-0.5,0.9-0.5,1.2-0.4l-0.1-0.1c-0.1-0.1-0.1-0.2-0.1-0.4c0-0.4,0.4-0.9,0.9-1.2c0.3-0.2,0.7-0.1,1,0.2c0,0,0.1,0.1,0.1,0.1
			c0-0.3,0-0.6,0.2-0.8c0.1-0.2,0.4-0.2,0.7-0.2c0.4,0.1,0.7,0.2,0.9,0.3c0-0.3,0.1-0.6,0.3-0.8c0.2-0.2,0.4-0.3,0.7-0.4
			c0.3,0,0.6,0,0.8,0.2c0.2,0.2,0.3,0.4,0.4,0.6c0.1-0.2,0.2-0.4,0.3-0.5c0.2-0.2,0.5-0.2,0.8-0.2c0.4,0.1,0.6,0.2,0.8,0.5
			c0.1,0.1,0.1,0.2,0.1,0.3c0.2-0.3,0.5-0.6,1.1-0.5c0.3,0,0.5,0.1,0.7,0.3c0.1,0.2,0.2,0.4,0.2,0.5c0.1-0.1,0.1-0.1,0.2-0.2
			c0.2-0.1,0.5-0.2,0.8-0.1c0.3,0.1,0.5,0.2,0.6,0.4c0.2,0.2,0.2,0.6,0.2,0.8c0.1-0.1,0.3-0.3,0.6-0.4c0.2-0.1,0.4,0,0.7,0.1
			c0.2,0.1,0.4,0.3,0.4,0.5c0,0.2,0,0.3-0.1,0.4c0.3-0.1,0.7-0.2,1,0c0.1,0.1,0.2,0.2,0.2,0.4c0,0.2,0,0.4-0.1,0.5
			c0.2-0.1,0.4-0.2,0.7-0.1c0.2,0,0.4,0.1,0.5,0.3c0.1,0.2,0.2,0.5,0.1,0.6c0,0,0.1,0,0.1,0c0.2,0,0.4,0,0.7,0.2
			c0.2,0.2,0.3,0.4,0.3,0.6c0,0.4-0.2,0.7-0.4,0.9c0.4,0,1,0.2,1.1,0.7c0,0.2,0,0.4-0.1,0.6c-0.1,0.1-0.2,0.1-0.3,0.2
			c0.2,0.1,0.5,0.4,0.6,1c0,0.3,0,0.6-0.2,0.7c-0.1,0.1-0.2,0.1-0.3,0.2c0,0,0,0,0,0c0.2,0.2,0.3,0.5,0.2,0.9
			c-0.1,0.3-0.2,0.6-0.4,0.7c-0.2,0.1-0.4,0.1-0.6,0.1c0.2,0.2,0.3,0.5,0.2,0.9c-0.1,0.5-0.7,0.5-1,0.5c0.2,0.2,0.4,0.6,0.2,1
			c-0.2,0.5-0.9,0.4-1.3,0.3c0.2,0.2,0.5,0.6,0.5,1c0,0.2-0.1,0.4-0.4,0.6C55.6,41,55,41,54.7,41c0.1,0.2,0.2,0.4,0.2,0.6
			c0,0.2-0.1,0.3-0.3,0.5c-0.4,0.3-0.9,0.2-1.2,0c0.1,0.2,0.2,0.4,0.1,0.6c-0.1,0.2-0.2,0.3-0.5,0.3c-0.4,0.1-0.7,0-0.9-0.2
			c0,0.1,0,0.2,0,0.3c-0.1,0.3-0.4,0.5-0.9,0.6c-1.2,0.4-1.8-0.3-1.8-0.3c0.5,0.3,1.7,0.1,1.7,0.1c0.4-0.1,0.7-0.3,0.7-0.5
			c0-0.2,0-0.4-0.1-0.5c-0.1-0.1-0.2-0.2-0.2-0.2l-0.3-0.5l0.5,0.4c0,0,0.1,0.1,0.2,0.2c0.2,0.2,0.6,0.4,1.1,0.3
			c0.2,0,0.3-0.1,0.3-0.2c0.1-0.3-0.1-0.6-0.2-0.8l-0.4-0.5l0.5,0.3c0,0,0.8,0.5,1.3,0.1c0.1-0.1,0.2-0.2,0.2-0.3
			c0-0.3-0.3-0.7-0.3-0.7L54,40.5l0.4,0.2c0,0,0.8,0.3,1.7-0.2c0.2-0.1,0.3-0.3,0.3-0.4c0-0.5-0.7-1.1-0.7-1.1l-0.5-0.3l0.5,0.2
			c0,0,1.2,0.4,1.4-0.1c0.2-0.5-0.3-1-0.3-1l-0.3-0.2l0.4,0.1c0,0,0.9,0.2,1.1-0.3c0.2-0.6-0.4-0.9-0.4-1l0.1-0.1
			c0,0,0.5,0.2,0.8,0.1c0.2-0.1,0.3-0.3,0.3-0.6c0-0.3,0-0.6-0.2-0.7c-0.1-0.1-0.1-0.1-0.2-0.1c-0.2,0-0.3,0-0.3,0l-0.5-0.1l0.5-0.1
			c0,0,0.2,0,0.3,0c0.1,0,0.3-0.1,0.4-0.2c0.1-0.1,0.2-0.3,0.1-0.6C59,33,58.5,33,58.3,33c0,0,0,0,0,0l0-0.2c0,0,0,0,0,0
			c0.1,0,0.4,0,0.5-0.2c0.1-0.1,0.1-0.2,0.1-0.4c-0.1-0.6-1.1-0.5-1.1-0.5l-0.3,0l0.2-0.2c0,0,0.5-0.5,0.4-0.9
			c0-0.2-0.1-0.3-0.3-0.5c-0.2-0.2-0.4-0.2-0.5-0.2c-0.1,0-0.1,0.1-0.2,0.1c-0.1,0.3-0.3,0.4-0.4,0.4l-0.3,0.2l0.1-0.3
			c0,0,0.1-0.3,0.3-0.4c0.1-0.2,0.1-0.4-0.1-0.7C57,29.1,56.8,29,56.7,29c-0.4-0.1-0.9,0.3-0.9,0.3l-0.7,0.5l0.5-0.6
			c0,0,0.3-0.4,0.3-0.7c0-0.1-0.1-0.2-0.2-0.3c-0.5-0.3-1.1,0.2-1.1,0.2l-0.1-0.1c0,0,0.3-0.3,0.3-0.7c0-0.2-0.1-0.3-0.3-0.4
			c-0.2-0.1-0.3-0.1-0.5-0.1c-0.4,0.1-0.7,0.6-0.7,0.6L53,28.2l0.1-0.6c0,0,0.1-0.6-0.1-1c-0.1-0.2-0.3-0.3-0.5-0.3
			c-0.3-0.1-0.5,0-0.7,0.1c-0.2,0.2-0.3,0.4-0.3,0.5c0,0,0,0.1,0,0.1l-0.2,0c0,0,0,0,0-0.1c0-0.2,0.1-0.6-0.1-0.9
			c-0.1-0.2-0.3-0.2-0.5-0.3c-0.8-0.1-1,0.5-1.1,0.8c0,0.1,0,0.1,0,0.1l-0.2,0c0,0,0,0,0-0.1c0-0.1,0-0.4-0.1-0.6
			c-0.1-0.2-0.3-0.3-0.7-0.4c-0.3,0-0.5,0-0.6,0.1c-0.3,0.3-0.3,0.9-0.3,0.9l-0.2,0c0,0,0-0.6-0.4-0.9c-0.2-0.1-0.4-0.2-0.7-0.2
			c-0.3,0-0.5,0.1-0.6,0.3c-0.2,0.3-0.2,0.8-0.2,1c0,0.1,0,0.2,0,0.2l-0.1,0.5L45.5,27c0,0,0-0.1,0-0.2c-0.1-0.1-0.3-0.4-1-0.5
			c-0.2,0-0.4,0-0.5,0.1c-0.3,0.3,0,1.1,0,1.1l-0.2,0.1c0,0-0.5-0.9-1.1-0.6c-0.5,0.2-0.8,0.7-0.8,1c0,0.1,0,0.2,0.1,0.2l0.7,0.8
			l-0.5-0.3c0,0-0.8-0.5-1.3,0.2c-0.1,0.2-0.2,0.4-0.2,0.6c0,0.2,0.1,0.3,0.2,0.4c0.1,0.1,0.2,0.1,0.2,0.1l0.4,0.4l-0.5-0.3
			c0,0-0.1-0.1-0.2-0.1C40.7,30,40.5,30,40.4,30c-0.2,0-0.3,0.1-0.5,0.3c-0.1,0.1-0.2,0.3-0.1,0.4c0.1,0.4,0.5,0.7,0.6,0.8
			c0,0,0,0,0,0l-0.1,0.1c0,0,0,0,0,0c-0.1,0-0.3-0.1-0.8,0.2c-0.1,0.1-0.2,0.2-0.2,0.4c0,0.2,0.3,0.4,0.4,0.5l-0.1,0.2
			c0,0-0.5-0.2-0.7,0c-0.1,0.1-0.2,0.1-0.2,0.3c0,0.1,0,0.3,0.1,0.4c0.2,0.2,0.6,0.2,0.7,0.2c0,0,0,0,0,0l0,0.2c0,0,0,0,0,0
			c-0.2,0-0.5,0-0.7,0.2c-0.1,0.1-0.1,0.1-0.1,0.2c0.1,0.5,0.9,0.5,0.9,0.5l0.5,0L39.7,35c0,0-0.5,0.2-0.6,0.5c0,0.1,0,0.3,0.1,0.4
			c0.5,0.6,1.1,0.1,1.1,0.1l0.1,0.1c0,0-0.9,0.9-0.3,1.5c0.2,0.2,0.4,0.3,0.6,0.3c0.2,0,0.3-0.1,0.4-0.1c0,0,0,0,0.1,0l0.1,0.1
			c0,0,0,0-0.1,0c-0.1,0.1-0.5,0.4-0.5,0.8c0,0.2,0.1,0.3,0.2,0.5c0.6,0.6,1.1,0.2,1.2,0.1l0.1,0.1c0,0-0.5,0.5-0.4,0.9
			c0,0.2,0.1,0.3,0.2,0.4c0,0,0.6,0.3,1.2,0C43.2,40.7,42.7,41.3,41.9,40.8z"/>
		<g>
			<path class="st5" d="M53.9,37.6c0,0,1.3,0.6,1.5-0.3c0.1-0.9-0.7-1.3-0.7-1.3s1.3,0.1,1.3-0.5s-0.8-0.8-0.8-0.8s1.3-0.2,1.3-0.7
				c-0.1-0.5-0.9-0.9-0.9-0.9s1,0.2,0.7-0.6c-0.3-0.7-1.3-1.2-1.6-0.6c0,0,0-0.9-0.9-0.7c-0.9,0.2-0.8,0.8-0.8,0.8"/>
			<path class="st8" d="M54.6,37.9c-0.3,0-0.6-0.2-0.7-0.2l0.1-0.2c0,0,0.7,0.3,1.1,0.1c0.1-0.1,0.2-0.2,0.2-0.4
				c0.1-0.8-0.6-1.2-0.7-1.2l-0.5-0.2l0.5,0.1c0,0,1.2,0.1,1.2-0.5c0.1-0.6-0.7-0.7-0.7-0.7l-0.5-0.1l0.5-0.1
				c0.3-0.1,1.2-0.3,1.2-0.6c0-0.5-0.9-0.8-0.9-0.8l-0.7-0.3l0.7,0.1c0.1,0,0.5,0,0.6-0.1c0.1-0.1,0.1-0.2,0-0.4
				c-0.2-0.5-0.7-0.8-1.1-0.8c-0.2,0-0.3,0.1-0.4,0.2l-0.2,0.4l0-0.4c0,0,0-0.4-0.3-0.5c-0.1-0.1-0.3-0.1-0.6-0.1
				C52.9,31.5,53,31.9,53,32l-0.2,0c0,0-0.1-0.6,0.8-0.9c0.3-0.1,0.5,0,0.7,0.1c0.2,0.1,0.3,0.3,0.3,0.4c0.1-0.1,0.2-0.1,0.4-0.1
				c0.5,0,1,0.4,1.2,0.9c0.1,0.2,0.1,0.4,0,0.5c-0.1,0.1-0.2,0.1-0.4,0.2c0.3,0.2,0.6,0.4,0.7,0.8c0,0.4-0.6,0.6-1,0.7
				c0.3,0.1,0.6,0.4,0.6,0.8c-0.1,0.5-0.7,0.6-1.1,0.6c0.3,0.2,0.6,0.6,0.5,1.2c0,0.2-0.2,0.4-0.3,0.5C55,37.9,54.8,37.9,54.6,37.9z
				"/>
		</g>
		<path class="st8" d="M7,43.1c0,0-0.6-0.3-0.7-0.4L7.1,43"/>
		<g>
			<g>
				<path class="st5" d="M71.5,18.8c0,0,0.2-0.9-0.1-1.2c-0.4-0.3-1.1-0.2-1.3,0.1c-0.2,0.3-0.4,0.6-0.4,0.6s0-0.5-0.4-0.6
					s-1,0-1,0.4c0,0.3,0,0.6,0,0.6s-0.1-0.3-0.6-0.5c-0.5-0.2-1,0-1.1,0.2c0,0.2,0.1,0.7,0.1,0.7s-0.2,0.1-0.4-0.2
					c-0.2-0.3-0.3-0.5-0.8-0.4c-0.5,0.2-0.7,0.7-0.5,0.8c0.2,0.1-0.2-0.5-0.7-0.7c-0.5-0.1-1.1,0.4-1,1.1c0.1,0.6,0.2,0.7,0.1,0.6
					c-0.2-0.1-0.6-0.1-1.1,0.3c-0.5,0.4-1.1,1.2-0.5,1.9c0.6,0.7,0.6,0.7,0.6,0.7s-0.3,0-0.8,0.2c-0.5,0.2-1,0.8-0.7,1
					c0.3,0.2,0.2,0.5,1.1,0.3c0,0-0.6,0.3-0.8,0.7c-0.2,0.5,0.2,1,0.5,1c0,0-0.6,0.5-0.2,0.8c0.4,0.3,1.4,0.3,1.4,0.3
					s-0.5,0-0.8,0.6c-0.3,0.6-0.2,1.3,0.9,1.4l0.9-0.1c0,0-0.6,0.4-0.4,0.9s1,1.2,2.2,0.1c0,0-0.3,0.9,0.5,0.8
					c0.8-0.1,0.8-0.8,0.8-0.8s0.2,0.1,0.6,0.3s0.7,0.2,0.9-0.2c0,0-0.3,0.9,0.1,1.2s0.9,0.4,1.3-0.1c0,0,0.3,1,1,0.7
					c0,0,0.5-0.1,0.5-0.9c0,0,0.4,1.2,1.2,0.5c0.8-0.7,0.6-1,0.6-1s0.5,0.7,1,0.2c0.6-0.5,0.8-0.9,0.6-1.1c0,0,0.8,0.7,1.3,0
					c0.6-0.8,0.7-1.3,0.5-1.5s-0.2,0.1,0.5-0.6c0.7-0.7,1.1-1.6,0.5-1.9l-1.1-0.4c0,0,0.3,0.1,0.6-0.4c0.2-0.5,0.3-1.4-0.4-1.4
					c0,0,0.7,0.1,0.6-0.6c-0.1-0.7,0-1-0.7-1.2c0,0,0.5-0.2-0.1-0.8c0,0-0.7-0.5-1.1-0.1c-0.4,0.4,0.6-0.4,0.3-0.8
					c-0.3-0.4-0.7-0.9-1.1-0.6c0,0,0.6-0.7,0-0.9c-0.6-0.2-1-0.3-1.2,0.2c0,0,0.3-0.9-0.3-0.9c0,0-0.9,0-0.9,0.8c0,0,0.5-0.6,0-0.8
					C72.1,17.8,71.5,18.8,71.5,18.8z"/>
				<path class="st8" d="M67.8,30.6c0.4,0.2,0.6,0.2,0.8-0.2l0.4-0.6l-0.2,0.6c0,0-0.3,0.8,0.1,1.2c0.2,0.2,0.4,0.3,0.6,0.2
					c0.2,0,0.3-0.1,0.5-0.3l0.1-0.1l0.1,0.2c0,0,0.2,0.5,0.5,0.6c0.1,0.1,0.2,0,0.4,0c0,0,0.5-0.1,0.5-0.9l0-0.5l0.2,0.4
					c0,0,0.2,0.5,0.6,0.6c0.2,0,0.3,0,0.5-0.2c0.7-0.6,0.6-0.9,0.6-0.9l0.2-0.1c0,0,0.2,0.3,0.5,0.3c0,0,0,0,0,0
					c0.1,0,0.3,0,0.4-0.2c0.6-0.5,0.7-0.8,0.7-0.9c0,0,0-0.1,0-0.1c0,0,0,0,0,0l0,0l0.1-0.1l0,0l0,0c0,0,0,0,0,0
					c0,0,0.3,0.3,0.7,0.3c0.2,0,0.3-0.1,0.5-0.3c0.7-0.9,0.6-1.3,0.5-1.4c0-0.1-0.1-0.1-0.1-0.1c0,0-0.1,0,0-0.1c0,0,0-0.1,0.1-0.1
					c0.1,0,0.2-0.1,0.5-0.4c0.5-0.5,0.8-1.1,0.8-1.5c0-0.1-0.1-0.2-0.2-0.3l-1.1-0.4l0.1-0.2c0,0,0.3,0.1,0.4-0.4
					c0.2-0.4,0.2-0.9,0.1-1.1c-0.1-0.1-0.2-0.1-0.3-0.2c0,0-0.1,0-0.1,0c0,0,0,0,0,0l0-0.2c0,0,0,0,0,0c0.1,0,0.2,0,0.4-0.1
					c0.1-0.1,0.1-0.2,0.1-0.4c0-0.1,0-0.2,0-0.3c0-0.5,0-0.7-0.6-0.8l-0.2,0l0.2-0.1c0,0,0.1-0.1,0.1-0.2c0-0.1-0.1-0.3-0.2-0.5l0,0
					c0,0-0.5-0.4-0.9-0.2c-0.1,0.1-0.2,0.2-0.2,0.2l-0.1,0l-0.1,0c-0.1-0.1,0-0.1,0.1-0.2c0,0,0.1-0.1,0.1-0.1
					c0.1-0.2,0.3-0.4,0.2-0.6c-0.2-0.4-0.5-0.6-0.7-0.6c-0.1,0-0.2,0-0.3,0.1l-0.5,0.3l0.4-0.5c0.1-0.1,0.3-0.4,0.2-0.6
					c0-0.1-0.1-0.1-0.2-0.2c-0.4-0.2-0.7-0.2-0.8-0.1c-0.1,0-0.1,0.1-0.2,0.2c0,0.1,0,0.1,0,0.1l-0.2,0c0,0,0-0.1,0-0.1
					c0-0.2,0.1-0.4,0-0.6c0-0.1-0.1-0.1-0.2-0.1c0,0-0.4,0-0.6,0.2c0,0.3-0.2,0.5-0.2,0.6L72.5,19l0-0.3c0-0.2,0.1-0.4,0.2-0.6
					c0,0,0,0,0,0c0-0.1-0.1-0.1-0.2-0.1c-0.3-0.1-0.8,0.6-0.9,0.8l-0.3,0.6l0.1-0.6c0.1-0.2,0.1-0.9-0.1-1.1
					c-0.2-0.1-0.4-0.2-0.7-0.1c-0.2,0-0.4,0.1-0.5,0.2c-0.2,0.3-0.4,0.6-0.4,0.6l-0.2,0.5l0-0.5c0,0,0-0.4-0.3-0.5
					c-0.3-0.1-0.6,0-0.8,0.1c-0.1,0-0.1,0.1-0.1,0.2c0,0.3,0,0.6,0,0.6l-0.1,0.6l-0.1-0.5c0,0-0.1-0.3-0.5-0.4c-0.4-0.1-0.7,0-0.8,0
					c-0.1,0-0.1,0.1-0.1,0.1c0,0.2,0.1,0.5,0.1,0.6l0,0.1l-0.1,0c0,0-0.2,0.1-0.5-0.2c0,0-0.1-0.1-0.1-0.1c-0.2-0.2-0.2-0.3-0.6-0.2
					c-0.3,0.1-0.4,0.3-0.5,0.5c0.1,0.1,0.1,0.2,0.1,0.2c0,0.1,0,0.1,0,0.1c0,0-0.1,0-0.1,0c-0.1,0-0.1-0.1-0.1-0.3c0,0,0,0,0,0
					c-0.1-0.1-0.3-0.3-0.5-0.4c-0.2,0-0.4,0-0.5,0.1c-0.2,0.2-0.4,0.5-0.4,0.8c0,0.3,0.1,0.5,0.1,0.6c0,0.1,0,0.1,0,0.2
					c-0.1,0-0.1,0-0.2,0c-0.2-0.1-0.6-0.1-1,0.3c-0.2,0.1-0.7,0.6-0.7,1.2c0,0.2,0.1,0.4,0.2,0.6l0.8,0.8l-0.2,0c0,0-0.3,0-0.8,0.2
					c-0.4,0.2-0.7,0.5-0.7,0.7c0,0.1,0,0.1,0.1,0.1c0.1,0.1,0.2,0.1,0.2,0.2c0.1,0.1,0.2,0.2,0.8,0.1l0.1,0.2c0,0-0.6,0.3-0.8,0.7
					c0,0-0.1,0.8,0.5,0.9c0,0-0.8,0.1-0.6-1c0-0.3,0.3-0.4,0.5-0.6c-0.3,0-0.4-0.1-0.5-0.2c0-0.1-0.1-0.1-0.2-0.2
					c-0.1-0.1-0.2-0.2-0.1-0.3c0-0.3,0.5-0.7,0.9-0.8c0.3-0.1,0.5-0.2,0.7-0.2l-0.5-0.5c-0.2-0.2-0.3-0.5-0.3-0.8
					c0-0.6,0.6-1.1,0.8-1.3c0.5-0.4,0.9-0.4,1.2-0.3c0-0.1-0.1-0.3-0.1-0.5c0-0.4,0.1-0.8,0.4-1c0.2-0.2,0.5-0.2,0.7-0.2
					c0.2,0.1,0.4,0.2,0.5,0.3c0.1-0.2,0.3-0.4,0.5-0.5c0.5-0.2,0.6,0,0.8,0.2c0,0,0.1,0.1,0.1,0.1c0.1,0.1,0.2,0.2,0.2,0.2
					c0-0.2-0.1-0.4-0.1-0.6c0-0.1,0.1-0.2,0.2-0.2c0.2-0.1,0.6-0.2,1-0.1c0.3,0.1,0.4,0.2,0.5,0.3c0-0.1,0-0.2,0-0.3
					c0-0.1,0-0.2,0.2-0.3c0.2-0.2,0.6-0.2,1-0.1c0.2,0.1,0.4,0.2,0.4,0.4c0.1-0.1,0.1-0.2,0.2-0.4c0.1-0.2,0.3-0.3,0.6-0.3
					c0.3,0,0.6,0,0.8,0.2c0.2,0.2,0.3,0.6,0.2,0.9c0.2-0.3,0.6-0.7,0.9-0.5c0.1,0.1,0.2,0.1,0.2,0.2c0.3-0.2,0.6-0.2,0.7-0.2
					c0.2,0,0.3,0,0.4,0.1c0.1,0.1,0.1,0.2,0.1,0.4c0,0,0,0,0,0c0.2-0.1,0.5-0.1,1,0.1c0.2,0.1,0.2,0.2,0.3,0.3c0,0.2,0,0.3-0.1,0.5
					c0.1,0,0.1,0,0.2,0c0.3,0.1,0.5,0.3,0.8,0.7c0.1,0.2,0,0.4-0.1,0.6c0.4,0,0.8,0.3,0.8,0.3c0.2,0.2,0.3,0.5,0.3,0.7
					c0,0.1,0,0.1-0.1,0.2c0.5,0.2,0.5,0.5,0.6,0.9c0,0.1,0,0.2,0,0.3c0,0.3,0,0.4-0.2,0.6c0,0-0.1,0.1-0.2,0.1
					c0.1,0,0.1,0.1,0.1,0.1c0.2,0.3,0.1,0.9-0.1,1.3c-0.1,0.2-0.2,0.4-0.3,0.4l0.8,0.3c0.2,0.1,0.3,0.2,0.3,0.4
					c0.1,0.4-0.2,1-0.8,1.6c-0.3,0.3-0.4,0.4-0.5,0.4c0,0,0,0,0,0.1c0.2,0.3,0.1,0.9-0.5,1.6c-0.2,0.2-0.4,0.4-0.6,0.4
					c-0.2,0-0.5-0.1-0.6-0.2c0,0.3-0.4,0.7-0.7,0.9c-0.2,0.2-0.4,0.2-0.6,0.2c-0.2,0-0.3-0.1-0.4-0.2c0,0.2-0.2,0.5-0.6,0.8
					c-0.2,0.2-0.5,0.3-0.7,0.2c-0.2-0.1-0.4-0.3-0.5-0.5c-0.1,0.6-0.6,0.7-0.6,0.7c-0.1,0-0.2,0.1-0.3,0.1c-0.1,0-0.1,0-0.2-0.1
					c-0.3-0.1-0.4-0.4-0.5-0.6c-0.2,0.2-0.3,0.3-0.5,0.3c-0.2,0-0.5-0.1-0.8-0.3c-0.3-0.2-0.3-0.7-0.2-1c-0.2,0.2-0.4,0.1-0.8,0
					L67.8,30.6z"/>
			</g>
			<path class="st7" d="M74.1,21.8c0,0,1.3-0.2,1.2,0.6s-1.2,0.7-1.2,0.7s1.1,0.5,0.8,1.2c-0.3,0.7-0.8,0.7-1.2,0.5
				c0,0,0.9,0.6,0.4,1.2c-0.5,0.6-1.2-0.1-1.2-0.1s0.5,1.9-0.2,1.8s-1.3-1.2-1.3-1.2s-0.7,1.6-1.1,0.9c-0.4-0.7,0-1.1,0.2-1.3"/>
		</g>
	</g>
</g>
</svg>
